%TF.GenerationSoftware,KiCad,Pcbnew,(5.1.10)-1*%
%TF.CreationDate,2022-03-25T14:17:47+01:00*%
%TF.ProjectId,Kicad_capteur_graphite,4b696361-645f-4636-9170-746575725f67,rev?*%
%TF.SameCoordinates,Original*%
%TF.FileFunction,Copper,L2,Bot*%
%TF.FilePolarity,Positive*%
%FSLAX46Y46*%
G04 Gerber Fmt 4.6, Leading zero omitted, Abs format (unit mm)*
G04 Created by KiCad (PCBNEW (5.1.10)-1) date 2022-03-25 14:17:47*
%MOMM*%
%LPD*%
G01*
G04 APERTURE LIST*
%TA.AperFunction,ComponentPad*%
%ADD10C,2.000000*%
%TD*%
%TA.AperFunction,ComponentPad*%
%ADD11O,2.540000X2.000000*%
%TD*%
%TA.AperFunction,ComponentPad*%
%ADD12R,2.000000X2.000000*%
%TD*%
%TA.AperFunction,ComponentPad*%
%ADD13O,2.000000X2.540000*%
%TD*%
%TA.AperFunction,ComponentPad*%
%ADD14O,1.727200X2.032000*%
%TD*%
%TA.AperFunction,ComponentPad*%
%ADD15C,4.064000*%
%TD*%
%TA.AperFunction,Conductor*%
%ADD16C,0.500000*%
%TD*%
%TA.AperFunction,Conductor*%
%ADD17C,0.254000*%
%TD*%
%TA.AperFunction,Conductor*%
%ADD18C,0.100000*%
%TD*%
G04 APERTURE END LIST*
D10*
%TO.P,C4,2*%
%TO.N,ADC*%
X153898000Y-91265000D03*
%TO.P,C4,1*%
%TO.N,GND*%
X161398000Y-91265000D03*
%TD*%
%TO.P,C3,2*%
%TO.N,Net-(C3-Pad2)*%
X147828000Y-112435000D03*
%TO.P,C3,1*%
%TO.N,IN-*%
X147828000Y-114935000D03*
%TD*%
%TO.P,C2,2*%
%TO.N,+5V*%
X144058000Y-92075000D03*
%TO.P,C2,1*%
%TO.N,GND*%
X146558000Y-92075000D03*
%TD*%
%TO.P,C1,2*%
%TO.N,IN+*%
X127508000Y-109895000D03*
%TO.P,C1,1*%
%TO.N,GND*%
X127508000Y-112395000D03*
%TD*%
D11*
%TO.P,U4,5*%
%TO.N,GND*%
X171958000Y-92075000D03*
%TO.P,U4,4*%
%TO.N,+5V*%
X171958000Y-89535000D03*
%TO.P,U4,3*%
%TO.N,SWITCH*%
X171958000Y-86995000D03*
%TO.P,U4,2*%
%TO.N,DATA*%
X171958000Y-84455000D03*
%TO.P,U4,1*%
%TO.N,CLK*%
X171958000Y-81915000D03*
%TD*%
%TO.P,U3,4*%
%TO.N,GND*%
X127558000Y-97155000D03*
%TO.P,U3,5*%
%TO.N,Net-(U3-Pad5)*%
X135078000Y-97155000D03*
%TO.P,U3,3*%
%TO.N,IN+*%
X127558000Y-94615000D03*
%TO.P,U3,6*%
%TO.N,Net-(C3-Pad2)*%
X135078000Y-94615000D03*
%TO.P,U3,2*%
%TO.N,IN-*%
X127558000Y-92075000D03*
%TO.P,U3,7*%
%TO.N,+5V*%
X135078000Y-92075000D03*
D12*
%TO.P,U3,1*%
%TO.N,Net-(U3-Pad1)*%
X127558000Y-89535000D03*
D11*
%TO.P,U3,8*%
%TO.N,Net-(U3-Pad8)*%
X135078000Y-89535000D03*
%TD*%
D13*
%TO.P,U2,6*%
%TO.N,N/C*%
X152908000Y-80645000D03*
%TO.P,U2,5*%
X150368000Y-80645000D03*
%TO.P,U2,4*%
%TO.N,TX*%
X147828000Y-80645000D03*
%TO.P,U2,3*%
%TO.N,RX*%
X145288000Y-80645000D03*
%TO.P,U2,2*%
%TO.N,GND*%
X142748000Y-80645000D03*
%TO.P,U2,1*%
%TO.N,+5V*%
X140208000Y-80645000D03*
%TD*%
D11*
%TO.P,U1,4*%
%TO.N,SDA*%
X173228000Y-113665000D03*
%TO.P,U1,3*%
%TO.N,SCK*%
X173228000Y-111125000D03*
%TO.P,U1,2*%
%TO.N,+5V*%
X173228000Y-108585000D03*
%TO.P,U1,1*%
%TO.N,GND*%
X173228000Y-106045000D03*
%TD*%
D10*
%TO.P,R6,2*%
%TO.N,IN-*%
X152908000Y-114935000D03*
%TO.P,R6,1*%
%TO.N,GND*%
X160528000Y-114935000D03*
%TD*%
%TO.P,R5,2*%
%TO.N,Net-(C3-Pad2)*%
X147828000Y-104775000D03*
%TO.P,R5,1*%
%TO.N,ADC*%
X155448000Y-104775000D03*
%TD*%
%TO.P,R4,2*%
%TO.N,IN-*%
X142748000Y-114935000D03*
%TO.P,R4,1*%
%TO.N,Net-(C3-Pad2)*%
X142748000Y-107315000D03*
%TD*%
%TO.P,R3,2*%
%TO.N,GND*%
X133858000Y-114935000D03*
%TO.P,R3,1*%
%TO.N,IN+*%
X133858000Y-107315000D03*
%TD*%
%TO.P,R2,2*%
%TO.N,Net-(R1-Pad2)*%
X114808000Y-107315000D03*
%TO.P,R2,1*%
%TO.N,IN+*%
X122428000Y-107315000D03*
%TD*%
%TO.P,R1,2*%
%TO.N,Net-(R1-Pad2)*%
X114808000Y-103505000D03*
%TO.P,R1,1*%
%TO.N,+5V*%
X114808000Y-95885000D03*
%TD*%
D14*
%TO.P,P1,1*%
%TO.N,Net-(P1-Pad1)*%
X138938000Y-123825000D03*
%TO.P,P1,2*%
%TO.N,/IOREF*%
X141478000Y-123825000D03*
%TO.P,P1,3*%
%TO.N,/Reset*%
X144018000Y-123825000D03*
%TO.P,P1,4*%
%TO.N,+3V3*%
X146558000Y-123825000D03*
%TO.P,P1,5*%
%TO.N,+5V*%
X149098000Y-123825000D03*
%TO.P,P1,6*%
%TO.N,GND*%
X151638000Y-123825000D03*
%TO.P,P1,7*%
X154178000Y-123825000D03*
%TO.P,P1,8*%
%TO.N,/Vin*%
X156718000Y-123825000D03*
%TD*%
%TO.P,P2,1*%
%TO.N,ADC*%
X161798000Y-123825000D03*
%TO.P,P2,2*%
%TO.N,/A1*%
X164338000Y-123825000D03*
%TO.P,P2,3*%
%TO.N,/A2*%
X166878000Y-123825000D03*
%TO.P,P2,4*%
%TO.N,/A3*%
X169418000Y-123825000D03*
%TO.P,P2,5*%
%TO.N,SDA*%
X171958000Y-123825000D03*
%TO.P,P2,6*%
%TO.N,SCK*%
X174498000Y-123825000D03*
%TD*%
%TO.P,P3,1*%
%TO.N,/A5_SCL*%
X129794000Y-75565000D03*
%TO.P,P3,2*%
%TO.N,/A4_SDA*%
X132334000Y-75565000D03*
%TO.P,P3,3*%
%TO.N,/AREF*%
X134874000Y-75565000D03*
%TO.P,P3,4*%
%TO.N,GND*%
X137414000Y-75565000D03*
%TO.P,P3,5*%
%TO.N,/13(SCK)*%
X139954000Y-75565000D03*
%TO.P,P3,6*%
%TO.N,/12(MISO)*%
X142494000Y-75565000D03*
%TO.P,P3,7*%
%TO.N,RX*%
X145034000Y-75565000D03*
%TO.P,P3,8*%
%TO.N,TX*%
X147574000Y-75565000D03*
%TO.P,P3,9*%
%TO.N,/9(\u002A\u002A)*%
X150114000Y-75565000D03*
%TO.P,P3,10*%
%TO.N,/8*%
X152654000Y-75565000D03*
%TD*%
%TO.P,P4,1*%
%TO.N,/7*%
X156718000Y-75565000D03*
%TO.P,P4,2*%
%TO.N,/6(\u002A\u002A)*%
X159258000Y-75565000D03*
%TO.P,P4,3*%
%TO.N,/5(\u002A\u002A)*%
X161798000Y-75565000D03*
%TO.P,P4,4*%
%TO.N,SWITCH*%
X164338000Y-75565000D03*
%TO.P,P4,5*%
%TO.N,DATA*%
X166878000Y-75565000D03*
%TO.P,P4,6*%
%TO.N,CLK*%
X169418000Y-75565000D03*
%TO.P,P4,7*%
%TO.N,/1(Tx)*%
X171958000Y-75565000D03*
%TO.P,P4,8*%
%TO.N,/0(Rx)*%
X174498000Y-75565000D03*
%TD*%
D15*
%TO.P,P5,1*%
%TO.N,Net-(P5-Pad1)*%
X124968000Y-123825000D03*
%TD*%
%TO.P,P6,1*%
%TO.N,Net-(P6-Pad1)*%
X177038000Y-118745000D03*
%TD*%
%TO.P,P7,1*%
%TO.N,Net-(P7-Pad1)*%
X126238000Y-75565000D03*
%TD*%
%TO.P,P8,1*%
%TO.N,Net-(P8-Pad1)*%
X177038000Y-90805000D03*
%TD*%
D16*
%TO.N,+5V*%
X140208000Y-88265000D02*
X141558000Y-89615000D01*
X168148000Y-90805000D02*
X165608000Y-88265000D01*
X133858000Y-92075000D02*
X135078000Y-92075000D01*
X114808000Y-95885000D02*
X117348000Y-95885000D01*
X163068000Y-85725000D02*
X165608000Y-88265000D01*
X145288000Y-85725000D02*
X163068000Y-85725000D01*
X141558000Y-89455000D02*
X145288000Y-85725000D01*
X141558000Y-89615000D02*
X141558000Y-89455000D01*
X140208000Y-88265000D02*
X140208000Y-80645000D01*
X168148000Y-90805000D02*
X169418000Y-89535000D01*
X169418000Y-89535000D02*
X171958000Y-89535000D01*
X169418000Y-108585000D02*
X170688000Y-108585000D01*
X168148000Y-107315000D02*
X169418000Y-108585000D01*
X168148000Y-90805000D02*
X168148000Y-107315000D01*
X170688000Y-108585000D02*
X173228000Y-108585000D01*
X140708000Y-92075000D02*
X141558000Y-91225000D01*
X140208000Y-92075000D02*
X140708000Y-92075000D01*
X141558000Y-89615000D02*
X141558000Y-91225000D01*
X135078000Y-92075000D02*
X140208000Y-92075000D01*
X141558000Y-91245000D02*
X142388000Y-92075000D01*
X141558000Y-91225000D02*
X141558000Y-91245000D01*
X142388000Y-92075000D02*
X144058000Y-92075000D01*
X130608000Y-92075000D02*
X135078000Y-92075000D01*
X129998000Y-91465000D02*
X130608000Y-92075000D01*
X129998000Y-88624998D02*
X129998000Y-91465000D01*
X129138002Y-87765000D02*
X129998000Y-88624998D01*
X125898000Y-87765000D02*
X129138002Y-87765000D01*
X124968000Y-88695000D02*
X125898000Y-87765000D01*
X124968000Y-93345000D02*
X124968000Y-88695000D01*
X122428000Y-95885000D02*
X124968000Y-93345000D01*
X117348000Y-95885000D02*
X122428000Y-95885000D01*
X149098000Y-122555000D02*
X149098000Y-123825000D01*
X144018000Y-117475000D02*
X149098000Y-122555000D01*
X133858000Y-117475000D02*
X144018000Y-117475000D01*
X123698000Y-113665000D02*
X124968000Y-114935000D01*
X124968000Y-114935000D02*
X131318000Y-114935000D01*
X122428000Y-109855000D02*
X123698000Y-111125000D01*
X123698000Y-111125000D02*
X123698000Y-113665000D01*
X119888000Y-109855000D02*
X122428000Y-109855000D01*
X118618000Y-108585000D02*
X119888000Y-109855000D01*
X131318000Y-114935000D02*
X133858000Y-117475000D01*
X118618000Y-97155000D02*
X118618000Y-108585000D01*
X117348000Y-95885000D02*
X118618000Y-97155000D01*
%TO.N,IN+*%
X133778000Y-107395000D02*
X133858000Y-107315000D01*
X125748000Y-107315000D02*
X126248000Y-107315000D01*
X122428000Y-107315000D02*
X125748000Y-107315000D01*
X125748000Y-107315000D02*
X127428000Y-107315000D01*
X127508000Y-108575000D02*
X127508000Y-109895000D01*
X126248000Y-107315000D02*
X127508000Y-108575000D01*
X128778000Y-94615000D02*
X130048000Y-95885000D01*
X127558000Y-94615000D02*
X128778000Y-94615000D01*
X127428000Y-107315000D02*
X129348000Y-107315000D01*
X132433774Y-107315000D02*
X132648000Y-107315000D01*
X130048000Y-95885000D02*
X130048000Y-104929226D01*
X130048000Y-104929226D02*
X132433774Y-107315000D01*
X132648000Y-107315000D02*
X133858000Y-107315000D01*
X129348000Y-107315000D02*
X132648000Y-107315000D01*
%TO.N,Net-(C3-Pad2)*%
X142748000Y-107315000D02*
X145288000Y-107315000D01*
X146558000Y-107315000D02*
X145288000Y-107315000D01*
X146558000Y-107315000D02*
X147828000Y-106045000D01*
X147828000Y-106045000D02*
X147828000Y-104775000D01*
X142748000Y-111715000D02*
X142748000Y-107315000D01*
X143468000Y-112435000D02*
X142748000Y-111715000D01*
X147828000Y-112435000D02*
X143468000Y-112435000D01*
X132968010Y-94615000D02*
X135078000Y-94615000D01*
X135012217Y-104764990D02*
X132797990Y-104764990D01*
X132318010Y-95265000D02*
X132968010Y-94615000D01*
X132797990Y-104764990D02*
X132318010Y-104285010D01*
X136698010Y-111065010D02*
X136698010Y-106450783D01*
X132318010Y-104285010D02*
X132318010Y-95265000D01*
X139567990Y-113934990D02*
X136698010Y-111065010D01*
X136698010Y-106450783D02*
X135012217Y-104764990D01*
X141028010Y-113934990D02*
X139567990Y-113934990D01*
X142748000Y-112215000D02*
X141028010Y-113934990D01*
X142748000Y-111715000D02*
X142748000Y-112215000D01*
%TO.N,IN-*%
X142748000Y-114935000D02*
X147828000Y-114935000D01*
X152908000Y-114935000D02*
X147828000Y-114935000D01*
X131318000Y-94615000D02*
X128778000Y-92075000D01*
X128778000Y-92075000D02*
X127558000Y-92075000D01*
X142748000Y-114935000D02*
X141478000Y-114935000D01*
X131318000Y-94615000D02*
X131318000Y-104785000D01*
X131318000Y-104785000D02*
X132298000Y-105765000D01*
X132298000Y-105765000D02*
X134598000Y-105765000D01*
X134598000Y-105765000D02*
X135698000Y-106865000D01*
X135698000Y-106865000D02*
X135698000Y-111550773D01*
X139082227Y-114935000D02*
X141478000Y-114935000D01*
X135698000Y-111550773D02*
X139082227Y-114935000D01*
%TO.N,ADC*%
X161798000Y-118745000D02*
X161798000Y-123825000D01*
X153898000Y-103225000D02*
X155448000Y-104775000D01*
X153898000Y-91265000D02*
X153898000Y-103225000D01*
X155448000Y-104775000D02*
X159008000Y-104775000D01*
X159008000Y-104775000D02*
X163598000Y-109365000D01*
X163598000Y-116945000D02*
X161798000Y-118745000D01*
X163598000Y-109365000D02*
X163598000Y-116945000D01*
%TO.N,SDA*%
X173228000Y-122555000D02*
X171958000Y-123825000D01*
X173228000Y-113665000D02*
X173228000Y-122555000D01*
%TO.N,SCK*%
X174255999Y-123582999D02*
X174498000Y-123825000D01*
X174498000Y-122555000D02*
X174498000Y-123825000D01*
X173228000Y-111125000D02*
X174498000Y-111125000D01*
X174498000Y-111125000D02*
X175768000Y-112395000D01*
X174255999Y-117409639D02*
X174255999Y-122312999D01*
X175768000Y-115897638D02*
X174255999Y-117409639D01*
X175768000Y-112395000D02*
X175768000Y-115897638D01*
%TO.N,RX*%
X145034000Y-80391000D02*
X145288000Y-80645000D01*
X145034000Y-75565000D02*
X145034000Y-80391000D01*
%TO.N,TX*%
X147574000Y-80391000D02*
X147828000Y-80645000D01*
X147574000Y-75565000D02*
X147574000Y-80391000D01*
%TO.N,CLK*%
X171958000Y-81915000D02*
X170688000Y-81915000D01*
X169418000Y-80645000D02*
X169418000Y-75565000D01*
X170688000Y-81915000D02*
X169418000Y-80645000D01*
%TO.N,DATA*%
X171958000Y-84455000D02*
X171688000Y-84455000D01*
X166878000Y-76835000D02*
X166878000Y-75565000D01*
X168398000Y-78355000D02*
X166878000Y-76835000D01*
X168398000Y-81039227D02*
X168398000Y-78355000D01*
X169798000Y-82439227D02*
X168398000Y-81039227D01*
X170588000Y-84455000D02*
X169798000Y-83665000D01*
X169798000Y-83665000D02*
X169798000Y-82439227D01*
X171958000Y-84455000D02*
X170588000Y-84455000D01*
%TO.N,SWITCH*%
X164338000Y-76835000D02*
X164338000Y-75565000D01*
X165368000Y-77865000D02*
X164338000Y-76835000D01*
X166493774Y-77865000D02*
X165368000Y-77865000D01*
X168798000Y-82853453D02*
X167397990Y-81453444D01*
X168798000Y-84079227D02*
X168798000Y-82853453D01*
X169898000Y-85179227D02*
X168798000Y-84079227D01*
X167397990Y-78769216D02*
X166493774Y-77865000D01*
X169898000Y-86065000D02*
X169898000Y-85179227D01*
X167397990Y-81453444D02*
X167397990Y-78769216D01*
X170828000Y-86995000D02*
X169898000Y-86065000D01*
X171958000Y-86995000D02*
X170828000Y-86995000D01*
%TO.N,Net-(R1-Pad2)*%
X114808000Y-103505000D02*
X114808000Y-107315000D01*
%TD*%
D17*
%TO.N,GND*%
X124166406Y-73864887D02*
X123874536Y-74301702D01*
X123673492Y-74787065D01*
X123571000Y-75302323D01*
X123571000Y-75827677D01*
X123673492Y-76342935D01*
X123874536Y-76828298D01*
X124166406Y-77265113D01*
X124537887Y-77636594D01*
X124974702Y-77928464D01*
X125460065Y-78129508D01*
X125975323Y-78232000D01*
X126500677Y-78232000D01*
X127015935Y-78129508D01*
X127501298Y-77928464D01*
X127938113Y-77636594D01*
X128309594Y-77265113D01*
X128601464Y-76828298D01*
X128657001Y-76694219D01*
X128729203Y-76782197D01*
X128957395Y-76969469D01*
X129217737Y-77108625D01*
X129500224Y-77194316D01*
X129794000Y-77223251D01*
X130087777Y-77194316D01*
X130370264Y-77108625D01*
X130630606Y-76969469D01*
X130858797Y-76782197D01*
X131046069Y-76554006D01*
X131064000Y-76520459D01*
X131081931Y-76554006D01*
X131269203Y-76782197D01*
X131497395Y-76969469D01*
X131757737Y-77108625D01*
X132040224Y-77194316D01*
X132334000Y-77223251D01*
X132627777Y-77194316D01*
X132910264Y-77108625D01*
X133170606Y-76969469D01*
X133398797Y-76782197D01*
X133586069Y-76554006D01*
X133604000Y-76520459D01*
X133621931Y-76554006D01*
X133809203Y-76782197D01*
X134037395Y-76969469D01*
X134297737Y-77108625D01*
X134580224Y-77194316D01*
X134874000Y-77223251D01*
X135167777Y-77194316D01*
X135450264Y-77108625D01*
X135710606Y-76969469D01*
X135938797Y-76782197D01*
X136126069Y-76554006D01*
X136147424Y-76514053D01*
X136295514Y-76716729D01*
X136511965Y-76915733D01*
X136763081Y-77068686D01*
X137039211Y-77169709D01*
X137054974Y-77172358D01*
X137287000Y-77051217D01*
X137287000Y-75692000D01*
X137267000Y-75692000D01*
X137267000Y-75438000D01*
X137287000Y-75438000D01*
X137287000Y-74078783D01*
X137541000Y-74078783D01*
X137541000Y-75438000D01*
X137561000Y-75438000D01*
X137561000Y-75692000D01*
X137541000Y-75692000D01*
X137541000Y-77051217D01*
X137773026Y-77172358D01*
X137788789Y-77169709D01*
X138064919Y-77068686D01*
X138316035Y-76915733D01*
X138532486Y-76716729D01*
X138680576Y-76514053D01*
X138701931Y-76554006D01*
X138889203Y-76782197D01*
X139117395Y-76969469D01*
X139377737Y-77108625D01*
X139660224Y-77194316D01*
X139954000Y-77223251D01*
X140247777Y-77194316D01*
X140530264Y-77108625D01*
X140790606Y-76969469D01*
X141018797Y-76782197D01*
X141206069Y-76554006D01*
X141224000Y-76520459D01*
X141241931Y-76554006D01*
X141429203Y-76782197D01*
X141657395Y-76969469D01*
X141917737Y-77108625D01*
X142200224Y-77194316D01*
X142494000Y-77223251D01*
X142787777Y-77194316D01*
X143070264Y-77108625D01*
X143330606Y-76969469D01*
X143558797Y-76782197D01*
X143746069Y-76554006D01*
X143764000Y-76520459D01*
X143781931Y-76554006D01*
X143969203Y-76782197D01*
X144149000Y-76929753D01*
X144149001Y-79194645D01*
X144126286Y-79213286D01*
X144019716Y-79343143D01*
X143814317Y-79129078D01*
X143550761Y-78944990D01*
X143256355Y-78815856D01*
X143128434Y-78784876D01*
X142875000Y-78904223D01*
X142875000Y-80518000D01*
X142895000Y-80518000D01*
X142895000Y-80772000D01*
X142875000Y-80772000D01*
X142875000Y-82385777D01*
X143128434Y-82505124D01*
X143256355Y-82474144D01*
X143550761Y-82345010D01*
X143814317Y-82160922D01*
X144019716Y-81946858D01*
X144126286Y-82076714D01*
X144375249Y-82281031D01*
X144659286Y-82432852D01*
X144967485Y-82526343D01*
X145288000Y-82557911D01*
X145608516Y-82526343D01*
X145916715Y-82432852D01*
X146200752Y-82281031D01*
X146449714Y-82076714D01*
X146558000Y-81944767D01*
X146666286Y-82076714D01*
X146915249Y-82281031D01*
X147199286Y-82432852D01*
X147507485Y-82526343D01*
X147828000Y-82557911D01*
X148148516Y-82526343D01*
X148456715Y-82432852D01*
X148740752Y-82281031D01*
X148989714Y-82076714D01*
X149098000Y-81944767D01*
X149206286Y-82076714D01*
X149455249Y-82281031D01*
X149739286Y-82432852D01*
X150047485Y-82526343D01*
X150368000Y-82557911D01*
X150688516Y-82526343D01*
X150996715Y-82432852D01*
X151280752Y-82281031D01*
X151529714Y-82076714D01*
X151638000Y-81944767D01*
X151746286Y-82076714D01*
X151995249Y-82281031D01*
X152279286Y-82432852D01*
X152587485Y-82526343D01*
X152908000Y-82557911D01*
X153228516Y-82526343D01*
X153536715Y-82432852D01*
X153820752Y-82281031D01*
X154069714Y-82076714D01*
X154274031Y-81827752D01*
X154425852Y-81543715D01*
X154519343Y-81235515D01*
X154543000Y-80995321D01*
X154543000Y-80294678D01*
X154519343Y-80054484D01*
X154425852Y-79746285D01*
X154274031Y-79462248D01*
X154069714Y-79213286D01*
X153820751Y-79008969D01*
X153536714Y-78857148D01*
X153228515Y-78763657D01*
X152908000Y-78732089D01*
X152587484Y-78763657D01*
X152279285Y-78857148D01*
X151995248Y-79008969D01*
X151746286Y-79213286D01*
X151638000Y-79345234D01*
X151529714Y-79213286D01*
X151280751Y-79008969D01*
X150996714Y-78857148D01*
X150688515Y-78763657D01*
X150368000Y-78732089D01*
X150047484Y-78763657D01*
X149739285Y-78857148D01*
X149455248Y-79008969D01*
X149206286Y-79213286D01*
X149098000Y-79345234D01*
X148989714Y-79213286D01*
X148740751Y-79008969D01*
X148459000Y-78858370D01*
X148459000Y-76929753D01*
X148638797Y-76782197D01*
X148826069Y-76554006D01*
X148844000Y-76520459D01*
X148861931Y-76554006D01*
X149049203Y-76782197D01*
X149277395Y-76969469D01*
X149537737Y-77108625D01*
X149820224Y-77194316D01*
X150114000Y-77223251D01*
X150407777Y-77194316D01*
X150690264Y-77108625D01*
X150950606Y-76969469D01*
X151178797Y-76782197D01*
X151366069Y-76554006D01*
X151384000Y-76520459D01*
X151401931Y-76554006D01*
X151589203Y-76782197D01*
X151817395Y-76969469D01*
X152077737Y-77108625D01*
X152360224Y-77194316D01*
X152654000Y-77223251D01*
X152947777Y-77194316D01*
X153230264Y-77108625D01*
X153490606Y-76969469D01*
X153718797Y-76782197D01*
X153906069Y-76554006D01*
X154045225Y-76293663D01*
X154130916Y-76011176D01*
X154152600Y-75791018D01*
X154152600Y-75338981D01*
X154130916Y-75118823D01*
X154045225Y-74836336D01*
X153906069Y-74575994D01*
X153718797Y-74347803D01*
X153490605Y-74160531D01*
X153230263Y-74021375D01*
X152947776Y-73935684D01*
X152654000Y-73906749D01*
X152360223Y-73935684D01*
X152077736Y-74021375D01*
X151817394Y-74160531D01*
X151589203Y-74347803D01*
X151401931Y-74575995D01*
X151384000Y-74609541D01*
X151366069Y-74575994D01*
X151178797Y-74347803D01*
X150950605Y-74160531D01*
X150690263Y-74021375D01*
X150407776Y-73935684D01*
X150114000Y-73906749D01*
X149820223Y-73935684D01*
X149537736Y-74021375D01*
X149277394Y-74160531D01*
X149049203Y-74347803D01*
X148861931Y-74575995D01*
X148844000Y-74609541D01*
X148826069Y-74575994D01*
X148638797Y-74347803D01*
X148410605Y-74160531D01*
X148150263Y-74021375D01*
X147867776Y-73935684D01*
X147574000Y-73906749D01*
X147280223Y-73935684D01*
X146997736Y-74021375D01*
X146737394Y-74160531D01*
X146509203Y-74347803D01*
X146321931Y-74575995D01*
X146304000Y-74609541D01*
X146286069Y-74575994D01*
X146098797Y-74347803D01*
X145870605Y-74160531D01*
X145610263Y-74021375D01*
X145327776Y-73935684D01*
X145034000Y-73906749D01*
X144740223Y-73935684D01*
X144457736Y-74021375D01*
X144197394Y-74160531D01*
X143969203Y-74347803D01*
X143781931Y-74575995D01*
X143764000Y-74609541D01*
X143746069Y-74575994D01*
X143558797Y-74347803D01*
X143330605Y-74160531D01*
X143070263Y-74021375D01*
X142787776Y-73935684D01*
X142494000Y-73906749D01*
X142200223Y-73935684D01*
X141917736Y-74021375D01*
X141657394Y-74160531D01*
X141429203Y-74347803D01*
X141241931Y-74575995D01*
X141224000Y-74609541D01*
X141206069Y-74575994D01*
X141018797Y-74347803D01*
X140790605Y-74160531D01*
X140530263Y-74021375D01*
X140247776Y-73935684D01*
X139954000Y-73906749D01*
X139660223Y-73935684D01*
X139377736Y-74021375D01*
X139117394Y-74160531D01*
X138889203Y-74347803D01*
X138701931Y-74575995D01*
X138680576Y-74615947D01*
X138532486Y-74413271D01*
X138316035Y-74214267D01*
X138064919Y-74061314D01*
X137788789Y-73960291D01*
X137773026Y-73957642D01*
X137541000Y-74078783D01*
X137287000Y-74078783D01*
X137054974Y-73957642D01*
X137039211Y-73960291D01*
X136763081Y-74061314D01*
X136511965Y-74214267D01*
X136295514Y-74413271D01*
X136147424Y-74615947D01*
X136126069Y-74575994D01*
X135938797Y-74347803D01*
X135710605Y-74160531D01*
X135450263Y-74021375D01*
X135167776Y-73935684D01*
X134874000Y-73906749D01*
X134580223Y-73935684D01*
X134297736Y-74021375D01*
X134037394Y-74160531D01*
X133809203Y-74347803D01*
X133621931Y-74575995D01*
X133604000Y-74609541D01*
X133586069Y-74575994D01*
X133398797Y-74347803D01*
X133170605Y-74160531D01*
X132910263Y-74021375D01*
X132627776Y-73935684D01*
X132334000Y-73906749D01*
X132040223Y-73935684D01*
X131757736Y-74021375D01*
X131497394Y-74160531D01*
X131269203Y-74347803D01*
X131081931Y-74575995D01*
X131064000Y-74609541D01*
X131046069Y-74575994D01*
X130858797Y-74347803D01*
X130630605Y-74160531D01*
X130370263Y-74021375D01*
X130087776Y-73935684D01*
X129794000Y-73906749D01*
X129500223Y-73935684D01*
X129217736Y-74021375D01*
X128957394Y-74160531D01*
X128729203Y-74347803D01*
X128657001Y-74435781D01*
X128601464Y-74301702D01*
X128309594Y-73864887D01*
X128179707Y-73735000D01*
X175219909Y-73735000D01*
X176328001Y-74843093D01*
X176328000Y-85944125D01*
X176324565Y-85979000D01*
X176328000Y-86013875D01*
X176328000Y-86013876D01*
X176338273Y-86118183D01*
X176378872Y-86252019D01*
X176444800Y-86375362D01*
X176533525Y-86483474D01*
X176560617Y-86505708D01*
X178868001Y-88813093D01*
X178868001Y-88863294D01*
X178738113Y-88733406D01*
X178301298Y-88441536D01*
X177815935Y-88240492D01*
X177300677Y-88138000D01*
X176775323Y-88138000D01*
X176260065Y-88240492D01*
X175774702Y-88441536D01*
X175337887Y-88733406D01*
X174966406Y-89104887D01*
X174674536Y-89541702D01*
X174473492Y-90027065D01*
X174371000Y-90542323D01*
X174371000Y-91067677D01*
X174473492Y-91582935D01*
X174674536Y-92068298D01*
X174966406Y-92505113D01*
X175337887Y-92876594D01*
X175774702Y-93168464D01*
X176260065Y-93369508D01*
X176775323Y-93472000D01*
X177300677Y-93472000D01*
X177815935Y-93369508D01*
X178301298Y-93168464D01*
X178738113Y-92876594D01*
X178868001Y-92746706D01*
X178868000Y-116803293D01*
X178738113Y-116673406D01*
X178301298Y-116381536D01*
X177815935Y-116180492D01*
X177300677Y-116078000D01*
X176775323Y-116078000D01*
X176629299Y-116107046D01*
X176640195Y-116071128D01*
X176653000Y-115941115D01*
X176653000Y-115941105D01*
X176657281Y-115897639D01*
X176653000Y-115854173D01*
X176653000Y-112438465D01*
X176657281Y-112394999D01*
X176653000Y-112351533D01*
X176653000Y-112351523D01*
X176640195Y-112221510D01*
X176589589Y-112054687D01*
X176507411Y-111900941D01*
X176444735Y-111824571D01*
X176424532Y-111799953D01*
X176424530Y-111799951D01*
X176396817Y-111766183D01*
X176363050Y-111738471D01*
X175154534Y-110529956D01*
X175126817Y-110496183D01*
X174992059Y-110385589D01*
X174942535Y-110359118D01*
X174864031Y-110212248D01*
X174659714Y-109963286D01*
X174527767Y-109855000D01*
X174659714Y-109746714D01*
X174864031Y-109497752D01*
X175015852Y-109213715D01*
X175109343Y-108905516D01*
X175140911Y-108585000D01*
X175109343Y-108264484D01*
X175015852Y-107956285D01*
X174864031Y-107672248D01*
X174659714Y-107423286D01*
X174529858Y-107316716D01*
X174743922Y-107111317D01*
X174928010Y-106847761D01*
X175057144Y-106553355D01*
X175088124Y-106425434D01*
X174968777Y-106172000D01*
X173355000Y-106172000D01*
X173355000Y-106192000D01*
X173101000Y-106192000D01*
X173101000Y-106172000D01*
X171487223Y-106172000D01*
X171367876Y-106425434D01*
X171398856Y-106553355D01*
X171527990Y-106847761D01*
X171712078Y-107111317D01*
X171926142Y-107316716D01*
X171796286Y-107423286D01*
X171591969Y-107672248D01*
X171577135Y-107700000D01*
X169784579Y-107700000D01*
X169033000Y-106948422D01*
X169033000Y-105664566D01*
X171367876Y-105664566D01*
X171487223Y-105918000D01*
X173101000Y-105918000D01*
X173101000Y-104410000D01*
X173355000Y-104410000D01*
X173355000Y-105918000D01*
X174968777Y-105918000D01*
X175088124Y-105664566D01*
X175057144Y-105536645D01*
X174928010Y-105242239D01*
X174743922Y-104978683D01*
X174511954Y-104756105D01*
X174241020Y-104583058D01*
X173941532Y-104466193D01*
X173625000Y-104410000D01*
X173355000Y-104410000D01*
X173101000Y-104410000D01*
X172831000Y-104410000D01*
X172514468Y-104466193D01*
X172214980Y-104583058D01*
X171944046Y-104756105D01*
X171712078Y-104978683D01*
X171527990Y-105242239D01*
X171398856Y-105536645D01*
X171367876Y-105664566D01*
X169033000Y-105664566D01*
X169033000Y-92455434D01*
X170097876Y-92455434D01*
X170128856Y-92583355D01*
X170257990Y-92877761D01*
X170442078Y-93141317D01*
X170674046Y-93363895D01*
X170944980Y-93536942D01*
X171244468Y-93653807D01*
X171561000Y-93710000D01*
X171831000Y-93710000D01*
X171831000Y-92202000D01*
X172085000Y-92202000D01*
X172085000Y-93710000D01*
X172355000Y-93710000D01*
X172671532Y-93653807D01*
X172971020Y-93536942D01*
X173241954Y-93363895D01*
X173473922Y-93141317D01*
X173658010Y-92877761D01*
X173787144Y-92583355D01*
X173818124Y-92455434D01*
X173698777Y-92202000D01*
X172085000Y-92202000D01*
X171831000Y-92202000D01*
X170217223Y-92202000D01*
X170097876Y-92455434D01*
X169033000Y-92455434D01*
X169033000Y-91171578D01*
X169784579Y-90420000D01*
X170307135Y-90420000D01*
X170321969Y-90447752D01*
X170526286Y-90696714D01*
X170656142Y-90803284D01*
X170442078Y-91008683D01*
X170257990Y-91272239D01*
X170128856Y-91566645D01*
X170097876Y-91694566D01*
X170217223Y-91948000D01*
X171831000Y-91948000D01*
X171831000Y-91928000D01*
X172085000Y-91928000D01*
X172085000Y-91948000D01*
X173698777Y-91948000D01*
X173818124Y-91694566D01*
X173787144Y-91566645D01*
X173658010Y-91272239D01*
X173473922Y-91008683D01*
X173259858Y-90803284D01*
X173389714Y-90696714D01*
X173594031Y-90447752D01*
X173745852Y-90163715D01*
X173839343Y-89855516D01*
X173870911Y-89535000D01*
X173839343Y-89214484D01*
X173745852Y-88906285D01*
X173594031Y-88622248D01*
X173389714Y-88373286D01*
X173257767Y-88265000D01*
X173389714Y-88156714D01*
X173594031Y-87907752D01*
X173745852Y-87623715D01*
X173839343Y-87315516D01*
X173870911Y-86995000D01*
X173839343Y-86674484D01*
X173745852Y-86366285D01*
X173594031Y-86082248D01*
X173389714Y-85833286D01*
X173257767Y-85725000D01*
X173389714Y-85616714D01*
X173594031Y-85367752D01*
X173745852Y-85083715D01*
X173839343Y-84775516D01*
X173870911Y-84455000D01*
X173839343Y-84134484D01*
X173745852Y-83826285D01*
X173594031Y-83542248D01*
X173389714Y-83293286D01*
X173257767Y-83185000D01*
X173389714Y-83076714D01*
X173594031Y-82827752D01*
X173745852Y-82543715D01*
X173839343Y-82235516D01*
X173870911Y-81915000D01*
X173839343Y-81594484D01*
X173745852Y-81286285D01*
X173594031Y-81002248D01*
X173389714Y-80753286D01*
X173140752Y-80548969D01*
X172856715Y-80397148D01*
X172548516Y-80303657D01*
X172308322Y-80280000D01*
X171607678Y-80280000D01*
X171367484Y-80303657D01*
X171059285Y-80397148D01*
X170775248Y-80548969D01*
X170664465Y-80639886D01*
X170303000Y-80278422D01*
X170303000Y-76929753D01*
X170482797Y-76782197D01*
X170670069Y-76554006D01*
X170688000Y-76520459D01*
X170705931Y-76554006D01*
X170893203Y-76782197D01*
X171121395Y-76969469D01*
X171381737Y-77108625D01*
X171664224Y-77194316D01*
X171958000Y-77223251D01*
X172251777Y-77194316D01*
X172534264Y-77108625D01*
X172794606Y-76969469D01*
X173022797Y-76782197D01*
X173210069Y-76554006D01*
X173228000Y-76520459D01*
X173245931Y-76554006D01*
X173433203Y-76782197D01*
X173661395Y-76969469D01*
X173921737Y-77108625D01*
X174204224Y-77194316D01*
X174498000Y-77223251D01*
X174791777Y-77194316D01*
X175074264Y-77108625D01*
X175334606Y-76969469D01*
X175562797Y-76782197D01*
X175750069Y-76554006D01*
X175889225Y-76293663D01*
X175974916Y-76011176D01*
X175996600Y-75791018D01*
X175996600Y-75338981D01*
X175974916Y-75118823D01*
X175889225Y-74836336D01*
X175750069Y-74575994D01*
X175562797Y-74347803D01*
X175334605Y-74160531D01*
X175074263Y-74021375D01*
X174791776Y-73935684D01*
X174498000Y-73906749D01*
X174204223Y-73935684D01*
X173921736Y-74021375D01*
X173661394Y-74160531D01*
X173433203Y-74347803D01*
X173245931Y-74575995D01*
X173228000Y-74609541D01*
X173210069Y-74575994D01*
X173022797Y-74347803D01*
X172794605Y-74160531D01*
X172534263Y-74021375D01*
X172251776Y-73935684D01*
X171958000Y-73906749D01*
X171664223Y-73935684D01*
X171381736Y-74021375D01*
X171121394Y-74160531D01*
X170893203Y-74347803D01*
X170705931Y-74575995D01*
X170688000Y-74609541D01*
X170670069Y-74575994D01*
X170482797Y-74347803D01*
X170254605Y-74160531D01*
X169994263Y-74021375D01*
X169711776Y-73935684D01*
X169418000Y-73906749D01*
X169124223Y-73935684D01*
X168841736Y-74021375D01*
X168581394Y-74160531D01*
X168353203Y-74347803D01*
X168165931Y-74575995D01*
X168148000Y-74609541D01*
X168130069Y-74575994D01*
X167942797Y-74347803D01*
X167714605Y-74160531D01*
X167454263Y-74021375D01*
X167171776Y-73935684D01*
X166878000Y-73906749D01*
X166584223Y-73935684D01*
X166301736Y-74021375D01*
X166041394Y-74160531D01*
X165813203Y-74347803D01*
X165625931Y-74575995D01*
X165608000Y-74609541D01*
X165590069Y-74575994D01*
X165402797Y-74347803D01*
X165174605Y-74160531D01*
X164914263Y-74021375D01*
X164631776Y-73935684D01*
X164338000Y-73906749D01*
X164044223Y-73935684D01*
X163761736Y-74021375D01*
X163501394Y-74160531D01*
X163273203Y-74347803D01*
X163085931Y-74575995D01*
X163068000Y-74609541D01*
X163050069Y-74575994D01*
X162862797Y-74347803D01*
X162634605Y-74160531D01*
X162374263Y-74021375D01*
X162091776Y-73935684D01*
X161798000Y-73906749D01*
X161504223Y-73935684D01*
X161221736Y-74021375D01*
X160961394Y-74160531D01*
X160733203Y-74347803D01*
X160545931Y-74575995D01*
X160528000Y-74609541D01*
X160510069Y-74575994D01*
X160322797Y-74347803D01*
X160094605Y-74160531D01*
X159834263Y-74021375D01*
X159551776Y-73935684D01*
X159258000Y-73906749D01*
X158964223Y-73935684D01*
X158681736Y-74021375D01*
X158421394Y-74160531D01*
X158193203Y-74347803D01*
X158005931Y-74575995D01*
X157988000Y-74609541D01*
X157970069Y-74575994D01*
X157782797Y-74347803D01*
X157554605Y-74160531D01*
X157294263Y-74021375D01*
X157011776Y-73935684D01*
X156718000Y-73906749D01*
X156424223Y-73935684D01*
X156141736Y-74021375D01*
X155881394Y-74160531D01*
X155653203Y-74347803D01*
X155465931Y-74575995D01*
X155326775Y-74836337D01*
X155241084Y-75118824D01*
X155219400Y-75338982D01*
X155219400Y-75791019D01*
X155241084Y-76011177D01*
X155326775Y-76293664D01*
X155465931Y-76554006D01*
X155653203Y-76782197D01*
X155881395Y-76969469D01*
X156141737Y-77108625D01*
X156424224Y-77194316D01*
X156718000Y-77223251D01*
X157011777Y-77194316D01*
X157294264Y-77108625D01*
X157554606Y-76969469D01*
X157782797Y-76782197D01*
X157970069Y-76554006D01*
X157988000Y-76520459D01*
X158005931Y-76554006D01*
X158193203Y-76782197D01*
X158421395Y-76969469D01*
X158681737Y-77108625D01*
X158964224Y-77194316D01*
X159258000Y-77223251D01*
X159551777Y-77194316D01*
X159834264Y-77108625D01*
X160094606Y-76969469D01*
X160322797Y-76782197D01*
X160510069Y-76554006D01*
X160528000Y-76520459D01*
X160545931Y-76554006D01*
X160733203Y-76782197D01*
X160961395Y-76969469D01*
X161221737Y-77108625D01*
X161504224Y-77194316D01*
X161798000Y-77223251D01*
X162091777Y-77194316D01*
X162374264Y-77108625D01*
X162634606Y-76969469D01*
X162862797Y-76782197D01*
X163050069Y-76554006D01*
X163068000Y-76520459D01*
X163085931Y-76554006D01*
X163273203Y-76782197D01*
X163458494Y-76934261D01*
X163465805Y-77008489D01*
X163516411Y-77175312D01*
X163598589Y-77329058D01*
X163709183Y-77463817D01*
X163742956Y-77491534D01*
X164711470Y-78460049D01*
X164739183Y-78493817D01*
X164772951Y-78521530D01*
X164772953Y-78521532D01*
X164844452Y-78580210D01*
X164873941Y-78604411D01*
X165027687Y-78686589D01*
X165143903Y-78721843D01*
X165194509Y-78737195D01*
X165209306Y-78738652D01*
X165324523Y-78750000D01*
X165324531Y-78750000D01*
X165368000Y-78754281D01*
X165411469Y-78750000D01*
X166127196Y-78750000D01*
X166512991Y-79135796D01*
X166512990Y-81409975D01*
X166508709Y-81453444D01*
X166512990Y-81496910D01*
X166512990Y-81496920D01*
X166525795Y-81626933D01*
X166576401Y-81793756D01*
X166658579Y-81947502D01*
X166769173Y-82082261D01*
X166802946Y-82109978D01*
X167913001Y-83220033D01*
X167913000Y-84035757D01*
X167908719Y-84079227D01*
X167913000Y-84122696D01*
X167913000Y-84122703D01*
X167916581Y-84159058D01*
X167925805Y-84252717D01*
X167934540Y-84281510D01*
X167976411Y-84419539D01*
X168058589Y-84573285D01*
X168169183Y-84708044D01*
X168202956Y-84735761D01*
X169013000Y-85545806D01*
X169013000Y-86021531D01*
X169008719Y-86065000D01*
X169013000Y-86108469D01*
X169013000Y-86108476D01*
X169023891Y-86219059D01*
X169025805Y-86238490D01*
X169030992Y-86255589D01*
X169076411Y-86405312D01*
X169158589Y-86559058D01*
X169269183Y-86693817D01*
X169302956Y-86721534D01*
X170154913Y-87573492D01*
X170170148Y-87623715D01*
X170321969Y-87907752D01*
X170526286Y-88156714D01*
X170658233Y-88265000D01*
X170526286Y-88373286D01*
X170321969Y-88622248D01*
X170307135Y-88650000D01*
X169461465Y-88650000D01*
X169417999Y-88645719D01*
X169374533Y-88650000D01*
X169374523Y-88650000D01*
X169244510Y-88662805D01*
X169077687Y-88713411D01*
X168923941Y-88795589D01*
X168923939Y-88795590D01*
X168923940Y-88795590D01*
X168822953Y-88878468D01*
X168822951Y-88878470D01*
X168789183Y-88906183D01*
X168761470Y-88939951D01*
X168148000Y-89553421D01*
X166264536Y-87669958D01*
X166264532Y-87669953D01*
X163724534Y-85129956D01*
X163696817Y-85096183D01*
X163562059Y-84985589D01*
X163408313Y-84903411D01*
X163241490Y-84852805D01*
X163111477Y-84840000D01*
X163111469Y-84840000D01*
X163068000Y-84835719D01*
X163024531Y-84840000D01*
X145331469Y-84840000D01*
X145288000Y-84835719D01*
X145244531Y-84840000D01*
X145244523Y-84840000D01*
X145114510Y-84852805D01*
X144947686Y-84903411D01*
X144793941Y-84985589D01*
X144692953Y-85068468D01*
X144692951Y-85068470D01*
X144659183Y-85096183D01*
X144631470Y-85129951D01*
X141478000Y-88283422D01*
X141093000Y-87898422D01*
X141093000Y-82295865D01*
X141120752Y-82281031D01*
X141369714Y-82076714D01*
X141476284Y-81946858D01*
X141681683Y-82160922D01*
X141945239Y-82345010D01*
X142239645Y-82474144D01*
X142367566Y-82505124D01*
X142621000Y-82385777D01*
X142621000Y-80772000D01*
X142601000Y-80772000D01*
X142601000Y-80518000D01*
X142621000Y-80518000D01*
X142621000Y-78904223D01*
X142367566Y-78784876D01*
X142239645Y-78815856D01*
X141945239Y-78944990D01*
X141681683Y-79129078D01*
X141476284Y-79343142D01*
X141369714Y-79213286D01*
X141120751Y-79008969D01*
X140836714Y-78857148D01*
X140528515Y-78763657D01*
X140208000Y-78732089D01*
X139887484Y-78763657D01*
X139579285Y-78857148D01*
X139295248Y-79008969D01*
X139046286Y-79213286D01*
X138841969Y-79462249D01*
X138690148Y-79746286D01*
X138596657Y-80054485D01*
X138573000Y-80294679D01*
X138573000Y-80995322D01*
X138596657Y-81235516D01*
X138690148Y-81543715D01*
X138841969Y-81827752D01*
X139046286Y-82076714D01*
X139295249Y-82281031D01*
X139323001Y-82295865D01*
X139323000Y-88221531D01*
X139318719Y-88265000D01*
X139323000Y-88308469D01*
X139323000Y-88308476D01*
X139331405Y-88393817D01*
X139335805Y-88438490D01*
X139349648Y-88484123D01*
X139386411Y-88605312D01*
X139468589Y-88759058D01*
X139579183Y-88893817D01*
X139612954Y-88921532D01*
X140673000Y-89981579D01*
X140673001Y-90858421D01*
X140341422Y-91190000D01*
X136728865Y-91190000D01*
X136714031Y-91162248D01*
X136509714Y-90913286D01*
X136377767Y-90805000D01*
X136509714Y-90696714D01*
X136714031Y-90447752D01*
X136865852Y-90163715D01*
X136959343Y-89855516D01*
X136990911Y-89535000D01*
X136959343Y-89214484D01*
X136865852Y-88906285D01*
X136714031Y-88622248D01*
X136509714Y-88373286D01*
X136260752Y-88168969D01*
X135976715Y-88017148D01*
X135668516Y-87923657D01*
X135428322Y-87900000D01*
X134727678Y-87900000D01*
X134487484Y-87923657D01*
X134179285Y-88017148D01*
X133895248Y-88168969D01*
X133646286Y-88373286D01*
X133441969Y-88622248D01*
X133290148Y-88906285D01*
X133196657Y-89214484D01*
X133165089Y-89535000D01*
X133196657Y-89855516D01*
X133290148Y-90163715D01*
X133441969Y-90447752D01*
X133646286Y-90696714D01*
X133778233Y-90805000D01*
X133646286Y-90913286D01*
X133441969Y-91162248D01*
X133427135Y-91190000D01*
X130974579Y-91190000D01*
X130883000Y-91098422D01*
X130883000Y-88668467D01*
X130887281Y-88624998D01*
X130883000Y-88581529D01*
X130883000Y-88581521D01*
X130870195Y-88451508D01*
X130819589Y-88284685D01*
X130737411Y-88130939D01*
X130705052Y-88091510D01*
X130654532Y-88029951D01*
X130654530Y-88029949D01*
X130626817Y-87996181D01*
X130593050Y-87968469D01*
X129794536Y-87169956D01*
X129766819Y-87136183D01*
X129632061Y-87025589D01*
X129478315Y-86943411D01*
X129311492Y-86892805D01*
X129181479Y-86880000D01*
X129181471Y-86880000D01*
X129138002Y-86875719D01*
X129094533Y-86880000D01*
X125941469Y-86880000D01*
X125898000Y-86875719D01*
X125854531Y-86880000D01*
X125854523Y-86880000D01*
X125724510Y-86892805D01*
X125557686Y-86943411D01*
X125403941Y-87025589D01*
X125302953Y-87108468D01*
X125302951Y-87108470D01*
X125269183Y-87136183D01*
X125241470Y-87169951D01*
X124372951Y-88038471D01*
X124339184Y-88066183D01*
X124311471Y-88099951D01*
X124311468Y-88099954D01*
X124228590Y-88200941D01*
X124146412Y-88354687D01*
X124095805Y-88521510D01*
X124078719Y-88695000D01*
X124083001Y-88738479D01*
X124083000Y-92978421D01*
X122061422Y-95000000D01*
X117391469Y-95000000D01*
X117348000Y-94995719D01*
X117304531Y-95000000D01*
X116183059Y-95000000D01*
X116077987Y-94842748D01*
X115850252Y-94615013D01*
X115582463Y-94436082D01*
X115284912Y-94312832D01*
X114969033Y-94250000D01*
X114646967Y-94250000D01*
X114331088Y-94312832D01*
X114033537Y-94436082D01*
X113765748Y-94615013D01*
X113538013Y-94842748D01*
X113359082Y-95110537D01*
X113235832Y-95408088D01*
X113173000Y-95723967D01*
X113173000Y-96046033D01*
X113235832Y-96361912D01*
X113359082Y-96659463D01*
X113538013Y-96927252D01*
X113765748Y-97154987D01*
X114033537Y-97333918D01*
X114331088Y-97457168D01*
X114646967Y-97520000D01*
X114969033Y-97520000D01*
X115284912Y-97457168D01*
X115582463Y-97333918D01*
X115850252Y-97154987D01*
X116077987Y-96927252D01*
X116183059Y-96770000D01*
X116981422Y-96770000D01*
X117733000Y-97521579D01*
X117733001Y-108541521D01*
X117728719Y-108585000D01*
X117745805Y-108758490D01*
X117796412Y-108925313D01*
X117878590Y-109079059D01*
X117961468Y-109180046D01*
X117961471Y-109180049D01*
X117989184Y-109213817D01*
X118022951Y-109241529D01*
X119231470Y-110450049D01*
X119259183Y-110483817D01*
X119292951Y-110511530D01*
X119292953Y-110511532D01*
X119315399Y-110529953D01*
X119393941Y-110594411D01*
X119547687Y-110676589D01*
X119714510Y-110727195D01*
X119844523Y-110740000D01*
X119844533Y-110740000D01*
X119887999Y-110744281D01*
X119931465Y-110740000D01*
X122061422Y-110740000D01*
X122813000Y-111491579D01*
X122813001Y-113621521D01*
X122808719Y-113665000D01*
X122825805Y-113838490D01*
X122876412Y-114005313D01*
X122958590Y-114159059D01*
X123041468Y-114260046D01*
X123041471Y-114260049D01*
X123069184Y-114293817D01*
X123102951Y-114321529D01*
X124311470Y-115530049D01*
X124339183Y-115563817D01*
X124372951Y-115591530D01*
X124372953Y-115591532D01*
X124408967Y-115621088D01*
X124473941Y-115674411D01*
X124627687Y-115756589D01*
X124794510Y-115807195D01*
X124924523Y-115820000D01*
X124924533Y-115820000D01*
X124967999Y-115824281D01*
X125011465Y-115820000D01*
X130951422Y-115820000D01*
X133201470Y-118070049D01*
X133229183Y-118103817D01*
X133262951Y-118131530D01*
X133262953Y-118131532D01*
X133334452Y-118190210D01*
X133363941Y-118214411D01*
X133517687Y-118296589D01*
X133684510Y-118347195D01*
X133814523Y-118360000D01*
X133814533Y-118360000D01*
X133857999Y-118364281D01*
X133901465Y-118360000D01*
X143651422Y-118360000D01*
X147972811Y-122681390D01*
X147845931Y-122835995D01*
X147828000Y-122869541D01*
X147810069Y-122835994D01*
X147622797Y-122607803D01*
X147394605Y-122420531D01*
X147134263Y-122281375D01*
X146851776Y-122195684D01*
X146558000Y-122166749D01*
X146264223Y-122195684D01*
X145981736Y-122281375D01*
X145721394Y-122420531D01*
X145493203Y-122607803D01*
X145305931Y-122835995D01*
X145288000Y-122869541D01*
X145270069Y-122835994D01*
X145082797Y-122607803D01*
X144854605Y-122420531D01*
X144594263Y-122281375D01*
X144311776Y-122195684D01*
X144018000Y-122166749D01*
X143724223Y-122195684D01*
X143441736Y-122281375D01*
X143181394Y-122420531D01*
X142953203Y-122607803D01*
X142765931Y-122835995D01*
X142748000Y-122869541D01*
X142730069Y-122835994D01*
X142542797Y-122607803D01*
X142314605Y-122420531D01*
X142054263Y-122281375D01*
X141771776Y-122195684D01*
X141478000Y-122166749D01*
X141184223Y-122195684D01*
X140901736Y-122281375D01*
X140641394Y-122420531D01*
X140413203Y-122607803D01*
X140225931Y-122835995D01*
X140208000Y-122869541D01*
X140190069Y-122835994D01*
X140002797Y-122607803D01*
X139774605Y-122420531D01*
X139514263Y-122281375D01*
X139231776Y-122195684D01*
X138938000Y-122166749D01*
X138644223Y-122195684D01*
X138361736Y-122281375D01*
X138101394Y-122420531D01*
X137873203Y-122607803D01*
X137685931Y-122835995D01*
X137546775Y-123096337D01*
X137461084Y-123378824D01*
X137439400Y-123598982D01*
X137439400Y-124051019D01*
X137461084Y-124271177D01*
X137546775Y-124553664D01*
X137685931Y-124814006D01*
X137873203Y-125042197D01*
X138101395Y-125229469D01*
X138361737Y-125368625D01*
X138644224Y-125454316D01*
X138938000Y-125483251D01*
X139231777Y-125454316D01*
X139514264Y-125368625D01*
X139774606Y-125229469D01*
X140002797Y-125042197D01*
X140190069Y-124814006D01*
X140208000Y-124780459D01*
X140225931Y-124814006D01*
X140413203Y-125042197D01*
X140641395Y-125229469D01*
X140901737Y-125368625D01*
X141184224Y-125454316D01*
X141478000Y-125483251D01*
X141771777Y-125454316D01*
X142054264Y-125368625D01*
X142314606Y-125229469D01*
X142542797Y-125042197D01*
X142730069Y-124814006D01*
X142748000Y-124780459D01*
X142765931Y-124814006D01*
X142953203Y-125042197D01*
X143181395Y-125229469D01*
X143441737Y-125368625D01*
X143724224Y-125454316D01*
X144018000Y-125483251D01*
X144311777Y-125454316D01*
X144594264Y-125368625D01*
X144854606Y-125229469D01*
X145082797Y-125042197D01*
X145270069Y-124814006D01*
X145288000Y-124780459D01*
X145305931Y-124814006D01*
X145493203Y-125042197D01*
X145721395Y-125229469D01*
X145981737Y-125368625D01*
X146264224Y-125454316D01*
X146558000Y-125483251D01*
X146851777Y-125454316D01*
X147134264Y-125368625D01*
X147394606Y-125229469D01*
X147622797Y-125042197D01*
X147810069Y-124814006D01*
X147828000Y-124780459D01*
X147845931Y-124814006D01*
X148033203Y-125042197D01*
X148261395Y-125229469D01*
X148521737Y-125368625D01*
X148804224Y-125454316D01*
X149098000Y-125483251D01*
X149391777Y-125454316D01*
X149674264Y-125368625D01*
X149934606Y-125229469D01*
X150162797Y-125042197D01*
X150350069Y-124814006D01*
X150371424Y-124774053D01*
X150519514Y-124976729D01*
X150735965Y-125175733D01*
X150987081Y-125328686D01*
X151263211Y-125429709D01*
X151278974Y-125432358D01*
X151511000Y-125311217D01*
X151511000Y-123952000D01*
X151765000Y-123952000D01*
X151765000Y-125311217D01*
X151997026Y-125432358D01*
X152012789Y-125429709D01*
X152288919Y-125328686D01*
X152540035Y-125175733D01*
X152756486Y-124976729D01*
X152908000Y-124769367D01*
X153059514Y-124976729D01*
X153275965Y-125175733D01*
X153527081Y-125328686D01*
X153803211Y-125429709D01*
X153818974Y-125432358D01*
X154051000Y-125311217D01*
X154051000Y-123952000D01*
X151765000Y-123952000D01*
X151511000Y-123952000D01*
X151491000Y-123952000D01*
X151491000Y-123698000D01*
X151511000Y-123698000D01*
X151511000Y-122338783D01*
X151765000Y-122338783D01*
X151765000Y-123698000D01*
X154051000Y-123698000D01*
X154051000Y-122338783D01*
X154305000Y-122338783D01*
X154305000Y-123698000D01*
X154325000Y-123698000D01*
X154325000Y-123952000D01*
X154305000Y-123952000D01*
X154305000Y-125311217D01*
X154537026Y-125432358D01*
X154552789Y-125429709D01*
X154828919Y-125328686D01*
X155080035Y-125175733D01*
X155296486Y-124976729D01*
X155444576Y-124774053D01*
X155465931Y-124814006D01*
X155653203Y-125042197D01*
X155881395Y-125229469D01*
X156141737Y-125368625D01*
X156424224Y-125454316D01*
X156718000Y-125483251D01*
X157011777Y-125454316D01*
X157294264Y-125368625D01*
X157554606Y-125229469D01*
X157782797Y-125042197D01*
X157970069Y-124814006D01*
X158109225Y-124553663D01*
X158194916Y-124271176D01*
X158216600Y-124051018D01*
X158216600Y-123598981D01*
X158194916Y-123378823D01*
X158109225Y-123096336D01*
X157970069Y-122835994D01*
X157782797Y-122607803D01*
X157554605Y-122420531D01*
X157294263Y-122281375D01*
X157011776Y-122195684D01*
X156718000Y-122166749D01*
X156424223Y-122195684D01*
X156141736Y-122281375D01*
X155881394Y-122420531D01*
X155653203Y-122607803D01*
X155465931Y-122835995D01*
X155444576Y-122875947D01*
X155296486Y-122673271D01*
X155080035Y-122474267D01*
X154828919Y-122321314D01*
X154552789Y-122220291D01*
X154537026Y-122217642D01*
X154305000Y-122338783D01*
X154051000Y-122338783D01*
X153818974Y-122217642D01*
X153803211Y-122220291D01*
X153527081Y-122321314D01*
X153275965Y-122474267D01*
X153059514Y-122673271D01*
X152908000Y-122880633D01*
X152756486Y-122673271D01*
X152540035Y-122474267D01*
X152288919Y-122321314D01*
X152012789Y-122220291D01*
X151997026Y-122217642D01*
X151765000Y-122338783D01*
X151511000Y-122338783D01*
X151278974Y-122217642D01*
X151263211Y-122220291D01*
X150987081Y-122321314D01*
X150735965Y-122474267D01*
X150519514Y-122673271D01*
X150371424Y-122875947D01*
X150350069Y-122835994D01*
X150162797Y-122607803D01*
X149977506Y-122455739D01*
X149970195Y-122381510D01*
X149919589Y-122214687D01*
X149837411Y-122060941D01*
X149786113Y-121998435D01*
X149754532Y-121959953D01*
X149754530Y-121959951D01*
X149726817Y-121926183D01*
X149693051Y-121898472D01*
X144674534Y-116879956D01*
X144646817Y-116846183D01*
X144512059Y-116735589D01*
X144358313Y-116653411D01*
X144191490Y-116602805D01*
X144061477Y-116590000D01*
X144061469Y-116590000D01*
X144018000Y-116585719D01*
X143974531Y-116590000D01*
X134224579Y-116590000D01*
X134176239Y-116541660D01*
X134239675Y-116532961D01*
X134544088Y-116427795D01*
X134718044Y-116334814D01*
X134813808Y-116070413D01*
X133858000Y-115114605D01*
X133843858Y-115128748D01*
X133664253Y-114949143D01*
X133678395Y-114935000D01*
X134037605Y-114935000D01*
X134993413Y-115890808D01*
X135257814Y-115795044D01*
X135398704Y-115505429D01*
X135480384Y-115193892D01*
X135499718Y-114872405D01*
X135455961Y-114553325D01*
X135350795Y-114248912D01*
X135257814Y-114074956D01*
X134993413Y-113979192D01*
X134037605Y-114935000D01*
X133678395Y-114935000D01*
X132722587Y-113979192D01*
X132458186Y-114074956D01*
X132317296Y-114364571D01*
X132251210Y-114616632D01*
X131974534Y-114339956D01*
X131946817Y-114306183D01*
X131812059Y-114195589D01*
X131658313Y-114113411D01*
X131491490Y-114062805D01*
X131361477Y-114050000D01*
X131361469Y-114050000D01*
X131318000Y-114045719D01*
X131274531Y-114050000D01*
X125334579Y-114050000D01*
X124814992Y-113530413D01*
X126552192Y-113530413D01*
X126647956Y-113794814D01*
X126937571Y-113935704D01*
X127249108Y-114017384D01*
X127570595Y-114036718D01*
X127889675Y-113992961D01*
X128194088Y-113887795D01*
X128359114Y-113799587D01*
X132902192Y-113799587D01*
X133858000Y-114755395D01*
X134813808Y-113799587D01*
X134718044Y-113535186D01*
X134428429Y-113394296D01*
X134116892Y-113312616D01*
X133795405Y-113293282D01*
X133476325Y-113337039D01*
X133171912Y-113442205D01*
X132997956Y-113535186D01*
X132902192Y-113799587D01*
X128359114Y-113799587D01*
X128368044Y-113794814D01*
X128463808Y-113530413D01*
X127508000Y-112574605D01*
X126552192Y-113530413D01*
X124814992Y-113530413D01*
X124583000Y-113298422D01*
X124583000Y-112457595D01*
X125866282Y-112457595D01*
X125910039Y-112776675D01*
X126015205Y-113081088D01*
X126108186Y-113255044D01*
X126372587Y-113350808D01*
X127328395Y-112395000D01*
X127687605Y-112395000D01*
X128643413Y-113350808D01*
X128907814Y-113255044D01*
X129048704Y-112965429D01*
X129130384Y-112653892D01*
X129149718Y-112332405D01*
X129105961Y-112013325D01*
X129000795Y-111708912D01*
X128907814Y-111534956D01*
X128643413Y-111439192D01*
X127687605Y-112395000D01*
X127328395Y-112395000D01*
X126372587Y-111439192D01*
X126108186Y-111534956D01*
X125967296Y-111824571D01*
X125885616Y-112136108D01*
X125866282Y-112457595D01*
X124583000Y-112457595D01*
X124583000Y-111168465D01*
X124587281Y-111124999D01*
X124583000Y-111081533D01*
X124583000Y-111081523D01*
X124570195Y-110951510D01*
X124519589Y-110784687D01*
X124437411Y-110630941D01*
X124326817Y-110496183D01*
X124293050Y-110468471D01*
X123084534Y-109259956D01*
X123056817Y-109226183D01*
X122922059Y-109115589D01*
X122768313Y-109033411D01*
X122601490Y-108982805D01*
X122471477Y-108970000D01*
X122471469Y-108970000D01*
X122428000Y-108965719D01*
X122384531Y-108970000D01*
X120254579Y-108970000D01*
X119503000Y-108218422D01*
X119503000Y-97535434D01*
X125697876Y-97535434D01*
X125728856Y-97663355D01*
X125857990Y-97957761D01*
X126042078Y-98221317D01*
X126274046Y-98443895D01*
X126544980Y-98616942D01*
X126844468Y-98733807D01*
X127161000Y-98790000D01*
X127431000Y-98790000D01*
X127431000Y-97282000D01*
X125817223Y-97282000D01*
X125697876Y-97535434D01*
X119503000Y-97535434D01*
X119503000Y-97198465D01*
X119507281Y-97154999D01*
X119503000Y-97111533D01*
X119503000Y-97111523D01*
X119490195Y-96981510D01*
X119439589Y-96814687D01*
X119415704Y-96770000D01*
X122384531Y-96770000D01*
X122428000Y-96774281D01*
X122471469Y-96770000D01*
X122471477Y-96770000D01*
X122601490Y-96757195D01*
X122768313Y-96706589D01*
X122922059Y-96624411D01*
X123056817Y-96513817D01*
X123084534Y-96480044D01*
X125563050Y-94001529D01*
X125596817Y-93973817D01*
X125707411Y-93839059D01*
X125789589Y-93685313D01*
X125840195Y-93518490D01*
X125853000Y-93388477D01*
X125853000Y-93388467D01*
X125857281Y-93345001D01*
X125853000Y-93301535D01*
X125853000Y-92858720D01*
X125921969Y-92987752D01*
X126126286Y-93236714D01*
X126258233Y-93345000D01*
X126126286Y-93453286D01*
X125921969Y-93702248D01*
X125770148Y-93986285D01*
X125676657Y-94294484D01*
X125645089Y-94615000D01*
X125676657Y-94935516D01*
X125770148Y-95243715D01*
X125921969Y-95527752D01*
X126126286Y-95776714D01*
X126256142Y-95883284D01*
X126042078Y-96088683D01*
X125857990Y-96352239D01*
X125728856Y-96646645D01*
X125697876Y-96774566D01*
X125817223Y-97028000D01*
X127431000Y-97028000D01*
X127431000Y-97008000D01*
X127685000Y-97008000D01*
X127685000Y-97028000D01*
X127705000Y-97028000D01*
X127705000Y-97282000D01*
X127685000Y-97282000D01*
X127685000Y-98790000D01*
X127955000Y-98790000D01*
X128271532Y-98733807D01*
X128571020Y-98616942D01*
X128841954Y-98443895D01*
X129073922Y-98221317D01*
X129163000Y-98093785D01*
X129163001Y-104885747D01*
X129158719Y-104929226D01*
X129175805Y-105102716D01*
X129226412Y-105269539D01*
X129308590Y-105423285D01*
X129391468Y-105524272D01*
X129391471Y-105524275D01*
X129419184Y-105558043D01*
X129452951Y-105585755D01*
X130297196Y-106430000D01*
X126291469Y-106430000D01*
X126248000Y-106425719D01*
X126204531Y-106430000D01*
X123803059Y-106430000D01*
X123697987Y-106272748D01*
X123470252Y-106045013D01*
X123202463Y-105866082D01*
X122904912Y-105742832D01*
X122589033Y-105680000D01*
X122266967Y-105680000D01*
X121951088Y-105742832D01*
X121653537Y-105866082D01*
X121385748Y-106045013D01*
X121158013Y-106272748D01*
X120979082Y-106540537D01*
X120855832Y-106838088D01*
X120793000Y-107153967D01*
X120793000Y-107476033D01*
X120855832Y-107791912D01*
X120979082Y-108089463D01*
X121158013Y-108357252D01*
X121385748Y-108584987D01*
X121653537Y-108763918D01*
X121951088Y-108887168D01*
X122266967Y-108950000D01*
X122589033Y-108950000D01*
X122904912Y-108887168D01*
X123202463Y-108763918D01*
X123470252Y-108584987D01*
X123697987Y-108357252D01*
X123803059Y-108200000D01*
X125881422Y-108200000D01*
X126386091Y-108704670D01*
X126238013Y-108852748D01*
X126059082Y-109120537D01*
X125935832Y-109418088D01*
X125873000Y-109733967D01*
X125873000Y-110056033D01*
X125935832Y-110371912D01*
X126059082Y-110669463D01*
X126238013Y-110937252D01*
X126465748Y-111164987D01*
X126562935Y-111229925D01*
X126552192Y-111259587D01*
X127508000Y-112215395D01*
X128463808Y-111259587D01*
X128453065Y-111229925D01*
X128550252Y-111164987D01*
X128777987Y-110937252D01*
X128956918Y-110669463D01*
X129080168Y-110371912D01*
X129143000Y-110056033D01*
X129143000Y-109733967D01*
X129080168Y-109418088D01*
X128956918Y-109120537D01*
X128777987Y-108852748D01*
X128550252Y-108625013D01*
X128391779Y-108519125D01*
X128380195Y-108401510D01*
X128329589Y-108234687D01*
X128311049Y-108200000D01*
X132390305Y-108200000D01*
X132433774Y-108204281D01*
X132477243Y-108200000D01*
X132482941Y-108200000D01*
X132588013Y-108357252D01*
X132815748Y-108584987D01*
X133083537Y-108763918D01*
X133381088Y-108887168D01*
X133696967Y-108950000D01*
X134019033Y-108950000D01*
X134334912Y-108887168D01*
X134632463Y-108763918D01*
X134813000Y-108643287D01*
X134813001Y-111507294D01*
X134808719Y-111550773D01*
X134825805Y-111724263D01*
X134876412Y-111891086D01*
X134958590Y-112044832D01*
X135041468Y-112145819D01*
X135041471Y-112145822D01*
X135069184Y-112179590D01*
X135102951Y-112207302D01*
X138425697Y-115530049D01*
X138453410Y-115563817D01*
X138487178Y-115591530D01*
X138487180Y-115591532D01*
X138523194Y-115621088D01*
X138588168Y-115674411D01*
X138741914Y-115756589D01*
X138908737Y-115807195D01*
X139038750Y-115820000D01*
X139038758Y-115820000D01*
X139082227Y-115824281D01*
X139125696Y-115820000D01*
X141372941Y-115820000D01*
X141478013Y-115977252D01*
X141705748Y-116204987D01*
X141973537Y-116383918D01*
X142271088Y-116507168D01*
X142586967Y-116570000D01*
X142909033Y-116570000D01*
X143224912Y-116507168D01*
X143522463Y-116383918D01*
X143790252Y-116204987D01*
X144017987Y-115977252D01*
X144123059Y-115820000D01*
X146452941Y-115820000D01*
X146558013Y-115977252D01*
X146785748Y-116204987D01*
X147053537Y-116383918D01*
X147351088Y-116507168D01*
X147666967Y-116570000D01*
X147989033Y-116570000D01*
X148304912Y-116507168D01*
X148602463Y-116383918D01*
X148870252Y-116204987D01*
X149097987Y-115977252D01*
X149203059Y-115820000D01*
X151532941Y-115820000D01*
X151638013Y-115977252D01*
X151865748Y-116204987D01*
X152133537Y-116383918D01*
X152431088Y-116507168D01*
X152746967Y-116570000D01*
X153069033Y-116570000D01*
X153384912Y-116507168D01*
X153682463Y-116383918D01*
X153950252Y-116204987D01*
X154084826Y-116070413D01*
X159572192Y-116070413D01*
X159667956Y-116334814D01*
X159957571Y-116475704D01*
X160269108Y-116557384D01*
X160590595Y-116576718D01*
X160909675Y-116532961D01*
X161214088Y-116427795D01*
X161388044Y-116334814D01*
X161483808Y-116070413D01*
X160528000Y-115114605D01*
X159572192Y-116070413D01*
X154084826Y-116070413D01*
X154177987Y-115977252D01*
X154356918Y-115709463D01*
X154480168Y-115411912D01*
X154543000Y-115096033D01*
X154543000Y-114997595D01*
X158886282Y-114997595D01*
X158930039Y-115316675D01*
X159035205Y-115621088D01*
X159128186Y-115795044D01*
X159392587Y-115890808D01*
X160348395Y-114935000D01*
X160707605Y-114935000D01*
X161663413Y-115890808D01*
X161927814Y-115795044D01*
X162068704Y-115505429D01*
X162150384Y-115193892D01*
X162169718Y-114872405D01*
X162125961Y-114553325D01*
X162020795Y-114248912D01*
X161927814Y-114074956D01*
X161663413Y-113979192D01*
X160707605Y-114935000D01*
X160348395Y-114935000D01*
X159392587Y-113979192D01*
X159128186Y-114074956D01*
X158987296Y-114364571D01*
X158905616Y-114676108D01*
X158886282Y-114997595D01*
X154543000Y-114997595D01*
X154543000Y-114773967D01*
X154480168Y-114458088D01*
X154356918Y-114160537D01*
X154177987Y-113892748D01*
X154084826Y-113799587D01*
X159572192Y-113799587D01*
X160528000Y-114755395D01*
X161483808Y-113799587D01*
X161388044Y-113535186D01*
X161098429Y-113394296D01*
X160786892Y-113312616D01*
X160465405Y-113293282D01*
X160146325Y-113337039D01*
X159841912Y-113442205D01*
X159667956Y-113535186D01*
X159572192Y-113799587D01*
X154084826Y-113799587D01*
X153950252Y-113665013D01*
X153682463Y-113486082D01*
X153384912Y-113362832D01*
X153069033Y-113300000D01*
X152746967Y-113300000D01*
X152431088Y-113362832D01*
X152133537Y-113486082D01*
X151865748Y-113665013D01*
X151638013Y-113892748D01*
X151532941Y-114050000D01*
X149203059Y-114050000D01*
X149097987Y-113892748D01*
X148890239Y-113685000D01*
X149097987Y-113477252D01*
X149276918Y-113209463D01*
X149400168Y-112911912D01*
X149463000Y-112596033D01*
X149463000Y-112273967D01*
X149400168Y-111958088D01*
X149276918Y-111660537D01*
X149097987Y-111392748D01*
X148870252Y-111165013D01*
X148602463Y-110986082D01*
X148304912Y-110862832D01*
X147989033Y-110800000D01*
X147666967Y-110800000D01*
X147351088Y-110862832D01*
X147053537Y-110986082D01*
X146785748Y-111165013D01*
X146558013Y-111392748D01*
X146452941Y-111550000D01*
X143834579Y-111550000D01*
X143633000Y-111348422D01*
X143633000Y-108690059D01*
X143790252Y-108584987D01*
X144017987Y-108357252D01*
X144123059Y-108200000D01*
X146514531Y-108200000D01*
X146558000Y-108204281D01*
X146601469Y-108200000D01*
X146601477Y-108200000D01*
X146731490Y-108187195D01*
X146898313Y-108136589D01*
X147052059Y-108054411D01*
X147186817Y-107943817D01*
X147214534Y-107910044D01*
X148423050Y-106701529D01*
X148456817Y-106673817D01*
X148486873Y-106637195D01*
X148567410Y-106539060D01*
X148567411Y-106539059D01*
X148649589Y-106385313D01*
X148700195Y-106218490D01*
X148706507Y-106154398D01*
X148870252Y-106044987D01*
X149097987Y-105817252D01*
X149276918Y-105549463D01*
X149400168Y-105251912D01*
X149463000Y-104936033D01*
X149463000Y-104613967D01*
X149400168Y-104298088D01*
X149276918Y-104000537D01*
X149097987Y-103732748D01*
X148870252Y-103505013D01*
X148602463Y-103326082D01*
X148304912Y-103202832D01*
X147989033Y-103140000D01*
X147666967Y-103140000D01*
X147351088Y-103202832D01*
X147053537Y-103326082D01*
X146785748Y-103505013D01*
X146558013Y-103732748D01*
X146379082Y-104000537D01*
X146255832Y-104298088D01*
X146193000Y-104613967D01*
X146193000Y-104936033D01*
X146255832Y-105251912D01*
X146379082Y-105549463D01*
X146558013Y-105817252D01*
X146681091Y-105940330D01*
X146191422Y-106430000D01*
X144123059Y-106430000D01*
X144017987Y-106272748D01*
X143790252Y-106045013D01*
X143522463Y-105866082D01*
X143224912Y-105742832D01*
X142909033Y-105680000D01*
X142586967Y-105680000D01*
X142271088Y-105742832D01*
X141973537Y-105866082D01*
X141705748Y-106045013D01*
X141478013Y-106272748D01*
X141299082Y-106540537D01*
X141175832Y-106838088D01*
X141113000Y-107153967D01*
X141113000Y-107476033D01*
X141175832Y-107791912D01*
X141299082Y-108089463D01*
X141478013Y-108357252D01*
X141705748Y-108584987D01*
X141863001Y-108690060D01*
X141863000Y-111671523D01*
X141863000Y-111671531D01*
X141858719Y-111715000D01*
X141863000Y-111758469D01*
X141863000Y-111848421D01*
X140661432Y-113049990D01*
X139934569Y-113049990D01*
X137583010Y-110698432D01*
X137583010Y-106494248D01*
X137587291Y-106450782D01*
X137583010Y-106407316D01*
X137583010Y-106407306D01*
X137570205Y-106277293D01*
X137519599Y-106110470D01*
X137437421Y-105956724D01*
X137367488Y-105871511D01*
X137354542Y-105855736D01*
X137354540Y-105855734D01*
X137326827Y-105821966D01*
X137293059Y-105794253D01*
X135668749Y-104169944D01*
X135641034Y-104136173D01*
X135506276Y-104025579D01*
X135352530Y-103943401D01*
X135185707Y-103892795D01*
X135055694Y-103879990D01*
X135055686Y-103879990D01*
X135012217Y-103875709D01*
X134968748Y-103879990D01*
X133203010Y-103879990D01*
X133203010Y-97496459D01*
X133290148Y-97783715D01*
X133441969Y-98067752D01*
X133646286Y-98316714D01*
X133895248Y-98521031D01*
X134179285Y-98672852D01*
X134487484Y-98766343D01*
X134727678Y-98790000D01*
X135428322Y-98790000D01*
X135668516Y-98766343D01*
X135976715Y-98672852D01*
X136260752Y-98521031D01*
X136509714Y-98316714D01*
X136714031Y-98067752D01*
X136865852Y-97783715D01*
X136959343Y-97475516D01*
X136990911Y-97155000D01*
X136959343Y-96834484D01*
X136865852Y-96526285D01*
X136714031Y-96242248D01*
X136509714Y-95993286D01*
X136377767Y-95885000D01*
X136509714Y-95776714D01*
X136714031Y-95527752D01*
X136865852Y-95243715D01*
X136959343Y-94935516D01*
X136990911Y-94615000D01*
X136959343Y-94294484D01*
X136865852Y-93986285D01*
X136714031Y-93702248D01*
X136509714Y-93453286D01*
X136377767Y-93345000D01*
X136509714Y-93236714D01*
X136714031Y-92987752D01*
X136728865Y-92960000D01*
X140664531Y-92960000D01*
X140708000Y-92964281D01*
X140751469Y-92960000D01*
X140751477Y-92960000D01*
X140881490Y-92947195D01*
X141048313Y-92896589D01*
X141202059Y-92814411D01*
X141336817Y-92703817D01*
X141364534Y-92670044D01*
X141548000Y-92486578D01*
X141731470Y-92670049D01*
X141759183Y-92703817D01*
X141792951Y-92731530D01*
X141792953Y-92731532D01*
X141824955Y-92757795D01*
X141893941Y-92814411D01*
X142047687Y-92896589D01*
X142214510Y-92947195D01*
X142344523Y-92960000D01*
X142344533Y-92960000D01*
X142387999Y-92964281D01*
X142431465Y-92960000D01*
X142682941Y-92960000D01*
X142788013Y-93117252D01*
X143015748Y-93344987D01*
X143283537Y-93523918D01*
X143581088Y-93647168D01*
X143896967Y-93710000D01*
X144219033Y-93710000D01*
X144534912Y-93647168D01*
X144832463Y-93523918D01*
X145100252Y-93344987D01*
X145234826Y-93210413D01*
X145602192Y-93210413D01*
X145697956Y-93474814D01*
X145987571Y-93615704D01*
X146299108Y-93697384D01*
X146620595Y-93716718D01*
X146939675Y-93672961D01*
X147244088Y-93567795D01*
X147418044Y-93474814D01*
X147513808Y-93210413D01*
X146558000Y-92254605D01*
X145602192Y-93210413D01*
X145234826Y-93210413D01*
X145327987Y-93117252D01*
X145392925Y-93020065D01*
X145422587Y-93030808D01*
X146378395Y-92075000D01*
X146737605Y-92075000D01*
X147693413Y-93030808D01*
X147957814Y-92935044D01*
X148098704Y-92645429D01*
X148180384Y-92333892D01*
X148199718Y-92012405D01*
X148155961Y-91693325D01*
X148050795Y-91388912D01*
X147957814Y-91214956D01*
X147693413Y-91119192D01*
X146737605Y-92075000D01*
X146378395Y-92075000D01*
X145422587Y-91119192D01*
X145392925Y-91129935D01*
X145327987Y-91032748D01*
X145234826Y-90939587D01*
X145602192Y-90939587D01*
X146558000Y-91895395D01*
X147513808Y-90939587D01*
X147418044Y-90675186D01*
X147128429Y-90534296D01*
X146816892Y-90452616D01*
X146495405Y-90433282D01*
X146176325Y-90477039D01*
X145871912Y-90582205D01*
X145697956Y-90675186D01*
X145602192Y-90939587D01*
X145234826Y-90939587D01*
X145100252Y-90805013D01*
X144832463Y-90626082D01*
X144534912Y-90502832D01*
X144219033Y-90440000D01*
X143896967Y-90440000D01*
X143581088Y-90502832D01*
X143283537Y-90626082D01*
X143015748Y-90805013D01*
X142788013Y-91032748D01*
X142711635Y-91147056D01*
X142443000Y-90878422D01*
X142443000Y-89821578D01*
X145654579Y-86610000D01*
X162701422Y-86610000D01*
X165012953Y-88921532D01*
X165012958Y-88921536D01*
X167263000Y-91171579D01*
X167263001Y-107271521D01*
X167258719Y-107315000D01*
X167275805Y-107488490D01*
X167326412Y-107655313D01*
X167408590Y-107809059D01*
X167491468Y-107910046D01*
X167491471Y-107910049D01*
X167519184Y-107943817D01*
X167552951Y-107971529D01*
X168761470Y-109180049D01*
X168789183Y-109213817D01*
X168822951Y-109241530D01*
X168822953Y-109241532D01*
X168845399Y-109259953D01*
X168923941Y-109324411D01*
X169077687Y-109406589D01*
X169244510Y-109457195D01*
X169374523Y-109470000D01*
X169374533Y-109470000D01*
X169417999Y-109474281D01*
X169461465Y-109470000D01*
X171577135Y-109470000D01*
X171591969Y-109497752D01*
X171796286Y-109746714D01*
X171928233Y-109855000D01*
X171796286Y-109963286D01*
X171591969Y-110212248D01*
X171440148Y-110496285D01*
X171346657Y-110804484D01*
X171315089Y-111125000D01*
X171346657Y-111445516D01*
X171440148Y-111753715D01*
X171591969Y-112037752D01*
X171796286Y-112286714D01*
X171928233Y-112395000D01*
X171796286Y-112503286D01*
X171591969Y-112752248D01*
X171440148Y-113036285D01*
X171346657Y-113344484D01*
X171315089Y-113665000D01*
X171346657Y-113985516D01*
X171440148Y-114293715D01*
X171591969Y-114577752D01*
X171796286Y-114826714D01*
X172045248Y-115031031D01*
X172329285Y-115182852D01*
X172343000Y-115187012D01*
X172343001Y-122188420D01*
X172316196Y-122215225D01*
X172251776Y-122195684D01*
X171958000Y-122166749D01*
X171664223Y-122195684D01*
X171381736Y-122281375D01*
X171121394Y-122420531D01*
X170893203Y-122607803D01*
X170705931Y-122835995D01*
X170688000Y-122869541D01*
X170670069Y-122835994D01*
X170482797Y-122607803D01*
X170254605Y-122420531D01*
X169994263Y-122281375D01*
X169711776Y-122195684D01*
X169418000Y-122166749D01*
X169124223Y-122195684D01*
X168841736Y-122281375D01*
X168581394Y-122420531D01*
X168353203Y-122607803D01*
X168165931Y-122835995D01*
X168148000Y-122869541D01*
X168130069Y-122835994D01*
X167942797Y-122607803D01*
X167714605Y-122420531D01*
X167454263Y-122281375D01*
X167171776Y-122195684D01*
X166878000Y-122166749D01*
X166584223Y-122195684D01*
X166301736Y-122281375D01*
X166041394Y-122420531D01*
X165813203Y-122607803D01*
X165625931Y-122835995D01*
X165608000Y-122869541D01*
X165590069Y-122835994D01*
X165402797Y-122607803D01*
X165174605Y-122420531D01*
X164914263Y-122281375D01*
X164631776Y-122195684D01*
X164338000Y-122166749D01*
X164044223Y-122195684D01*
X163761736Y-122281375D01*
X163501394Y-122420531D01*
X163273203Y-122607803D01*
X163085931Y-122835995D01*
X163068000Y-122869541D01*
X163050069Y-122835994D01*
X162862797Y-122607803D01*
X162683000Y-122460248D01*
X162683000Y-119111578D01*
X164193049Y-117601530D01*
X164226817Y-117573817D01*
X164302415Y-117481702D01*
X164337410Y-117439060D01*
X164376374Y-117366163D01*
X164419589Y-117285313D01*
X164470195Y-117118490D01*
X164483000Y-116988477D01*
X164483000Y-116988467D01*
X164487281Y-116945001D01*
X164483000Y-116901535D01*
X164483000Y-109408465D01*
X164487281Y-109364999D01*
X164483000Y-109321533D01*
X164483000Y-109321523D01*
X164470195Y-109191510D01*
X164419589Y-109024687D01*
X164337411Y-108870941D01*
X164226817Y-108736183D01*
X164193050Y-108708472D01*
X159664534Y-104179956D01*
X159636817Y-104146183D01*
X159502059Y-104035589D01*
X159348313Y-103953411D01*
X159181490Y-103902805D01*
X159051477Y-103890000D01*
X159051469Y-103890000D01*
X159008000Y-103885719D01*
X158964531Y-103890000D01*
X156823059Y-103890000D01*
X156717987Y-103732748D01*
X156490252Y-103505013D01*
X156222463Y-103326082D01*
X155924912Y-103202832D01*
X155609033Y-103140000D01*
X155286967Y-103140000D01*
X155101475Y-103176897D01*
X154783000Y-102858422D01*
X154783000Y-92640059D01*
X154940252Y-92534987D01*
X155074826Y-92400413D01*
X160442192Y-92400413D01*
X160537956Y-92664814D01*
X160827571Y-92805704D01*
X161139108Y-92887384D01*
X161460595Y-92906718D01*
X161779675Y-92862961D01*
X162084088Y-92757795D01*
X162258044Y-92664814D01*
X162353808Y-92400413D01*
X161398000Y-91444605D01*
X160442192Y-92400413D01*
X155074826Y-92400413D01*
X155167987Y-92307252D01*
X155346918Y-92039463D01*
X155470168Y-91741912D01*
X155533000Y-91426033D01*
X155533000Y-91327595D01*
X159756282Y-91327595D01*
X159800039Y-91646675D01*
X159905205Y-91951088D01*
X159998186Y-92125044D01*
X160262587Y-92220808D01*
X161218395Y-91265000D01*
X161577605Y-91265000D01*
X162533413Y-92220808D01*
X162797814Y-92125044D01*
X162938704Y-91835429D01*
X163020384Y-91523892D01*
X163039718Y-91202405D01*
X162995961Y-90883325D01*
X162890795Y-90578912D01*
X162797814Y-90404956D01*
X162533413Y-90309192D01*
X161577605Y-91265000D01*
X161218395Y-91265000D01*
X160262587Y-90309192D01*
X159998186Y-90404956D01*
X159857296Y-90694571D01*
X159775616Y-91006108D01*
X159756282Y-91327595D01*
X155533000Y-91327595D01*
X155533000Y-91103967D01*
X155470168Y-90788088D01*
X155346918Y-90490537D01*
X155167987Y-90222748D01*
X155074826Y-90129587D01*
X160442192Y-90129587D01*
X161398000Y-91085395D01*
X162353808Y-90129587D01*
X162258044Y-89865186D01*
X161968429Y-89724296D01*
X161656892Y-89642616D01*
X161335405Y-89623282D01*
X161016325Y-89667039D01*
X160711912Y-89772205D01*
X160537956Y-89865186D01*
X160442192Y-90129587D01*
X155074826Y-90129587D01*
X154940252Y-89995013D01*
X154672463Y-89816082D01*
X154374912Y-89692832D01*
X154059033Y-89630000D01*
X153736967Y-89630000D01*
X153421088Y-89692832D01*
X153123537Y-89816082D01*
X152855748Y-89995013D01*
X152628013Y-90222748D01*
X152449082Y-90490537D01*
X152325832Y-90788088D01*
X152263000Y-91103967D01*
X152263000Y-91426033D01*
X152325832Y-91741912D01*
X152449082Y-92039463D01*
X152628013Y-92307252D01*
X152855748Y-92534987D01*
X153013000Y-92640060D01*
X153013001Y-103181521D01*
X153008719Y-103225000D01*
X153025805Y-103398490D01*
X153076412Y-103565313D01*
X153158590Y-103719059D01*
X153241468Y-103820046D01*
X153241471Y-103820049D01*
X153269184Y-103853817D01*
X153302951Y-103881529D01*
X153849897Y-104428475D01*
X153813000Y-104613967D01*
X153813000Y-104936033D01*
X153875832Y-105251912D01*
X153999082Y-105549463D01*
X154178013Y-105817252D01*
X154405748Y-106044987D01*
X154673537Y-106223918D01*
X154971088Y-106347168D01*
X155286967Y-106410000D01*
X155609033Y-106410000D01*
X155924912Y-106347168D01*
X156222463Y-106223918D01*
X156490252Y-106044987D01*
X156717987Y-105817252D01*
X156823059Y-105660000D01*
X158641422Y-105660000D01*
X162713000Y-109731579D01*
X162713001Y-116578420D01*
X161202956Y-118088466D01*
X161169183Y-118116183D01*
X161058589Y-118250942D01*
X160976411Y-118404688D01*
X160925805Y-118571511D01*
X160913000Y-118701524D01*
X160913000Y-118701531D01*
X160908719Y-118745000D01*
X160913000Y-118788469D01*
X160913001Y-122460246D01*
X160733203Y-122607803D01*
X160545931Y-122835995D01*
X160406775Y-123096337D01*
X160321084Y-123378824D01*
X160299400Y-123598982D01*
X160299400Y-124051019D01*
X160321084Y-124271177D01*
X160406775Y-124553664D01*
X160545931Y-124814006D01*
X160733203Y-125042197D01*
X160961395Y-125229469D01*
X161221737Y-125368625D01*
X161504224Y-125454316D01*
X161798000Y-125483251D01*
X162091777Y-125454316D01*
X162374264Y-125368625D01*
X162634606Y-125229469D01*
X162862797Y-125042197D01*
X163050069Y-124814006D01*
X163068000Y-124780459D01*
X163085931Y-124814006D01*
X163273203Y-125042197D01*
X163501395Y-125229469D01*
X163761737Y-125368625D01*
X164044224Y-125454316D01*
X164338000Y-125483251D01*
X164631777Y-125454316D01*
X164914264Y-125368625D01*
X165174606Y-125229469D01*
X165402797Y-125042197D01*
X165590069Y-124814006D01*
X165608000Y-124780459D01*
X165625931Y-124814006D01*
X165813203Y-125042197D01*
X166041395Y-125229469D01*
X166301737Y-125368625D01*
X166584224Y-125454316D01*
X166878000Y-125483251D01*
X167171777Y-125454316D01*
X167454264Y-125368625D01*
X167714606Y-125229469D01*
X167942797Y-125042197D01*
X168130069Y-124814006D01*
X168148000Y-124780459D01*
X168165931Y-124814006D01*
X168353203Y-125042197D01*
X168581395Y-125229469D01*
X168841737Y-125368625D01*
X169124224Y-125454316D01*
X169418000Y-125483251D01*
X169711777Y-125454316D01*
X169994264Y-125368625D01*
X170254606Y-125229469D01*
X170482797Y-125042197D01*
X170670069Y-124814006D01*
X170688000Y-124780459D01*
X170705931Y-124814006D01*
X170893203Y-125042197D01*
X171121395Y-125229469D01*
X171381737Y-125368625D01*
X171664224Y-125454316D01*
X171958000Y-125483251D01*
X172251777Y-125454316D01*
X172534264Y-125368625D01*
X172794606Y-125229469D01*
X173022797Y-125042197D01*
X173210069Y-124814006D01*
X173228000Y-124780459D01*
X173245931Y-124814006D01*
X173433203Y-125042197D01*
X173661395Y-125229469D01*
X173921737Y-125368625D01*
X174204224Y-125454316D01*
X174498000Y-125483251D01*
X174791777Y-125454316D01*
X175074264Y-125368625D01*
X175334606Y-125229469D01*
X175562797Y-125042197D01*
X175750069Y-124814006D01*
X175889225Y-124553663D01*
X175974916Y-124271176D01*
X175996600Y-124051018D01*
X175996600Y-123598981D01*
X175974916Y-123378823D01*
X175889225Y-123096336D01*
X175750069Y-122835994D01*
X175562797Y-122607803D01*
X175377506Y-122455739D01*
X175370195Y-122381510D01*
X175319589Y-122214687D01*
X175237411Y-122060941D01*
X175140999Y-121943464D01*
X175140999Y-120619706D01*
X175337887Y-120816594D01*
X175774702Y-121108464D01*
X176260065Y-121309508D01*
X176775323Y-121412000D01*
X177300677Y-121412000D01*
X177815935Y-121309508D01*
X178301298Y-121108464D01*
X178738113Y-120816594D01*
X178868000Y-120686707D01*
X178868000Y-120990908D01*
X176560617Y-123298292D01*
X176533526Y-123320525D01*
X176511293Y-123347616D01*
X176444801Y-123428637D01*
X176378872Y-123551981D01*
X176338274Y-123685816D01*
X176324565Y-123825000D01*
X176328001Y-123859885D01*
X176328000Y-125655000D01*
X126909707Y-125655000D01*
X127039594Y-125525113D01*
X127331464Y-125088298D01*
X127532508Y-124602935D01*
X127635000Y-124087677D01*
X127635000Y-123562323D01*
X127532508Y-123047065D01*
X127331464Y-122561702D01*
X127039594Y-122124887D01*
X126668113Y-121753406D01*
X126231298Y-121461536D01*
X125745935Y-121260492D01*
X125230677Y-121158000D01*
X124705323Y-121158000D01*
X124190065Y-121260492D01*
X123704702Y-121461536D01*
X123267887Y-121753406D01*
X122896406Y-122124887D01*
X122604536Y-122561702D01*
X122403492Y-123047065D01*
X122301000Y-123562323D01*
X122301000Y-124087677D01*
X122403492Y-124602935D01*
X122604536Y-125088298D01*
X122896406Y-125525113D01*
X123026293Y-125655000D01*
X111708000Y-125655000D01*
X111708000Y-103343967D01*
X113173000Y-103343967D01*
X113173000Y-103666033D01*
X113235832Y-103981912D01*
X113359082Y-104279463D01*
X113538013Y-104547252D01*
X113765748Y-104774987D01*
X113923000Y-104880060D01*
X113923001Y-105939940D01*
X113765748Y-106045013D01*
X113538013Y-106272748D01*
X113359082Y-106540537D01*
X113235832Y-106838088D01*
X113173000Y-107153967D01*
X113173000Y-107476033D01*
X113235832Y-107791912D01*
X113359082Y-108089463D01*
X113538013Y-108357252D01*
X113765748Y-108584987D01*
X114033537Y-108763918D01*
X114331088Y-108887168D01*
X114646967Y-108950000D01*
X114969033Y-108950000D01*
X115284912Y-108887168D01*
X115582463Y-108763918D01*
X115850252Y-108584987D01*
X116077987Y-108357252D01*
X116256918Y-108089463D01*
X116380168Y-107791912D01*
X116443000Y-107476033D01*
X116443000Y-107153967D01*
X116380168Y-106838088D01*
X116256918Y-106540537D01*
X116077987Y-106272748D01*
X115850252Y-106045013D01*
X115693000Y-105939941D01*
X115693000Y-104880059D01*
X115850252Y-104774987D01*
X116077987Y-104547252D01*
X116256918Y-104279463D01*
X116380168Y-103981912D01*
X116443000Y-103666033D01*
X116443000Y-103343967D01*
X116380168Y-103028088D01*
X116256918Y-102730537D01*
X116077987Y-102462748D01*
X115850252Y-102235013D01*
X115582463Y-102056082D01*
X115284912Y-101932832D01*
X114969033Y-101870000D01*
X114646967Y-101870000D01*
X114331088Y-101932832D01*
X114033537Y-102056082D01*
X113765748Y-102235013D01*
X113538013Y-102462748D01*
X113359082Y-102730537D01*
X113235832Y-103028088D01*
X113173000Y-103343967D01*
X111708000Y-103343967D01*
X111708000Y-73735000D01*
X124296293Y-73735000D01*
X124166406Y-73864887D01*
%TA.AperFunction,Conductor*%
D18*
G36*
X124166406Y-73864887D02*
G01*
X123874536Y-74301702D01*
X123673492Y-74787065D01*
X123571000Y-75302323D01*
X123571000Y-75827677D01*
X123673492Y-76342935D01*
X123874536Y-76828298D01*
X124166406Y-77265113D01*
X124537887Y-77636594D01*
X124974702Y-77928464D01*
X125460065Y-78129508D01*
X125975323Y-78232000D01*
X126500677Y-78232000D01*
X127015935Y-78129508D01*
X127501298Y-77928464D01*
X127938113Y-77636594D01*
X128309594Y-77265113D01*
X128601464Y-76828298D01*
X128657001Y-76694219D01*
X128729203Y-76782197D01*
X128957395Y-76969469D01*
X129217737Y-77108625D01*
X129500224Y-77194316D01*
X129794000Y-77223251D01*
X130087777Y-77194316D01*
X130370264Y-77108625D01*
X130630606Y-76969469D01*
X130858797Y-76782197D01*
X131046069Y-76554006D01*
X131064000Y-76520459D01*
X131081931Y-76554006D01*
X131269203Y-76782197D01*
X131497395Y-76969469D01*
X131757737Y-77108625D01*
X132040224Y-77194316D01*
X132334000Y-77223251D01*
X132627777Y-77194316D01*
X132910264Y-77108625D01*
X133170606Y-76969469D01*
X133398797Y-76782197D01*
X133586069Y-76554006D01*
X133604000Y-76520459D01*
X133621931Y-76554006D01*
X133809203Y-76782197D01*
X134037395Y-76969469D01*
X134297737Y-77108625D01*
X134580224Y-77194316D01*
X134874000Y-77223251D01*
X135167777Y-77194316D01*
X135450264Y-77108625D01*
X135710606Y-76969469D01*
X135938797Y-76782197D01*
X136126069Y-76554006D01*
X136147424Y-76514053D01*
X136295514Y-76716729D01*
X136511965Y-76915733D01*
X136763081Y-77068686D01*
X137039211Y-77169709D01*
X137054974Y-77172358D01*
X137287000Y-77051217D01*
X137287000Y-75692000D01*
X137267000Y-75692000D01*
X137267000Y-75438000D01*
X137287000Y-75438000D01*
X137287000Y-74078783D01*
X137541000Y-74078783D01*
X137541000Y-75438000D01*
X137561000Y-75438000D01*
X137561000Y-75692000D01*
X137541000Y-75692000D01*
X137541000Y-77051217D01*
X137773026Y-77172358D01*
X137788789Y-77169709D01*
X138064919Y-77068686D01*
X138316035Y-76915733D01*
X138532486Y-76716729D01*
X138680576Y-76514053D01*
X138701931Y-76554006D01*
X138889203Y-76782197D01*
X139117395Y-76969469D01*
X139377737Y-77108625D01*
X139660224Y-77194316D01*
X139954000Y-77223251D01*
X140247777Y-77194316D01*
X140530264Y-77108625D01*
X140790606Y-76969469D01*
X141018797Y-76782197D01*
X141206069Y-76554006D01*
X141224000Y-76520459D01*
X141241931Y-76554006D01*
X141429203Y-76782197D01*
X141657395Y-76969469D01*
X141917737Y-77108625D01*
X142200224Y-77194316D01*
X142494000Y-77223251D01*
X142787777Y-77194316D01*
X143070264Y-77108625D01*
X143330606Y-76969469D01*
X143558797Y-76782197D01*
X143746069Y-76554006D01*
X143764000Y-76520459D01*
X143781931Y-76554006D01*
X143969203Y-76782197D01*
X144149000Y-76929753D01*
X144149001Y-79194645D01*
X144126286Y-79213286D01*
X144019716Y-79343143D01*
X143814317Y-79129078D01*
X143550761Y-78944990D01*
X143256355Y-78815856D01*
X143128434Y-78784876D01*
X142875000Y-78904223D01*
X142875000Y-80518000D01*
X142895000Y-80518000D01*
X142895000Y-80772000D01*
X142875000Y-80772000D01*
X142875000Y-82385777D01*
X143128434Y-82505124D01*
X143256355Y-82474144D01*
X143550761Y-82345010D01*
X143814317Y-82160922D01*
X144019716Y-81946858D01*
X144126286Y-82076714D01*
X144375249Y-82281031D01*
X144659286Y-82432852D01*
X144967485Y-82526343D01*
X145288000Y-82557911D01*
X145608516Y-82526343D01*
X145916715Y-82432852D01*
X146200752Y-82281031D01*
X146449714Y-82076714D01*
X146558000Y-81944767D01*
X146666286Y-82076714D01*
X146915249Y-82281031D01*
X147199286Y-82432852D01*
X147507485Y-82526343D01*
X147828000Y-82557911D01*
X148148516Y-82526343D01*
X148456715Y-82432852D01*
X148740752Y-82281031D01*
X148989714Y-82076714D01*
X149098000Y-81944767D01*
X149206286Y-82076714D01*
X149455249Y-82281031D01*
X149739286Y-82432852D01*
X150047485Y-82526343D01*
X150368000Y-82557911D01*
X150688516Y-82526343D01*
X150996715Y-82432852D01*
X151280752Y-82281031D01*
X151529714Y-82076714D01*
X151638000Y-81944767D01*
X151746286Y-82076714D01*
X151995249Y-82281031D01*
X152279286Y-82432852D01*
X152587485Y-82526343D01*
X152908000Y-82557911D01*
X153228516Y-82526343D01*
X153536715Y-82432852D01*
X153820752Y-82281031D01*
X154069714Y-82076714D01*
X154274031Y-81827752D01*
X154425852Y-81543715D01*
X154519343Y-81235515D01*
X154543000Y-80995321D01*
X154543000Y-80294678D01*
X154519343Y-80054484D01*
X154425852Y-79746285D01*
X154274031Y-79462248D01*
X154069714Y-79213286D01*
X153820751Y-79008969D01*
X153536714Y-78857148D01*
X153228515Y-78763657D01*
X152908000Y-78732089D01*
X152587484Y-78763657D01*
X152279285Y-78857148D01*
X151995248Y-79008969D01*
X151746286Y-79213286D01*
X151638000Y-79345234D01*
X151529714Y-79213286D01*
X151280751Y-79008969D01*
X150996714Y-78857148D01*
X150688515Y-78763657D01*
X150368000Y-78732089D01*
X150047484Y-78763657D01*
X149739285Y-78857148D01*
X149455248Y-79008969D01*
X149206286Y-79213286D01*
X149098000Y-79345234D01*
X148989714Y-79213286D01*
X148740751Y-79008969D01*
X148459000Y-78858370D01*
X148459000Y-76929753D01*
X148638797Y-76782197D01*
X148826069Y-76554006D01*
X148844000Y-76520459D01*
X148861931Y-76554006D01*
X149049203Y-76782197D01*
X149277395Y-76969469D01*
X149537737Y-77108625D01*
X149820224Y-77194316D01*
X150114000Y-77223251D01*
X150407777Y-77194316D01*
X150690264Y-77108625D01*
X150950606Y-76969469D01*
X151178797Y-76782197D01*
X151366069Y-76554006D01*
X151384000Y-76520459D01*
X151401931Y-76554006D01*
X151589203Y-76782197D01*
X151817395Y-76969469D01*
X152077737Y-77108625D01*
X152360224Y-77194316D01*
X152654000Y-77223251D01*
X152947777Y-77194316D01*
X153230264Y-77108625D01*
X153490606Y-76969469D01*
X153718797Y-76782197D01*
X153906069Y-76554006D01*
X154045225Y-76293663D01*
X154130916Y-76011176D01*
X154152600Y-75791018D01*
X154152600Y-75338981D01*
X154130916Y-75118823D01*
X154045225Y-74836336D01*
X153906069Y-74575994D01*
X153718797Y-74347803D01*
X153490605Y-74160531D01*
X153230263Y-74021375D01*
X152947776Y-73935684D01*
X152654000Y-73906749D01*
X152360223Y-73935684D01*
X152077736Y-74021375D01*
X151817394Y-74160531D01*
X151589203Y-74347803D01*
X151401931Y-74575995D01*
X151384000Y-74609541D01*
X151366069Y-74575994D01*
X151178797Y-74347803D01*
X150950605Y-74160531D01*
X150690263Y-74021375D01*
X150407776Y-73935684D01*
X150114000Y-73906749D01*
X149820223Y-73935684D01*
X149537736Y-74021375D01*
X149277394Y-74160531D01*
X149049203Y-74347803D01*
X148861931Y-74575995D01*
X148844000Y-74609541D01*
X148826069Y-74575994D01*
X148638797Y-74347803D01*
X148410605Y-74160531D01*
X148150263Y-74021375D01*
X147867776Y-73935684D01*
X147574000Y-73906749D01*
X147280223Y-73935684D01*
X146997736Y-74021375D01*
X146737394Y-74160531D01*
X146509203Y-74347803D01*
X146321931Y-74575995D01*
X146304000Y-74609541D01*
X146286069Y-74575994D01*
X146098797Y-74347803D01*
X145870605Y-74160531D01*
X145610263Y-74021375D01*
X145327776Y-73935684D01*
X145034000Y-73906749D01*
X144740223Y-73935684D01*
X144457736Y-74021375D01*
X144197394Y-74160531D01*
X143969203Y-74347803D01*
X143781931Y-74575995D01*
X143764000Y-74609541D01*
X143746069Y-74575994D01*
X143558797Y-74347803D01*
X143330605Y-74160531D01*
X143070263Y-74021375D01*
X142787776Y-73935684D01*
X142494000Y-73906749D01*
X142200223Y-73935684D01*
X141917736Y-74021375D01*
X141657394Y-74160531D01*
X141429203Y-74347803D01*
X141241931Y-74575995D01*
X141224000Y-74609541D01*
X141206069Y-74575994D01*
X141018797Y-74347803D01*
X140790605Y-74160531D01*
X140530263Y-74021375D01*
X140247776Y-73935684D01*
X139954000Y-73906749D01*
X139660223Y-73935684D01*
X139377736Y-74021375D01*
X139117394Y-74160531D01*
X138889203Y-74347803D01*
X138701931Y-74575995D01*
X138680576Y-74615947D01*
X138532486Y-74413271D01*
X138316035Y-74214267D01*
X138064919Y-74061314D01*
X137788789Y-73960291D01*
X137773026Y-73957642D01*
X137541000Y-74078783D01*
X137287000Y-74078783D01*
X137054974Y-73957642D01*
X137039211Y-73960291D01*
X136763081Y-74061314D01*
X136511965Y-74214267D01*
X136295514Y-74413271D01*
X136147424Y-74615947D01*
X136126069Y-74575994D01*
X135938797Y-74347803D01*
X135710605Y-74160531D01*
X135450263Y-74021375D01*
X135167776Y-73935684D01*
X134874000Y-73906749D01*
X134580223Y-73935684D01*
X134297736Y-74021375D01*
X134037394Y-74160531D01*
X133809203Y-74347803D01*
X133621931Y-74575995D01*
X133604000Y-74609541D01*
X133586069Y-74575994D01*
X133398797Y-74347803D01*
X133170605Y-74160531D01*
X132910263Y-74021375D01*
X132627776Y-73935684D01*
X132334000Y-73906749D01*
X132040223Y-73935684D01*
X131757736Y-74021375D01*
X131497394Y-74160531D01*
X131269203Y-74347803D01*
X131081931Y-74575995D01*
X131064000Y-74609541D01*
X131046069Y-74575994D01*
X130858797Y-74347803D01*
X130630605Y-74160531D01*
X130370263Y-74021375D01*
X130087776Y-73935684D01*
X129794000Y-73906749D01*
X129500223Y-73935684D01*
X129217736Y-74021375D01*
X128957394Y-74160531D01*
X128729203Y-74347803D01*
X128657001Y-74435781D01*
X128601464Y-74301702D01*
X128309594Y-73864887D01*
X128179707Y-73735000D01*
X175219909Y-73735000D01*
X176328001Y-74843093D01*
X176328000Y-85944125D01*
X176324565Y-85979000D01*
X176328000Y-86013875D01*
X176328000Y-86013876D01*
X176338273Y-86118183D01*
X176378872Y-86252019D01*
X176444800Y-86375362D01*
X176533525Y-86483474D01*
X176560617Y-86505708D01*
X178868001Y-88813093D01*
X178868001Y-88863294D01*
X178738113Y-88733406D01*
X178301298Y-88441536D01*
X177815935Y-88240492D01*
X177300677Y-88138000D01*
X176775323Y-88138000D01*
X176260065Y-88240492D01*
X175774702Y-88441536D01*
X175337887Y-88733406D01*
X174966406Y-89104887D01*
X174674536Y-89541702D01*
X174473492Y-90027065D01*
X174371000Y-90542323D01*
X174371000Y-91067677D01*
X174473492Y-91582935D01*
X174674536Y-92068298D01*
X174966406Y-92505113D01*
X175337887Y-92876594D01*
X175774702Y-93168464D01*
X176260065Y-93369508D01*
X176775323Y-93472000D01*
X177300677Y-93472000D01*
X177815935Y-93369508D01*
X178301298Y-93168464D01*
X178738113Y-92876594D01*
X178868001Y-92746706D01*
X178868000Y-116803293D01*
X178738113Y-116673406D01*
X178301298Y-116381536D01*
X177815935Y-116180492D01*
X177300677Y-116078000D01*
X176775323Y-116078000D01*
X176629299Y-116107046D01*
X176640195Y-116071128D01*
X176653000Y-115941115D01*
X176653000Y-115941105D01*
X176657281Y-115897639D01*
X176653000Y-115854173D01*
X176653000Y-112438465D01*
X176657281Y-112394999D01*
X176653000Y-112351533D01*
X176653000Y-112351523D01*
X176640195Y-112221510D01*
X176589589Y-112054687D01*
X176507411Y-111900941D01*
X176444735Y-111824571D01*
X176424532Y-111799953D01*
X176424530Y-111799951D01*
X176396817Y-111766183D01*
X176363050Y-111738471D01*
X175154534Y-110529956D01*
X175126817Y-110496183D01*
X174992059Y-110385589D01*
X174942535Y-110359118D01*
X174864031Y-110212248D01*
X174659714Y-109963286D01*
X174527767Y-109855000D01*
X174659714Y-109746714D01*
X174864031Y-109497752D01*
X175015852Y-109213715D01*
X175109343Y-108905516D01*
X175140911Y-108585000D01*
X175109343Y-108264484D01*
X175015852Y-107956285D01*
X174864031Y-107672248D01*
X174659714Y-107423286D01*
X174529858Y-107316716D01*
X174743922Y-107111317D01*
X174928010Y-106847761D01*
X175057144Y-106553355D01*
X175088124Y-106425434D01*
X174968777Y-106172000D01*
X173355000Y-106172000D01*
X173355000Y-106192000D01*
X173101000Y-106192000D01*
X173101000Y-106172000D01*
X171487223Y-106172000D01*
X171367876Y-106425434D01*
X171398856Y-106553355D01*
X171527990Y-106847761D01*
X171712078Y-107111317D01*
X171926142Y-107316716D01*
X171796286Y-107423286D01*
X171591969Y-107672248D01*
X171577135Y-107700000D01*
X169784579Y-107700000D01*
X169033000Y-106948422D01*
X169033000Y-105664566D01*
X171367876Y-105664566D01*
X171487223Y-105918000D01*
X173101000Y-105918000D01*
X173101000Y-104410000D01*
X173355000Y-104410000D01*
X173355000Y-105918000D01*
X174968777Y-105918000D01*
X175088124Y-105664566D01*
X175057144Y-105536645D01*
X174928010Y-105242239D01*
X174743922Y-104978683D01*
X174511954Y-104756105D01*
X174241020Y-104583058D01*
X173941532Y-104466193D01*
X173625000Y-104410000D01*
X173355000Y-104410000D01*
X173101000Y-104410000D01*
X172831000Y-104410000D01*
X172514468Y-104466193D01*
X172214980Y-104583058D01*
X171944046Y-104756105D01*
X171712078Y-104978683D01*
X171527990Y-105242239D01*
X171398856Y-105536645D01*
X171367876Y-105664566D01*
X169033000Y-105664566D01*
X169033000Y-92455434D01*
X170097876Y-92455434D01*
X170128856Y-92583355D01*
X170257990Y-92877761D01*
X170442078Y-93141317D01*
X170674046Y-93363895D01*
X170944980Y-93536942D01*
X171244468Y-93653807D01*
X171561000Y-93710000D01*
X171831000Y-93710000D01*
X171831000Y-92202000D01*
X172085000Y-92202000D01*
X172085000Y-93710000D01*
X172355000Y-93710000D01*
X172671532Y-93653807D01*
X172971020Y-93536942D01*
X173241954Y-93363895D01*
X173473922Y-93141317D01*
X173658010Y-92877761D01*
X173787144Y-92583355D01*
X173818124Y-92455434D01*
X173698777Y-92202000D01*
X172085000Y-92202000D01*
X171831000Y-92202000D01*
X170217223Y-92202000D01*
X170097876Y-92455434D01*
X169033000Y-92455434D01*
X169033000Y-91171578D01*
X169784579Y-90420000D01*
X170307135Y-90420000D01*
X170321969Y-90447752D01*
X170526286Y-90696714D01*
X170656142Y-90803284D01*
X170442078Y-91008683D01*
X170257990Y-91272239D01*
X170128856Y-91566645D01*
X170097876Y-91694566D01*
X170217223Y-91948000D01*
X171831000Y-91948000D01*
X171831000Y-91928000D01*
X172085000Y-91928000D01*
X172085000Y-91948000D01*
X173698777Y-91948000D01*
X173818124Y-91694566D01*
X173787144Y-91566645D01*
X173658010Y-91272239D01*
X173473922Y-91008683D01*
X173259858Y-90803284D01*
X173389714Y-90696714D01*
X173594031Y-90447752D01*
X173745852Y-90163715D01*
X173839343Y-89855516D01*
X173870911Y-89535000D01*
X173839343Y-89214484D01*
X173745852Y-88906285D01*
X173594031Y-88622248D01*
X173389714Y-88373286D01*
X173257767Y-88265000D01*
X173389714Y-88156714D01*
X173594031Y-87907752D01*
X173745852Y-87623715D01*
X173839343Y-87315516D01*
X173870911Y-86995000D01*
X173839343Y-86674484D01*
X173745852Y-86366285D01*
X173594031Y-86082248D01*
X173389714Y-85833286D01*
X173257767Y-85725000D01*
X173389714Y-85616714D01*
X173594031Y-85367752D01*
X173745852Y-85083715D01*
X173839343Y-84775516D01*
X173870911Y-84455000D01*
X173839343Y-84134484D01*
X173745852Y-83826285D01*
X173594031Y-83542248D01*
X173389714Y-83293286D01*
X173257767Y-83185000D01*
X173389714Y-83076714D01*
X173594031Y-82827752D01*
X173745852Y-82543715D01*
X173839343Y-82235516D01*
X173870911Y-81915000D01*
X173839343Y-81594484D01*
X173745852Y-81286285D01*
X173594031Y-81002248D01*
X173389714Y-80753286D01*
X173140752Y-80548969D01*
X172856715Y-80397148D01*
X172548516Y-80303657D01*
X172308322Y-80280000D01*
X171607678Y-80280000D01*
X171367484Y-80303657D01*
X171059285Y-80397148D01*
X170775248Y-80548969D01*
X170664465Y-80639886D01*
X170303000Y-80278422D01*
X170303000Y-76929753D01*
X170482797Y-76782197D01*
X170670069Y-76554006D01*
X170688000Y-76520459D01*
X170705931Y-76554006D01*
X170893203Y-76782197D01*
X171121395Y-76969469D01*
X171381737Y-77108625D01*
X171664224Y-77194316D01*
X171958000Y-77223251D01*
X172251777Y-77194316D01*
X172534264Y-77108625D01*
X172794606Y-76969469D01*
X173022797Y-76782197D01*
X173210069Y-76554006D01*
X173228000Y-76520459D01*
X173245931Y-76554006D01*
X173433203Y-76782197D01*
X173661395Y-76969469D01*
X173921737Y-77108625D01*
X174204224Y-77194316D01*
X174498000Y-77223251D01*
X174791777Y-77194316D01*
X175074264Y-77108625D01*
X175334606Y-76969469D01*
X175562797Y-76782197D01*
X175750069Y-76554006D01*
X175889225Y-76293663D01*
X175974916Y-76011176D01*
X175996600Y-75791018D01*
X175996600Y-75338981D01*
X175974916Y-75118823D01*
X175889225Y-74836336D01*
X175750069Y-74575994D01*
X175562797Y-74347803D01*
X175334605Y-74160531D01*
X175074263Y-74021375D01*
X174791776Y-73935684D01*
X174498000Y-73906749D01*
X174204223Y-73935684D01*
X173921736Y-74021375D01*
X173661394Y-74160531D01*
X173433203Y-74347803D01*
X173245931Y-74575995D01*
X173228000Y-74609541D01*
X173210069Y-74575994D01*
X173022797Y-74347803D01*
X172794605Y-74160531D01*
X172534263Y-74021375D01*
X172251776Y-73935684D01*
X171958000Y-73906749D01*
X171664223Y-73935684D01*
X171381736Y-74021375D01*
X171121394Y-74160531D01*
X170893203Y-74347803D01*
X170705931Y-74575995D01*
X170688000Y-74609541D01*
X170670069Y-74575994D01*
X170482797Y-74347803D01*
X170254605Y-74160531D01*
X169994263Y-74021375D01*
X169711776Y-73935684D01*
X169418000Y-73906749D01*
X169124223Y-73935684D01*
X168841736Y-74021375D01*
X168581394Y-74160531D01*
X168353203Y-74347803D01*
X168165931Y-74575995D01*
X168148000Y-74609541D01*
X168130069Y-74575994D01*
X167942797Y-74347803D01*
X167714605Y-74160531D01*
X167454263Y-74021375D01*
X167171776Y-73935684D01*
X166878000Y-73906749D01*
X166584223Y-73935684D01*
X166301736Y-74021375D01*
X166041394Y-74160531D01*
X165813203Y-74347803D01*
X165625931Y-74575995D01*
X165608000Y-74609541D01*
X165590069Y-74575994D01*
X165402797Y-74347803D01*
X165174605Y-74160531D01*
X164914263Y-74021375D01*
X164631776Y-73935684D01*
X164338000Y-73906749D01*
X164044223Y-73935684D01*
X163761736Y-74021375D01*
X163501394Y-74160531D01*
X163273203Y-74347803D01*
X163085931Y-74575995D01*
X163068000Y-74609541D01*
X163050069Y-74575994D01*
X162862797Y-74347803D01*
X162634605Y-74160531D01*
X162374263Y-74021375D01*
X162091776Y-73935684D01*
X161798000Y-73906749D01*
X161504223Y-73935684D01*
X161221736Y-74021375D01*
X160961394Y-74160531D01*
X160733203Y-74347803D01*
X160545931Y-74575995D01*
X160528000Y-74609541D01*
X160510069Y-74575994D01*
X160322797Y-74347803D01*
X160094605Y-74160531D01*
X159834263Y-74021375D01*
X159551776Y-73935684D01*
X159258000Y-73906749D01*
X158964223Y-73935684D01*
X158681736Y-74021375D01*
X158421394Y-74160531D01*
X158193203Y-74347803D01*
X158005931Y-74575995D01*
X157988000Y-74609541D01*
X157970069Y-74575994D01*
X157782797Y-74347803D01*
X157554605Y-74160531D01*
X157294263Y-74021375D01*
X157011776Y-73935684D01*
X156718000Y-73906749D01*
X156424223Y-73935684D01*
X156141736Y-74021375D01*
X155881394Y-74160531D01*
X155653203Y-74347803D01*
X155465931Y-74575995D01*
X155326775Y-74836337D01*
X155241084Y-75118824D01*
X155219400Y-75338982D01*
X155219400Y-75791019D01*
X155241084Y-76011177D01*
X155326775Y-76293664D01*
X155465931Y-76554006D01*
X155653203Y-76782197D01*
X155881395Y-76969469D01*
X156141737Y-77108625D01*
X156424224Y-77194316D01*
X156718000Y-77223251D01*
X157011777Y-77194316D01*
X157294264Y-77108625D01*
X157554606Y-76969469D01*
X157782797Y-76782197D01*
X157970069Y-76554006D01*
X157988000Y-76520459D01*
X158005931Y-76554006D01*
X158193203Y-76782197D01*
X158421395Y-76969469D01*
X158681737Y-77108625D01*
X158964224Y-77194316D01*
X159258000Y-77223251D01*
X159551777Y-77194316D01*
X159834264Y-77108625D01*
X160094606Y-76969469D01*
X160322797Y-76782197D01*
X160510069Y-76554006D01*
X160528000Y-76520459D01*
X160545931Y-76554006D01*
X160733203Y-76782197D01*
X160961395Y-76969469D01*
X161221737Y-77108625D01*
X161504224Y-77194316D01*
X161798000Y-77223251D01*
X162091777Y-77194316D01*
X162374264Y-77108625D01*
X162634606Y-76969469D01*
X162862797Y-76782197D01*
X163050069Y-76554006D01*
X163068000Y-76520459D01*
X163085931Y-76554006D01*
X163273203Y-76782197D01*
X163458494Y-76934261D01*
X163465805Y-77008489D01*
X163516411Y-77175312D01*
X163598589Y-77329058D01*
X163709183Y-77463817D01*
X163742956Y-77491534D01*
X164711470Y-78460049D01*
X164739183Y-78493817D01*
X164772951Y-78521530D01*
X164772953Y-78521532D01*
X164844452Y-78580210D01*
X164873941Y-78604411D01*
X165027687Y-78686589D01*
X165143903Y-78721843D01*
X165194509Y-78737195D01*
X165209306Y-78738652D01*
X165324523Y-78750000D01*
X165324531Y-78750000D01*
X165368000Y-78754281D01*
X165411469Y-78750000D01*
X166127196Y-78750000D01*
X166512991Y-79135796D01*
X166512990Y-81409975D01*
X166508709Y-81453444D01*
X166512990Y-81496910D01*
X166512990Y-81496920D01*
X166525795Y-81626933D01*
X166576401Y-81793756D01*
X166658579Y-81947502D01*
X166769173Y-82082261D01*
X166802946Y-82109978D01*
X167913001Y-83220033D01*
X167913000Y-84035757D01*
X167908719Y-84079227D01*
X167913000Y-84122696D01*
X167913000Y-84122703D01*
X167916581Y-84159058D01*
X167925805Y-84252717D01*
X167934540Y-84281510D01*
X167976411Y-84419539D01*
X168058589Y-84573285D01*
X168169183Y-84708044D01*
X168202956Y-84735761D01*
X169013000Y-85545806D01*
X169013000Y-86021531D01*
X169008719Y-86065000D01*
X169013000Y-86108469D01*
X169013000Y-86108476D01*
X169023891Y-86219059D01*
X169025805Y-86238490D01*
X169030992Y-86255589D01*
X169076411Y-86405312D01*
X169158589Y-86559058D01*
X169269183Y-86693817D01*
X169302956Y-86721534D01*
X170154913Y-87573492D01*
X170170148Y-87623715D01*
X170321969Y-87907752D01*
X170526286Y-88156714D01*
X170658233Y-88265000D01*
X170526286Y-88373286D01*
X170321969Y-88622248D01*
X170307135Y-88650000D01*
X169461465Y-88650000D01*
X169417999Y-88645719D01*
X169374533Y-88650000D01*
X169374523Y-88650000D01*
X169244510Y-88662805D01*
X169077687Y-88713411D01*
X168923941Y-88795589D01*
X168923939Y-88795590D01*
X168923940Y-88795590D01*
X168822953Y-88878468D01*
X168822951Y-88878470D01*
X168789183Y-88906183D01*
X168761470Y-88939951D01*
X168148000Y-89553421D01*
X166264536Y-87669958D01*
X166264532Y-87669953D01*
X163724534Y-85129956D01*
X163696817Y-85096183D01*
X163562059Y-84985589D01*
X163408313Y-84903411D01*
X163241490Y-84852805D01*
X163111477Y-84840000D01*
X163111469Y-84840000D01*
X163068000Y-84835719D01*
X163024531Y-84840000D01*
X145331469Y-84840000D01*
X145288000Y-84835719D01*
X145244531Y-84840000D01*
X145244523Y-84840000D01*
X145114510Y-84852805D01*
X144947686Y-84903411D01*
X144793941Y-84985589D01*
X144692953Y-85068468D01*
X144692951Y-85068470D01*
X144659183Y-85096183D01*
X144631470Y-85129951D01*
X141478000Y-88283422D01*
X141093000Y-87898422D01*
X141093000Y-82295865D01*
X141120752Y-82281031D01*
X141369714Y-82076714D01*
X141476284Y-81946858D01*
X141681683Y-82160922D01*
X141945239Y-82345010D01*
X142239645Y-82474144D01*
X142367566Y-82505124D01*
X142621000Y-82385777D01*
X142621000Y-80772000D01*
X142601000Y-80772000D01*
X142601000Y-80518000D01*
X142621000Y-80518000D01*
X142621000Y-78904223D01*
X142367566Y-78784876D01*
X142239645Y-78815856D01*
X141945239Y-78944990D01*
X141681683Y-79129078D01*
X141476284Y-79343142D01*
X141369714Y-79213286D01*
X141120751Y-79008969D01*
X140836714Y-78857148D01*
X140528515Y-78763657D01*
X140208000Y-78732089D01*
X139887484Y-78763657D01*
X139579285Y-78857148D01*
X139295248Y-79008969D01*
X139046286Y-79213286D01*
X138841969Y-79462249D01*
X138690148Y-79746286D01*
X138596657Y-80054485D01*
X138573000Y-80294679D01*
X138573000Y-80995322D01*
X138596657Y-81235516D01*
X138690148Y-81543715D01*
X138841969Y-81827752D01*
X139046286Y-82076714D01*
X139295249Y-82281031D01*
X139323001Y-82295865D01*
X139323000Y-88221531D01*
X139318719Y-88265000D01*
X139323000Y-88308469D01*
X139323000Y-88308476D01*
X139331405Y-88393817D01*
X139335805Y-88438490D01*
X139349648Y-88484123D01*
X139386411Y-88605312D01*
X139468589Y-88759058D01*
X139579183Y-88893817D01*
X139612954Y-88921532D01*
X140673000Y-89981579D01*
X140673001Y-90858421D01*
X140341422Y-91190000D01*
X136728865Y-91190000D01*
X136714031Y-91162248D01*
X136509714Y-90913286D01*
X136377767Y-90805000D01*
X136509714Y-90696714D01*
X136714031Y-90447752D01*
X136865852Y-90163715D01*
X136959343Y-89855516D01*
X136990911Y-89535000D01*
X136959343Y-89214484D01*
X136865852Y-88906285D01*
X136714031Y-88622248D01*
X136509714Y-88373286D01*
X136260752Y-88168969D01*
X135976715Y-88017148D01*
X135668516Y-87923657D01*
X135428322Y-87900000D01*
X134727678Y-87900000D01*
X134487484Y-87923657D01*
X134179285Y-88017148D01*
X133895248Y-88168969D01*
X133646286Y-88373286D01*
X133441969Y-88622248D01*
X133290148Y-88906285D01*
X133196657Y-89214484D01*
X133165089Y-89535000D01*
X133196657Y-89855516D01*
X133290148Y-90163715D01*
X133441969Y-90447752D01*
X133646286Y-90696714D01*
X133778233Y-90805000D01*
X133646286Y-90913286D01*
X133441969Y-91162248D01*
X133427135Y-91190000D01*
X130974579Y-91190000D01*
X130883000Y-91098422D01*
X130883000Y-88668467D01*
X130887281Y-88624998D01*
X130883000Y-88581529D01*
X130883000Y-88581521D01*
X130870195Y-88451508D01*
X130819589Y-88284685D01*
X130737411Y-88130939D01*
X130705052Y-88091510D01*
X130654532Y-88029951D01*
X130654530Y-88029949D01*
X130626817Y-87996181D01*
X130593050Y-87968469D01*
X129794536Y-87169956D01*
X129766819Y-87136183D01*
X129632061Y-87025589D01*
X129478315Y-86943411D01*
X129311492Y-86892805D01*
X129181479Y-86880000D01*
X129181471Y-86880000D01*
X129138002Y-86875719D01*
X129094533Y-86880000D01*
X125941469Y-86880000D01*
X125898000Y-86875719D01*
X125854531Y-86880000D01*
X125854523Y-86880000D01*
X125724510Y-86892805D01*
X125557686Y-86943411D01*
X125403941Y-87025589D01*
X125302953Y-87108468D01*
X125302951Y-87108470D01*
X125269183Y-87136183D01*
X125241470Y-87169951D01*
X124372951Y-88038471D01*
X124339184Y-88066183D01*
X124311471Y-88099951D01*
X124311468Y-88099954D01*
X124228590Y-88200941D01*
X124146412Y-88354687D01*
X124095805Y-88521510D01*
X124078719Y-88695000D01*
X124083001Y-88738479D01*
X124083000Y-92978421D01*
X122061422Y-95000000D01*
X117391469Y-95000000D01*
X117348000Y-94995719D01*
X117304531Y-95000000D01*
X116183059Y-95000000D01*
X116077987Y-94842748D01*
X115850252Y-94615013D01*
X115582463Y-94436082D01*
X115284912Y-94312832D01*
X114969033Y-94250000D01*
X114646967Y-94250000D01*
X114331088Y-94312832D01*
X114033537Y-94436082D01*
X113765748Y-94615013D01*
X113538013Y-94842748D01*
X113359082Y-95110537D01*
X113235832Y-95408088D01*
X113173000Y-95723967D01*
X113173000Y-96046033D01*
X113235832Y-96361912D01*
X113359082Y-96659463D01*
X113538013Y-96927252D01*
X113765748Y-97154987D01*
X114033537Y-97333918D01*
X114331088Y-97457168D01*
X114646967Y-97520000D01*
X114969033Y-97520000D01*
X115284912Y-97457168D01*
X115582463Y-97333918D01*
X115850252Y-97154987D01*
X116077987Y-96927252D01*
X116183059Y-96770000D01*
X116981422Y-96770000D01*
X117733000Y-97521579D01*
X117733001Y-108541521D01*
X117728719Y-108585000D01*
X117745805Y-108758490D01*
X117796412Y-108925313D01*
X117878590Y-109079059D01*
X117961468Y-109180046D01*
X117961471Y-109180049D01*
X117989184Y-109213817D01*
X118022951Y-109241529D01*
X119231470Y-110450049D01*
X119259183Y-110483817D01*
X119292951Y-110511530D01*
X119292953Y-110511532D01*
X119315399Y-110529953D01*
X119393941Y-110594411D01*
X119547687Y-110676589D01*
X119714510Y-110727195D01*
X119844523Y-110740000D01*
X119844533Y-110740000D01*
X119887999Y-110744281D01*
X119931465Y-110740000D01*
X122061422Y-110740000D01*
X122813000Y-111491579D01*
X122813001Y-113621521D01*
X122808719Y-113665000D01*
X122825805Y-113838490D01*
X122876412Y-114005313D01*
X122958590Y-114159059D01*
X123041468Y-114260046D01*
X123041471Y-114260049D01*
X123069184Y-114293817D01*
X123102951Y-114321529D01*
X124311470Y-115530049D01*
X124339183Y-115563817D01*
X124372951Y-115591530D01*
X124372953Y-115591532D01*
X124408967Y-115621088D01*
X124473941Y-115674411D01*
X124627687Y-115756589D01*
X124794510Y-115807195D01*
X124924523Y-115820000D01*
X124924533Y-115820000D01*
X124967999Y-115824281D01*
X125011465Y-115820000D01*
X130951422Y-115820000D01*
X133201470Y-118070049D01*
X133229183Y-118103817D01*
X133262951Y-118131530D01*
X133262953Y-118131532D01*
X133334452Y-118190210D01*
X133363941Y-118214411D01*
X133517687Y-118296589D01*
X133684510Y-118347195D01*
X133814523Y-118360000D01*
X133814533Y-118360000D01*
X133857999Y-118364281D01*
X133901465Y-118360000D01*
X143651422Y-118360000D01*
X147972811Y-122681390D01*
X147845931Y-122835995D01*
X147828000Y-122869541D01*
X147810069Y-122835994D01*
X147622797Y-122607803D01*
X147394605Y-122420531D01*
X147134263Y-122281375D01*
X146851776Y-122195684D01*
X146558000Y-122166749D01*
X146264223Y-122195684D01*
X145981736Y-122281375D01*
X145721394Y-122420531D01*
X145493203Y-122607803D01*
X145305931Y-122835995D01*
X145288000Y-122869541D01*
X145270069Y-122835994D01*
X145082797Y-122607803D01*
X144854605Y-122420531D01*
X144594263Y-122281375D01*
X144311776Y-122195684D01*
X144018000Y-122166749D01*
X143724223Y-122195684D01*
X143441736Y-122281375D01*
X143181394Y-122420531D01*
X142953203Y-122607803D01*
X142765931Y-122835995D01*
X142748000Y-122869541D01*
X142730069Y-122835994D01*
X142542797Y-122607803D01*
X142314605Y-122420531D01*
X142054263Y-122281375D01*
X141771776Y-122195684D01*
X141478000Y-122166749D01*
X141184223Y-122195684D01*
X140901736Y-122281375D01*
X140641394Y-122420531D01*
X140413203Y-122607803D01*
X140225931Y-122835995D01*
X140208000Y-122869541D01*
X140190069Y-122835994D01*
X140002797Y-122607803D01*
X139774605Y-122420531D01*
X139514263Y-122281375D01*
X139231776Y-122195684D01*
X138938000Y-122166749D01*
X138644223Y-122195684D01*
X138361736Y-122281375D01*
X138101394Y-122420531D01*
X137873203Y-122607803D01*
X137685931Y-122835995D01*
X137546775Y-123096337D01*
X137461084Y-123378824D01*
X137439400Y-123598982D01*
X137439400Y-124051019D01*
X137461084Y-124271177D01*
X137546775Y-124553664D01*
X137685931Y-124814006D01*
X137873203Y-125042197D01*
X138101395Y-125229469D01*
X138361737Y-125368625D01*
X138644224Y-125454316D01*
X138938000Y-125483251D01*
X139231777Y-125454316D01*
X139514264Y-125368625D01*
X139774606Y-125229469D01*
X140002797Y-125042197D01*
X140190069Y-124814006D01*
X140208000Y-124780459D01*
X140225931Y-124814006D01*
X140413203Y-125042197D01*
X140641395Y-125229469D01*
X140901737Y-125368625D01*
X141184224Y-125454316D01*
X141478000Y-125483251D01*
X141771777Y-125454316D01*
X142054264Y-125368625D01*
X142314606Y-125229469D01*
X142542797Y-125042197D01*
X142730069Y-124814006D01*
X142748000Y-124780459D01*
X142765931Y-124814006D01*
X142953203Y-125042197D01*
X143181395Y-125229469D01*
X143441737Y-125368625D01*
X143724224Y-125454316D01*
X144018000Y-125483251D01*
X144311777Y-125454316D01*
X144594264Y-125368625D01*
X144854606Y-125229469D01*
X145082797Y-125042197D01*
X145270069Y-124814006D01*
X145288000Y-124780459D01*
X145305931Y-124814006D01*
X145493203Y-125042197D01*
X145721395Y-125229469D01*
X145981737Y-125368625D01*
X146264224Y-125454316D01*
X146558000Y-125483251D01*
X146851777Y-125454316D01*
X147134264Y-125368625D01*
X147394606Y-125229469D01*
X147622797Y-125042197D01*
X147810069Y-124814006D01*
X147828000Y-124780459D01*
X147845931Y-124814006D01*
X148033203Y-125042197D01*
X148261395Y-125229469D01*
X148521737Y-125368625D01*
X148804224Y-125454316D01*
X149098000Y-125483251D01*
X149391777Y-125454316D01*
X149674264Y-125368625D01*
X149934606Y-125229469D01*
X150162797Y-125042197D01*
X150350069Y-124814006D01*
X150371424Y-124774053D01*
X150519514Y-124976729D01*
X150735965Y-125175733D01*
X150987081Y-125328686D01*
X151263211Y-125429709D01*
X151278974Y-125432358D01*
X151511000Y-125311217D01*
X151511000Y-123952000D01*
X151765000Y-123952000D01*
X151765000Y-125311217D01*
X151997026Y-125432358D01*
X152012789Y-125429709D01*
X152288919Y-125328686D01*
X152540035Y-125175733D01*
X152756486Y-124976729D01*
X152908000Y-124769367D01*
X153059514Y-124976729D01*
X153275965Y-125175733D01*
X153527081Y-125328686D01*
X153803211Y-125429709D01*
X153818974Y-125432358D01*
X154051000Y-125311217D01*
X154051000Y-123952000D01*
X151765000Y-123952000D01*
X151511000Y-123952000D01*
X151491000Y-123952000D01*
X151491000Y-123698000D01*
X151511000Y-123698000D01*
X151511000Y-122338783D01*
X151765000Y-122338783D01*
X151765000Y-123698000D01*
X154051000Y-123698000D01*
X154051000Y-122338783D01*
X154305000Y-122338783D01*
X154305000Y-123698000D01*
X154325000Y-123698000D01*
X154325000Y-123952000D01*
X154305000Y-123952000D01*
X154305000Y-125311217D01*
X154537026Y-125432358D01*
X154552789Y-125429709D01*
X154828919Y-125328686D01*
X155080035Y-125175733D01*
X155296486Y-124976729D01*
X155444576Y-124774053D01*
X155465931Y-124814006D01*
X155653203Y-125042197D01*
X155881395Y-125229469D01*
X156141737Y-125368625D01*
X156424224Y-125454316D01*
X156718000Y-125483251D01*
X157011777Y-125454316D01*
X157294264Y-125368625D01*
X157554606Y-125229469D01*
X157782797Y-125042197D01*
X157970069Y-124814006D01*
X158109225Y-124553663D01*
X158194916Y-124271176D01*
X158216600Y-124051018D01*
X158216600Y-123598981D01*
X158194916Y-123378823D01*
X158109225Y-123096336D01*
X157970069Y-122835994D01*
X157782797Y-122607803D01*
X157554605Y-122420531D01*
X157294263Y-122281375D01*
X157011776Y-122195684D01*
X156718000Y-122166749D01*
X156424223Y-122195684D01*
X156141736Y-122281375D01*
X155881394Y-122420531D01*
X155653203Y-122607803D01*
X155465931Y-122835995D01*
X155444576Y-122875947D01*
X155296486Y-122673271D01*
X155080035Y-122474267D01*
X154828919Y-122321314D01*
X154552789Y-122220291D01*
X154537026Y-122217642D01*
X154305000Y-122338783D01*
X154051000Y-122338783D01*
X153818974Y-122217642D01*
X153803211Y-122220291D01*
X153527081Y-122321314D01*
X153275965Y-122474267D01*
X153059514Y-122673271D01*
X152908000Y-122880633D01*
X152756486Y-122673271D01*
X152540035Y-122474267D01*
X152288919Y-122321314D01*
X152012789Y-122220291D01*
X151997026Y-122217642D01*
X151765000Y-122338783D01*
X151511000Y-122338783D01*
X151278974Y-122217642D01*
X151263211Y-122220291D01*
X150987081Y-122321314D01*
X150735965Y-122474267D01*
X150519514Y-122673271D01*
X150371424Y-122875947D01*
X150350069Y-122835994D01*
X150162797Y-122607803D01*
X149977506Y-122455739D01*
X149970195Y-122381510D01*
X149919589Y-122214687D01*
X149837411Y-122060941D01*
X149786113Y-121998435D01*
X149754532Y-121959953D01*
X149754530Y-121959951D01*
X149726817Y-121926183D01*
X149693051Y-121898472D01*
X144674534Y-116879956D01*
X144646817Y-116846183D01*
X144512059Y-116735589D01*
X144358313Y-116653411D01*
X144191490Y-116602805D01*
X144061477Y-116590000D01*
X144061469Y-116590000D01*
X144018000Y-116585719D01*
X143974531Y-116590000D01*
X134224579Y-116590000D01*
X134176239Y-116541660D01*
X134239675Y-116532961D01*
X134544088Y-116427795D01*
X134718044Y-116334814D01*
X134813808Y-116070413D01*
X133858000Y-115114605D01*
X133843858Y-115128748D01*
X133664253Y-114949143D01*
X133678395Y-114935000D01*
X134037605Y-114935000D01*
X134993413Y-115890808D01*
X135257814Y-115795044D01*
X135398704Y-115505429D01*
X135480384Y-115193892D01*
X135499718Y-114872405D01*
X135455961Y-114553325D01*
X135350795Y-114248912D01*
X135257814Y-114074956D01*
X134993413Y-113979192D01*
X134037605Y-114935000D01*
X133678395Y-114935000D01*
X132722587Y-113979192D01*
X132458186Y-114074956D01*
X132317296Y-114364571D01*
X132251210Y-114616632D01*
X131974534Y-114339956D01*
X131946817Y-114306183D01*
X131812059Y-114195589D01*
X131658313Y-114113411D01*
X131491490Y-114062805D01*
X131361477Y-114050000D01*
X131361469Y-114050000D01*
X131318000Y-114045719D01*
X131274531Y-114050000D01*
X125334579Y-114050000D01*
X124814992Y-113530413D01*
X126552192Y-113530413D01*
X126647956Y-113794814D01*
X126937571Y-113935704D01*
X127249108Y-114017384D01*
X127570595Y-114036718D01*
X127889675Y-113992961D01*
X128194088Y-113887795D01*
X128359114Y-113799587D01*
X132902192Y-113799587D01*
X133858000Y-114755395D01*
X134813808Y-113799587D01*
X134718044Y-113535186D01*
X134428429Y-113394296D01*
X134116892Y-113312616D01*
X133795405Y-113293282D01*
X133476325Y-113337039D01*
X133171912Y-113442205D01*
X132997956Y-113535186D01*
X132902192Y-113799587D01*
X128359114Y-113799587D01*
X128368044Y-113794814D01*
X128463808Y-113530413D01*
X127508000Y-112574605D01*
X126552192Y-113530413D01*
X124814992Y-113530413D01*
X124583000Y-113298422D01*
X124583000Y-112457595D01*
X125866282Y-112457595D01*
X125910039Y-112776675D01*
X126015205Y-113081088D01*
X126108186Y-113255044D01*
X126372587Y-113350808D01*
X127328395Y-112395000D01*
X127687605Y-112395000D01*
X128643413Y-113350808D01*
X128907814Y-113255044D01*
X129048704Y-112965429D01*
X129130384Y-112653892D01*
X129149718Y-112332405D01*
X129105961Y-112013325D01*
X129000795Y-111708912D01*
X128907814Y-111534956D01*
X128643413Y-111439192D01*
X127687605Y-112395000D01*
X127328395Y-112395000D01*
X126372587Y-111439192D01*
X126108186Y-111534956D01*
X125967296Y-111824571D01*
X125885616Y-112136108D01*
X125866282Y-112457595D01*
X124583000Y-112457595D01*
X124583000Y-111168465D01*
X124587281Y-111124999D01*
X124583000Y-111081533D01*
X124583000Y-111081523D01*
X124570195Y-110951510D01*
X124519589Y-110784687D01*
X124437411Y-110630941D01*
X124326817Y-110496183D01*
X124293050Y-110468471D01*
X123084534Y-109259956D01*
X123056817Y-109226183D01*
X122922059Y-109115589D01*
X122768313Y-109033411D01*
X122601490Y-108982805D01*
X122471477Y-108970000D01*
X122471469Y-108970000D01*
X122428000Y-108965719D01*
X122384531Y-108970000D01*
X120254579Y-108970000D01*
X119503000Y-108218422D01*
X119503000Y-97535434D01*
X125697876Y-97535434D01*
X125728856Y-97663355D01*
X125857990Y-97957761D01*
X126042078Y-98221317D01*
X126274046Y-98443895D01*
X126544980Y-98616942D01*
X126844468Y-98733807D01*
X127161000Y-98790000D01*
X127431000Y-98790000D01*
X127431000Y-97282000D01*
X125817223Y-97282000D01*
X125697876Y-97535434D01*
X119503000Y-97535434D01*
X119503000Y-97198465D01*
X119507281Y-97154999D01*
X119503000Y-97111533D01*
X119503000Y-97111523D01*
X119490195Y-96981510D01*
X119439589Y-96814687D01*
X119415704Y-96770000D01*
X122384531Y-96770000D01*
X122428000Y-96774281D01*
X122471469Y-96770000D01*
X122471477Y-96770000D01*
X122601490Y-96757195D01*
X122768313Y-96706589D01*
X122922059Y-96624411D01*
X123056817Y-96513817D01*
X123084534Y-96480044D01*
X125563050Y-94001529D01*
X125596817Y-93973817D01*
X125707411Y-93839059D01*
X125789589Y-93685313D01*
X125840195Y-93518490D01*
X125853000Y-93388477D01*
X125853000Y-93388467D01*
X125857281Y-93345001D01*
X125853000Y-93301535D01*
X125853000Y-92858720D01*
X125921969Y-92987752D01*
X126126286Y-93236714D01*
X126258233Y-93345000D01*
X126126286Y-93453286D01*
X125921969Y-93702248D01*
X125770148Y-93986285D01*
X125676657Y-94294484D01*
X125645089Y-94615000D01*
X125676657Y-94935516D01*
X125770148Y-95243715D01*
X125921969Y-95527752D01*
X126126286Y-95776714D01*
X126256142Y-95883284D01*
X126042078Y-96088683D01*
X125857990Y-96352239D01*
X125728856Y-96646645D01*
X125697876Y-96774566D01*
X125817223Y-97028000D01*
X127431000Y-97028000D01*
X127431000Y-97008000D01*
X127685000Y-97008000D01*
X127685000Y-97028000D01*
X127705000Y-97028000D01*
X127705000Y-97282000D01*
X127685000Y-97282000D01*
X127685000Y-98790000D01*
X127955000Y-98790000D01*
X128271532Y-98733807D01*
X128571020Y-98616942D01*
X128841954Y-98443895D01*
X129073922Y-98221317D01*
X129163000Y-98093785D01*
X129163001Y-104885747D01*
X129158719Y-104929226D01*
X129175805Y-105102716D01*
X129226412Y-105269539D01*
X129308590Y-105423285D01*
X129391468Y-105524272D01*
X129391471Y-105524275D01*
X129419184Y-105558043D01*
X129452951Y-105585755D01*
X130297196Y-106430000D01*
X126291469Y-106430000D01*
X126248000Y-106425719D01*
X126204531Y-106430000D01*
X123803059Y-106430000D01*
X123697987Y-106272748D01*
X123470252Y-106045013D01*
X123202463Y-105866082D01*
X122904912Y-105742832D01*
X122589033Y-105680000D01*
X122266967Y-105680000D01*
X121951088Y-105742832D01*
X121653537Y-105866082D01*
X121385748Y-106045013D01*
X121158013Y-106272748D01*
X120979082Y-106540537D01*
X120855832Y-106838088D01*
X120793000Y-107153967D01*
X120793000Y-107476033D01*
X120855832Y-107791912D01*
X120979082Y-108089463D01*
X121158013Y-108357252D01*
X121385748Y-108584987D01*
X121653537Y-108763918D01*
X121951088Y-108887168D01*
X122266967Y-108950000D01*
X122589033Y-108950000D01*
X122904912Y-108887168D01*
X123202463Y-108763918D01*
X123470252Y-108584987D01*
X123697987Y-108357252D01*
X123803059Y-108200000D01*
X125881422Y-108200000D01*
X126386091Y-108704670D01*
X126238013Y-108852748D01*
X126059082Y-109120537D01*
X125935832Y-109418088D01*
X125873000Y-109733967D01*
X125873000Y-110056033D01*
X125935832Y-110371912D01*
X126059082Y-110669463D01*
X126238013Y-110937252D01*
X126465748Y-111164987D01*
X126562935Y-111229925D01*
X126552192Y-111259587D01*
X127508000Y-112215395D01*
X128463808Y-111259587D01*
X128453065Y-111229925D01*
X128550252Y-111164987D01*
X128777987Y-110937252D01*
X128956918Y-110669463D01*
X129080168Y-110371912D01*
X129143000Y-110056033D01*
X129143000Y-109733967D01*
X129080168Y-109418088D01*
X128956918Y-109120537D01*
X128777987Y-108852748D01*
X128550252Y-108625013D01*
X128391779Y-108519125D01*
X128380195Y-108401510D01*
X128329589Y-108234687D01*
X128311049Y-108200000D01*
X132390305Y-108200000D01*
X132433774Y-108204281D01*
X132477243Y-108200000D01*
X132482941Y-108200000D01*
X132588013Y-108357252D01*
X132815748Y-108584987D01*
X133083537Y-108763918D01*
X133381088Y-108887168D01*
X133696967Y-108950000D01*
X134019033Y-108950000D01*
X134334912Y-108887168D01*
X134632463Y-108763918D01*
X134813000Y-108643287D01*
X134813001Y-111507294D01*
X134808719Y-111550773D01*
X134825805Y-111724263D01*
X134876412Y-111891086D01*
X134958590Y-112044832D01*
X135041468Y-112145819D01*
X135041471Y-112145822D01*
X135069184Y-112179590D01*
X135102951Y-112207302D01*
X138425697Y-115530049D01*
X138453410Y-115563817D01*
X138487178Y-115591530D01*
X138487180Y-115591532D01*
X138523194Y-115621088D01*
X138588168Y-115674411D01*
X138741914Y-115756589D01*
X138908737Y-115807195D01*
X139038750Y-115820000D01*
X139038758Y-115820000D01*
X139082227Y-115824281D01*
X139125696Y-115820000D01*
X141372941Y-115820000D01*
X141478013Y-115977252D01*
X141705748Y-116204987D01*
X141973537Y-116383918D01*
X142271088Y-116507168D01*
X142586967Y-116570000D01*
X142909033Y-116570000D01*
X143224912Y-116507168D01*
X143522463Y-116383918D01*
X143790252Y-116204987D01*
X144017987Y-115977252D01*
X144123059Y-115820000D01*
X146452941Y-115820000D01*
X146558013Y-115977252D01*
X146785748Y-116204987D01*
X147053537Y-116383918D01*
X147351088Y-116507168D01*
X147666967Y-116570000D01*
X147989033Y-116570000D01*
X148304912Y-116507168D01*
X148602463Y-116383918D01*
X148870252Y-116204987D01*
X149097987Y-115977252D01*
X149203059Y-115820000D01*
X151532941Y-115820000D01*
X151638013Y-115977252D01*
X151865748Y-116204987D01*
X152133537Y-116383918D01*
X152431088Y-116507168D01*
X152746967Y-116570000D01*
X153069033Y-116570000D01*
X153384912Y-116507168D01*
X153682463Y-116383918D01*
X153950252Y-116204987D01*
X154084826Y-116070413D01*
X159572192Y-116070413D01*
X159667956Y-116334814D01*
X159957571Y-116475704D01*
X160269108Y-116557384D01*
X160590595Y-116576718D01*
X160909675Y-116532961D01*
X161214088Y-116427795D01*
X161388044Y-116334814D01*
X161483808Y-116070413D01*
X160528000Y-115114605D01*
X159572192Y-116070413D01*
X154084826Y-116070413D01*
X154177987Y-115977252D01*
X154356918Y-115709463D01*
X154480168Y-115411912D01*
X154543000Y-115096033D01*
X154543000Y-114997595D01*
X158886282Y-114997595D01*
X158930039Y-115316675D01*
X159035205Y-115621088D01*
X159128186Y-115795044D01*
X159392587Y-115890808D01*
X160348395Y-114935000D01*
X160707605Y-114935000D01*
X161663413Y-115890808D01*
X161927814Y-115795044D01*
X162068704Y-115505429D01*
X162150384Y-115193892D01*
X162169718Y-114872405D01*
X162125961Y-114553325D01*
X162020795Y-114248912D01*
X161927814Y-114074956D01*
X161663413Y-113979192D01*
X160707605Y-114935000D01*
X160348395Y-114935000D01*
X159392587Y-113979192D01*
X159128186Y-114074956D01*
X158987296Y-114364571D01*
X158905616Y-114676108D01*
X158886282Y-114997595D01*
X154543000Y-114997595D01*
X154543000Y-114773967D01*
X154480168Y-114458088D01*
X154356918Y-114160537D01*
X154177987Y-113892748D01*
X154084826Y-113799587D01*
X159572192Y-113799587D01*
X160528000Y-114755395D01*
X161483808Y-113799587D01*
X161388044Y-113535186D01*
X161098429Y-113394296D01*
X160786892Y-113312616D01*
X160465405Y-113293282D01*
X160146325Y-113337039D01*
X159841912Y-113442205D01*
X159667956Y-113535186D01*
X159572192Y-113799587D01*
X154084826Y-113799587D01*
X153950252Y-113665013D01*
X153682463Y-113486082D01*
X153384912Y-113362832D01*
X153069033Y-113300000D01*
X152746967Y-113300000D01*
X152431088Y-113362832D01*
X152133537Y-113486082D01*
X151865748Y-113665013D01*
X151638013Y-113892748D01*
X151532941Y-114050000D01*
X149203059Y-114050000D01*
X149097987Y-113892748D01*
X148890239Y-113685000D01*
X149097987Y-113477252D01*
X149276918Y-113209463D01*
X149400168Y-112911912D01*
X149463000Y-112596033D01*
X149463000Y-112273967D01*
X149400168Y-111958088D01*
X149276918Y-111660537D01*
X149097987Y-111392748D01*
X148870252Y-111165013D01*
X148602463Y-110986082D01*
X148304912Y-110862832D01*
X147989033Y-110800000D01*
X147666967Y-110800000D01*
X147351088Y-110862832D01*
X147053537Y-110986082D01*
X146785748Y-111165013D01*
X146558013Y-111392748D01*
X146452941Y-111550000D01*
X143834579Y-111550000D01*
X143633000Y-111348422D01*
X143633000Y-108690059D01*
X143790252Y-108584987D01*
X144017987Y-108357252D01*
X144123059Y-108200000D01*
X146514531Y-108200000D01*
X146558000Y-108204281D01*
X146601469Y-108200000D01*
X146601477Y-108200000D01*
X146731490Y-108187195D01*
X146898313Y-108136589D01*
X147052059Y-108054411D01*
X147186817Y-107943817D01*
X147214534Y-107910044D01*
X148423050Y-106701529D01*
X148456817Y-106673817D01*
X148486873Y-106637195D01*
X148567410Y-106539060D01*
X148567411Y-106539059D01*
X148649589Y-106385313D01*
X148700195Y-106218490D01*
X148706507Y-106154398D01*
X148870252Y-106044987D01*
X149097987Y-105817252D01*
X149276918Y-105549463D01*
X149400168Y-105251912D01*
X149463000Y-104936033D01*
X149463000Y-104613967D01*
X149400168Y-104298088D01*
X149276918Y-104000537D01*
X149097987Y-103732748D01*
X148870252Y-103505013D01*
X148602463Y-103326082D01*
X148304912Y-103202832D01*
X147989033Y-103140000D01*
X147666967Y-103140000D01*
X147351088Y-103202832D01*
X147053537Y-103326082D01*
X146785748Y-103505013D01*
X146558013Y-103732748D01*
X146379082Y-104000537D01*
X146255832Y-104298088D01*
X146193000Y-104613967D01*
X146193000Y-104936033D01*
X146255832Y-105251912D01*
X146379082Y-105549463D01*
X146558013Y-105817252D01*
X146681091Y-105940330D01*
X146191422Y-106430000D01*
X144123059Y-106430000D01*
X144017987Y-106272748D01*
X143790252Y-106045013D01*
X143522463Y-105866082D01*
X143224912Y-105742832D01*
X142909033Y-105680000D01*
X142586967Y-105680000D01*
X142271088Y-105742832D01*
X141973537Y-105866082D01*
X141705748Y-106045013D01*
X141478013Y-106272748D01*
X141299082Y-106540537D01*
X141175832Y-106838088D01*
X141113000Y-107153967D01*
X141113000Y-107476033D01*
X141175832Y-107791912D01*
X141299082Y-108089463D01*
X141478013Y-108357252D01*
X141705748Y-108584987D01*
X141863001Y-108690060D01*
X141863000Y-111671523D01*
X141863000Y-111671531D01*
X141858719Y-111715000D01*
X141863000Y-111758469D01*
X141863000Y-111848421D01*
X140661432Y-113049990D01*
X139934569Y-113049990D01*
X137583010Y-110698432D01*
X137583010Y-106494248D01*
X137587291Y-106450782D01*
X137583010Y-106407316D01*
X137583010Y-106407306D01*
X137570205Y-106277293D01*
X137519599Y-106110470D01*
X137437421Y-105956724D01*
X137367488Y-105871511D01*
X137354542Y-105855736D01*
X137354540Y-105855734D01*
X137326827Y-105821966D01*
X137293059Y-105794253D01*
X135668749Y-104169944D01*
X135641034Y-104136173D01*
X135506276Y-104025579D01*
X135352530Y-103943401D01*
X135185707Y-103892795D01*
X135055694Y-103879990D01*
X135055686Y-103879990D01*
X135012217Y-103875709D01*
X134968748Y-103879990D01*
X133203010Y-103879990D01*
X133203010Y-97496459D01*
X133290148Y-97783715D01*
X133441969Y-98067752D01*
X133646286Y-98316714D01*
X133895248Y-98521031D01*
X134179285Y-98672852D01*
X134487484Y-98766343D01*
X134727678Y-98790000D01*
X135428322Y-98790000D01*
X135668516Y-98766343D01*
X135976715Y-98672852D01*
X136260752Y-98521031D01*
X136509714Y-98316714D01*
X136714031Y-98067752D01*
X136865852Y-97783715D01*
X136959343Y-97475516D01*
X136990911Y-97155000D01*
X136959343Y-96834484D01*
X136865852Y-96526285D01*
X136714031Y-96242248D01*
X136509714Y-95993286D01*
X136377767Y-95885000D01*
X136509714Y-95776714D01*
X136714031Y-95527752D01*
X136865852Y-95243715D01*
X136959343Y-94935516D01*
X136990911Y-94615000D01*
X136959343Y-94294484D01*
X136865852Y-93986285D01*
X136714031Y-93702248D01*
X136509714Y-93453286D01*
X136377767Y-93345000D01*
X136509714Y-93236714D01*
X136714031Y-92987752D01*
X136728865Y-92960000D01*
X140664531Y-92960000D01*
X140708000Y-92964281D01*
X140751469Y-92960000D01*
X140751477Y-92960000D01*
X140881490Y-92947195D01*
X141048313Y-92896589D01*
X141202059Y-92814411D01*
X141336817Y-92703817D01*
X141364534Y-92670044D01*
X141548000Y-92486578D01*
X141731470Y-92670049D01*
X141759183Y-92703817D01*
X141792951Y-92731530D01*
X141792953Y-92731532D01*
X141824955Y-92757795D01*
X141893941Y-92814411D01*
X142047687Y-92896589D01*
X142214510Y-92947195D01*
X142344523Y-92960000D01*
X142344533Y-92960000D01*
X142387999Y-92964281D01*
X142431465Y-92960000D01*
X142682941Y-92960000D01*
X142788013Y-93117252D01*
X143015748Y-93344987D01*
X143283537Y-93523918D01*
X143581088Y-93647168D01*
X143896967Y-93710000D01*
X144219033Y-93710000D01*
X144534912Y-93647168D01*
X144832463Y-93523918D01*
X145100252Y-93344987D01*
X145234826Y-93210413D01*
X145602192Y-93210413D01*
X145697956Y-93474814D01*
X145987571Y-93615704D01*
X146299108Y-93697384D01*
X146620595Y-93716718D01*
X146939675Y-93672961D01*
X147244088Y-93567795D01*
X147418044Y-93474814D01*
X147513808Y-93210413D01*
X146558000Y-92254605D01*
X145602192Y-93210413D01*
X145234826Y-93210413D01*
X145327987Y-93117252D01*
X145392925Y-93020065D01*
X145422587Y-93030808D01*
X146378395Y-92075000D01*
X146737605Y-92075000D01*
X147693413Y-93030808D01*
X147957814Y-92935044D01*
X148098704Y-92645429D01*
X148180384Y-92333892D01*
X148199718Y-92012405D01*
X148155961Y-91693325D01*
X148050795Y-91388912D01*
X147957814Y-91214956D01*
X147693413Y-91119192D01*
X146737605Y-92075000D01*
X146378395Y-92075000D01*
X145422587Y-91119192D01*
X145392925Y-91129935D01*
X145327987Y-91032748D01*
X145234826Y-90939587D01*
X145602192Y-90939587D01*
X146558000Y-91895395D01*
X147513808Y-90939587D01*
X147418044Y-90675186D01*
X147128429Y-90534296D01*
X146816892Y-90452616D01*
X146495405Y-90433282D01*
X146176325Y-90477039D01*
X145871912Y-90582205D01*
X145697956Y-90675186D01*
X145602192Y-90939587D01*
X145234826Y-90939587D01*
X145100252Y-90805013D01*
X144832463Y-90626082D01*
X144534912Y-90502832D01*
X144219033Y-90440000D01*
X143896967Y-90440000D01*
X143581088Y-90502832D01*
X143283537Y-90626082D01*
X143015748Y-90805013D01*
X142788013Y-91032748D01*
X142711635Y-91147056D01*
X142443000Y-90878422D01*
X142443000Y-89821578D01*
X145654579Y-86610000D01*
X162701422Y-86610000D01*
X165012953Y-88921532D01*
X165012958Y-88921536D01*
X167263000Y-91171579D01*
X167263001Y-107271521D01*
X167258719Y-107315000D01*
X167275805Y-107488490D01*
X167326412Y-107655313D01*
X167408590Y-107809059D01*
X167491468Y-107910046D01*
X167491471Y-107910049D01*
X167519184Y-107943817D01*
X167552951Y-107971529D01*
X168761470Y-109180049D01*
X168789183Y-109213817D01*
X168822951Y-109241530D01*
X168822953Y-109241532D01*
X168845399Y-109259953D01*
X168923941Y-109324411D01*
X169077687Y-109406589D01*
X169244510Y-109457195D01*
X169374523Y-109470000D01*
X169374533Y-109470000D01*
X169417999Y-109474281D01*
X169461465Y-109470000D01*
X171577135Y-109470000D01*
X171591969Y-109497752D01*
X171796286Y-109746714D01*
X171928233Y-109855000D01*
X171796286Y-109963286D01*
X171591969Y-110212248D01*
X171440148Y-110496285D01*
X171346657Y-110804484D01*
X171315089Y-111125000D01*
X171346657Y-111445516D01*
X171440148Y-111753715D01*
X171591969Y-112037752D01*
X171796286Y-112286714D01*
X171928233Y-112395000D01*
X171796286Y-112503286D01*
X171591969Y-112752248D01*
X171440148Y-113036285D01*
X171346657Y-113344484D01*
X171315089Y-113665000D01*
X171346657Y-113985516D01*
X171440148Y-114293715D01*
X171591969Y-114577752D01*
X171796286Y-114826714D01*
X172045248Y-115031031D01*
X172329285Y-115182852D01*
X172343000Y-115187012D01*
X172343001Y-122188420D01*
X172316196Y-122215225D01*
X172251776Y-122195684D01*
X171958000Y-122166749D01*
X171664223Y-122195684D01*
X171381736Y-122281375D01*
X171121394Y-122420531D01*
X170893203Y-122607803D01*
X170705931Y-122835995D01*
X170688000Y-122869541D01*
X170670069Y-122835994D01*
X170482797Y-122607803D01*
X170254605Y-122420531D01*
X169994263Y-122281375D01*
X169711776Y-122195684D01*
X169418000Y-122166749D01*
X169124223Y-122195684D01*
X168841736Y-122281375D01*
X168581394Y-122420531D01*
X168353203Y-122607803D01*
X168165931Y-122835995D01*
X168148000Y-122869541D01*
X168130069Y-122835994D01*
X167942797Y-122607803D01*
X167714605Y-122420531D01*
X167454263Y-122281375D01*
X167171776Y-122195684D01*
X166878000Y-122166749D01*
X166584223Y-122195684D01*
X166301736Y-122281375D01*
X166041394Y-122420531D01*
X165813203Y-122607803D01*
X165625931Y-122835995D01*
X165608000Y-122869541D01*
X165590069Y-122835994D01*
X165402797Y-122607803D01*
X165174605Y-122420531D01*
X164914263Y-122281375D01*
X164631776Y-122195684D01*
X164338000Y-122166749D01*
X164044223Y-122195684D01*
X163761736Y-122281375D01*
X163501394Y-122420531D01*
X163273203Y-122607803D01*
X163085931Y-122835995D01*
X163068000Y-122869541D01*
X163050069Y-122835994D01*
X162862797Y-122607803D01*
X162683000Y-122460248D01*
X162683000Y-119111578D01*
X164193049Y-117601530D01*
X164226817Y-117573817D01*
X164302415Y-117481702D01*
X164337410Y-117439060D01*
X164376374Y-117366163D01*
X164419589Y-117285313D01*
X164470195Y-117118490D01*
X164483000Y-116988477D01*
X164483000Y-116988467D01*
X164487281Y-116945001D01*
X164483000Y-116901535D01*
X164483000Y-109408465D01*
X164487281Y-109364999D01*
X164483000Y-109321533D01*
X164483000Y-109321523D01*
X164470195Y-109191510D01*
X164419589Y-109024687D01*
X164337411Y-108870941D01*
X164226817Y-108736183D01*
X164193050Y-108708472D01*
X159664534Y-104179956D01*
X159636817Y-104146183D01*
X159502059Y-104035589D01*
X159348313Y-103953411D01*
X159181490Y-103902805D01*
X159051477Y-103890000D01*
X159051469Y-103890000D01*
X159008000Y-103885719D01*
X158964531Y-103890000D01*
X156823059Y-103890000D01*
X156717987Y-103732748D01*
X156490252Y-103505013D01*
X156222463Y-103326082D01*
X155924912Y-103202832D01*
X155609033Y-103140000D01*
X155286967Y-103140000D01*
X155101475Y-103176897D01*
X154783000Y-102858422D01*
X154783000Y-92640059D01*
X154940252Y-92534987D01*
X155074826Y-92400413D01*
X160442192Y-92400413D01*
X160537956Y-92664814D01*
X160827571Y-92805704D01*
X161139108Y-92887384D01*
X161460595Y-92906718D01*
X161779675Y-92862961D01*
X162084088Y-92757795D01*
X162258044Y-92664814D01*
X162353808Y-92400413D01*
X161398000Y-91444605D01*
X160442192Y-92400413D01*
X155074826Y-92400413D01*
X155167987Y-92307252D01*
X155346918Y-92039463D01*
X155470168Y-91741912D01*
X155533000Y-91426033D01*
X155533000Y-91327595D01*
X159756282Y-91327595D01*
X159800039Y-91646675D01*
X159905205Y-91951088D01*
X159998186Y-92125044D01*
X160262587Y-92220808D01*
X161218395Y-91265000D01*
X161577605Y-91265000D01*
X162533413Y-92220808D01*
X162797814Y-92125044D01*
X162938704Y-91835429D01*
X163020384Y-91523892D01*
X163039718Y-91202405D01*
X162995961Y-90883325D01*
X162890795Y-90578912D01*
X162797814Y-90404956D01*
X162533413Y-90309192D01*
X161577605Y-91265000D01*
X161218395Y-91265000D01*
X160262587Y-90309192D01*
X159998186Y-90404956D01*
X159857296Y-90694571D01*
X159775616Y-91006108D01*
X159756282Y-91327595D01*
X155533000Y-91327595D01*
X155533000Y-91103967D01*
X155470168Y-90788088D01*
X155346918Y-90490537D01*
X155167987Y-90222748D01*
X155074826Y-90129587D01*
X160442192Y-90129587D01*
X161398000Y-91085395D01*
X162353808Y-90129587D01*
X162258044Y-89865186D01*
X161968429Y-89724296D01*
X161656892Y-89642616D01*
X161335405Y-89623282D01*
X161016325Y-89667039D01*
X160711912Y-89772205D01*
X160537956Y-89865186D01*
X160442192Y-90129587D01*
X155074826Y-90129587D01*
X154940252Y-89995013D01*
X154672463Y-89816082D01*
X154374912Y-89692832D01*
X154059033Y-89630000D01*
X153736967Y-89630000D01*
X153421088Y-89692832D01*
X153123537Y-89816082D01*
X152855748Y-89995013D01*
X152628013Y-90222748D01*
X152449082Y-90490537D01*
X152325832Y-90788088D01*
X152263000Y-91103967D01*
X152263000Y-91426033D01*
X152325832Y-91741912D01*
X152449082Y-92039463D01*
X152628013Y-92307252D01*
X152855748Y-92534987D01*
X153013000Y-92640060D01*
X153013001Y-103181521D01*
X153008719Y-103225000D01*
X153025805Y-103398490D01*
X153076412Y-103565313D01*
X153158590Y-103719059D01*
X153241468Y-103820046D01*
X153241471Y-103820049D01*
X153269184Y-103853817D01*
X153302951Y-103881529D01*
X153849897Y-104428475D01*
X153813000Y-104613967D01*
X153813000Y-104936033D01*
X153875832Y-105251912D01*
X153999082Y-105549463D01*
X154178013Y-105817252D01*
X154405748Y-106044987D01*
X154673537Y-106223918D01*
X154971088Y-106347168D01*
X155286967Y-106410000D01*
X155609033Y-106410000D01*
X155924912Y-106347168D01*
X156222463Y-106223918D01*
X156490252Y-106044987D01*
X156717987Y-105817252D01*
X156823059Y-105660000D01*
X158641422Y-105660000D01*
X162713000Y-109731579D01*
X162713001Y-116578420D01*
X161202956Y-118088466D01*
X161169183Y-118116183D01*
X161058589Y-118250942D01*
X160976411Y-118404688D01*
X160925805Y-118571511D01*
X160913000Y-118701524D01*
X160913000Y-118701531D01*
X160908719Y-118745000D01*
X160913000Y-118788469D01*
X160913001Y-122460246D01*
X160733203Y-122607803D01*
X160545931Y-122835995D01*
X160406775Y-123096337D01*
X160321084Y-123378824D01*
X160299400Y-123598982D01*
X160299400Y-124051019D01*
X160321084Y-124271177D01*
X160406775Y-124553664D01*
X160545931Y-124814006D01*
X160733203Y-125042197D01*
X160961395Y-125229469D01*
X161221737Y-125368625D01*
X161504224Y-125454316D01*
X161798000Y-125483251D01*
X162091777Y-125454316D01*
X162374264Y-125368625D01*
X162634606Y-125229469D01*
X162862797Y-125042197D01*
X163050069Y-124814006D01*
X163068000Y-124780459D01*
X163085931Y-124814006D01*
X163273203Y-125042197D01*
X163501395Y-125229469D01*
X163761737Y-125368625D01*
X164044224Y-125454316D01*
X164338000Y-125483251D01*
X164631777Y-125454316D01*
X164914264Y-125368625D01*
X165174606Y-125229469D01*
X165402797Y-125042197D01*
X165590069Y-124814006D01*
X165608000Y-124780459D01*
X165625931Y-124814006D01*
X165813203Y-125042197D01*
X166041395Y-125229469D01*
X166301737Y-125368625D01*
X166584224Y-125454316D01*
X166878000Y-125483251D01*
X167171777Y-125454316D01*
X167454264Y-125368625D01*
X167714606Y-125229469D01*
X167942797Y-125042197D01*
X168130069Y-124814006D01*
X168148000Y-124780459D01*
X168165931Y-124814006D01*
X168353203Y-125042197D01*
X168581395Y-125229469D01*
X168841737Y-125368625D01*
X169124224Y-125454316D01*
X169418000Y-125483251D01*
X169711777Y-125454316D01*
X169994264Y-125368625D01*
X170254606Y-125229469D01*
X170482797Y-125042197D01*
X170670069Y-124814006D01*
X170688000Y-124780459D01*
X170705931Y-124814006D01*
X170893203Y-125042197D01*
X171121395Y-125229469D01*
X171381737Y-125368625D01*
X171664224Y-125454316D01*
X171958000Y-125483251D01*
X172251777Y-125454316D01*
X172534264Y-125368625D01*
X172794606Y-125229469D01*
X173022797Y-125042197D01*
X173210069Y-124814006D01*
X173228000Y-124780459D01*
X173245931Y-124814006D01*
X173433203Y-125042197D01*
X173661395Y-125229469D01*
X173921737Y-125368625D01*
X174204224Y-125454316D01*
X174498000Y-125483251D01*
X174791777Y-125454316D01*
X175074264Y-125368625D01*
X175334606Y-125229469D01*
X175562797Y-125042197D01*
X175750069Y-124814006D01*
X175889225Y-124553663D01*
X175974916Y-124271176D01*
X175996600Y-124051018D01*
X175996600Y-123598981D01*
X175974916Y-123378823D01*
X175889225Y-123096336D01*
X175750069Y-122835994D01*
X175562797Y-122607803D01*
X175377506Y-122455739D01*
X175370195Y-122381510D01*
X175319589Y-122214687D01*
X175237411Y-122060941D01*
X175140999Y-121943464D01*
X175140999Y-120619706D01*
X175337887Y-120816594D01*
X175774702Y-121108464D01*
X176260065Y-121309508D01*
X176775323Y-121412000D01*
X177300677Y-121412000D01*
X177815935Y-121309508D01*
X178301298Y-121108464D01*
X178738113Y-120816594D01*
X178868000Y-120686707D01*
X178868000Y-120990908D01*
X176560617Y-123298292D01*
X176533526Y-123320525D01*
X176511293Y-123347616D01*
X176444801Y-123428637D01*
X176378872Y-123551981D01*
X176338274Y-123685816D01*
X176324565Y-123825000D01*
X176328001Y-123859885D01*
X176328000Y-125655000D01*
X126909707Y-125655000D01*
X127039594Y-125525113D01*
X127331464Y-125088298D01*
X127532508Y-124602935D01*
X127635000Y-124087677D01*
X127635000Y-123562323D01*
X127532508Y-123047065D01*
X127331464Y-122561702D01*
X127039594Y-122124887D01*
X126668113Y-121753406D01*
X126231298Y-121461536D01*
X125745935Y-121260492D01*
X125230677Y-121158000D01*
X124705323Y-121158000D01*
X124190065Y-121260492D01*
X123704702Y-121461536D01*
X123267887Y-121753406D01*
X122896406Y-122124887D01*
X122604536Y-122561702D01*
X122403492Y-123047065D01*
X122301000Y-123562323D01*
X122301000Y-124087677D01*
X122403492Y-124602935D01*
X122604536Y-125088298D01*
X122896406Y-125525113D01*
X123026293Y-125655000D01*
X111708000Y-125655000D01*
X111708000Y-103343967D01*
X113173000Y-103343967D01*
X113173000Y-103666033D01*
X113235832Y-103981912D01*
X113359082Y-104279463D01*
X113538013Y-104547252D01*
X113765748Y-104774987D01*
X113923000Y-104880060D01*
X113923001Y-105939940D01*
X113765748Y-106045013D01*
X113538013Y-106272748D01*
X113359082Y-106540537D01*
X113235832Y-106838088D01*
X113173000Y-107153967D01*
X113173000Y-107476033D01*
X113235832Y-107791912D01*
X113359082Y-108089463D01*
X113538013Y-108357252D01*
X113765748Y-108584987D01*
X114033537Y-108763918D01*
X114331088Y-108887168D01*
X114646967Y-108950000D01*
X114969033Y-108950000D01*
X115284912Y-108887168D01*
X115582463Y-108763918D01*
X115850252Y-108584987D01*
X116077987Y-108357252D01*
X116256918Y-108089463D01*
X116380168Y-107791912D01*
X116443000Y-107476033D01*
X116443000Y-107153967D01*
X116380168Y-106838088D01*
X116256918Y-106540537D01*
X116077987Y-106272748D01*
X115850252Y-106045013D01*
X115693000Y-105939941D01*
X115693000Y-104880059D01*
X115850252Y-104774987D01*
X116077987Y-104547252D01*
X116256918Y-104279463D01*
X116380168Y-103981912D01*
X116443000Y-103666033D01*
X116443000Y-103343967D01*
X116380168Y-103028088D01*
X116256918Y-102730537D01*
X116077987Y-102462748D01*
X115850252Y-102235013D01*
X115582463Y-102056082D01*
X115284912Y-101932832D01*
X114969033Y-101870000D01*
X114646967Y-101870000D01*
X114331088Y-101932832D01*
X114033537Y-102056082D01*
X113765748Y-102235013D01*
X113538013Y-102462748D01*
X113359082Y-102730537D01*
X113235832Y-103028088D01*
X113173000Y-103343967D01*
X111708000Y-103343967D01*
X111708000Y-73735000D01*
X124296293Y-73735000D01*
X124166406Y-73864887D01*
G37*
%TD.AperFunction*%
%TD*%
M02*
