%TF.GenerationSoftware,KiCad,Pcbnew,(5.1.10)-1*%
%TF.CreationDate,2022-03-25T14:17:47+01:00*%
%TF.ProjectId,Kicad_capteur_graphite,4b696361-645f-4636-9170-746575725f67,rev?*%
%TF.SameCoordinates,Original*%
%TF.FileFunction,Copper,L1,Top*%
%TF.FilePolarity,Positive*%
%FSLAX46Y46*%
G04 Gerber Fmt 4.6, Leading zero omitted, Abs format (unit mm)*
G04 Created by KiCad (PCBNEW (5.1.10)-1) date 2022-03-25 14:17:47*
%MOMM*%
%LPD*%
G01*
G04 APERTURE LIST*
%TA.AperFunction,ComponentPad*%
%ADD10C,2.000000*%
%TD*%
%TA.AperFunction,ComponentPad*%
%ADD11O,2.540000X2.000000*%
%TD*%
%TA.AperFunction,ComponentPad*%
%ADD12R,2.000000X2.000000*%
%TD*%
%TA.AperFunction,ComponentPad*%
%ADD13O,2.000000X2.540000*%
%TD*%
%TA.AperFunction,ComponentPad*%
%ADD14O,1.727200X2.032000*%
%TD*%
%TA.AperFunction,ComponentPad*%
%ADD15C,4.064000*%
%TD*%
G04 APERTURE END LIST*
D10*
%TO.P,C4,2*%
%TO.N,ADC*%
X153898000Y-91265000D03*
%TO.P,C4,1*%
%TO.N,GND*%
X161398000Y-91265000D03*
%TD*%
%TO.P,C3,2*%
%TO.N,Net-(C3-Pad2)*%
X147828000Y-112435000D03*
%TO.P,C3,1*%
%TO.N,IN-*%
X147828000Y-114935000D03*
%TD*%
%TO.P,C2,2*%
%TO.N,+5V*%
X144058000Y-92075000D03*
%TO.P,C2,1*%
%TO.N,GND*%
X146558000Y-92075000D03*
%TD*%
%TO.P,C1,2*%
%TO.N,IN+*%
X127508000Y-109895000D03*
%TO.P,C1,1*%
%TO.N,GND*%
X127508000Y-112395000D03*
%TD*%
D11*
%TO.P,U4,5*%
%TO.N,GND*%
X171958000Y-92075000D03*
%TO.P,U4,4*%
%TO.N,+5V*%
X171958000Y-89535000D03*
%TO.P,U4,3*%
%TO.N,SWITCH*%
X171958000Y-86995000D03*
%TO.P,U4,2*%
%TO.N,DATA*%
X171958000Y-84455000D03*
%TO.P,U4,1*%
%TO.N,CLK*%
X171958000Y-81915000D03*
%TD*%
%TO.P,U3,4*%
%TO.N,GND*%
X127558000Y-97155000D03*
%TO.P,U3,5*%
%TO.N,Net-(U3-Pad5)*%
X135078000Y-97155000D03*
%TO.P,U3,3*%
%TO.N,IN+*%
X127558000Y-94615000D03*
%TO.P,U3,6*%
%TO.N,Net-(C3-Pad2)*%
X135078000Y-94615000D03*
%TO.P,U3,2*%
%TO.N,IN-*%
X127558000Y-92075000D03*
%TO.P,U3,7*%
%TO.N,+5V*%
X135078000Y-92075000D03*
D12*
%TO.P,U3,1*%
%TO.N,Net-(U3-Pad1)*%
X127558000Y-89535000D03*
D11*
%TO.P,U3,8*%
%TO.N,Net-(U3-Pad8)*%
X135078000Y-89535000D03*
%TD*%
D13*
%TO.P,U2,6*%
%TO.N,N/C*%
X152908000Y-80645000D03*
%TO.P,U2,5*%
X150368000Y-80645000D03*
%TO.P,U2,4*%
%TO.N,TX*%
X147828000Y-80645000D03*
%TO.P,U2,3*%
%TO.N,RX*%
X145288000Y-80645000D03*
%TO.P,U2,2*%
%TO.N,GND*%
X142748000Y-80645000D03*
%TO.P,U2,1*%
%TO.N,+5V*%
X140208000Y-80645000D03*
%TD*%
D11*
%TO.P,U1,4*%
%TO.N,SDA*%
X173228000Y-113665000D03*
%TO.P,U1,3*%
%TO.N,SCK*%
X173228000Y-111125000D03*
%TO.P,U1,2*%
%TO.N,+5V*%
X173228000Y-108585000D03*
%TO.P,U1,1*%
%TO.N,GND*%
X173228000Y-106045000D03*
%TD*%
D10*
%TO.P,R6,2*%
%TO.N,IN-*%
X152908000Y-114935000D03*
%TO.P,R6,1*%
%TO.N,GND*%
X160528000Y-114935000D03*
%TD*%
%TO.P,R5,2*%
%TO.N,Net-(C3-Pad2)*%
X147828000Y-104775000D03*
%TO.P,R5,1*%
%TO.N,ADC*%
X155448000Y-104775000D03*
%TD*%
%TO.P,R4,2*%
%TO.N,IN-*%
X142748000Y-114935000D03*
%TO.P,R4,1*%
%TO.N,Net-(C3-Pad2)*%
X142748000Y-107315000D03*
%TD*%
%TO.P,R3,2*%
%TO.N,GND*%
X133858000Y-114935000D03*
%TO.P,R3,1*%
%TO.N,IN+*%
X133858000Y-107315000D03*
%TD*%
%TO.P,R2,2*%
%TO.N,Net-(R1-Pad2)*%
X114808000Y-107315000D03*
%TO.P,R2,1*%
%TO.N,IN+*%
X122428000Y-107315000D03*
%TD*%
%TO.P,R1,2*%
%TO.N,Net-(R1-Pad2)*%
X114808000Y-103505000D03*
%TO.P,R1,1*%
%TO.N,+5V*%
X114808000Y-95885000D03*
%TD*%
D14*
%TO.P,P1,1*%
%TO.N,Net-(P1-Pad1)*%
X138938000Y-123825000D03*
%TO.P,P1,2*%
%TO.N,/IOREF*%
X141478000Y-123825000D03*
%TO.P,P1,3*%
%TO.N,/Reset*%
X144018000Y-123825000D03*
%TO.P,P1,4*%
%TO.N,+3V3*%
X146558000Y-123825000D03*
%TO.P,P1,5*%
%TO.N,+5V*%
X149098000Y-123825000D03*
%TO.P,P1,6*%
%TO.N,GND*%
X151638000Y-123825000D03*
%TO.P,P1,7*%
X154178000Y-123825000D03*
%TO.P,P1,8*%
%TO.N,/Vin*%
X156718000Y-123825000D03*
%TD*%
%TO.P,P2,1*%
%TO.N,ADC*%
X161798000Y-123825000D03*
%TO.P,P2,2*%
%TO.N,/A1*%
X164338000Y-123825000D03*
%TO.P,P2,3*%
%TO.N,/A2*%
X166878000Y-123825000D03*
%TO.P,P2,4*%
%TO.N,/A3*%
X169418000Y-123825000D03*
%TO.P,P2,5*%
%TO.N,SDA*%
X171958000Y-123825000D03*
%TO.P,P2,6*%
%TO.N,SCK*%
X174498000Y-123825000D03*
%TD*%
%TO.P,P3,1*%
%TO.N,/A5_SCL*%
X129794000Y-75565000D03*
%TO.P,P3,2*%
%TO.N,/A4_SDA*%
X132334000Y-75565000D03*
%TO.P,P3,3*%
%TO.N,/AREF*%
X134874000Y-75565000D03*
%TO.P,P3,4*%
%TO.N,GND*%
X137414000Y-75565000D03*
%TO.P,P3,5*%
%TO.N,/13(SCK)*%
X139954000Y-75565000D03*
%TO.P,P3,6*%
%TO.N,/12(MISO)*%
X142494000Y-75565000D03*
%TO.P,P3,7*%
%TO.N,RX*%
X145034000Y-75565000D03*
%TO.P,P3,8*%
%TO.N,TX*%
X147574000Y-75565000D03*
%TO.P,P3,9*%
%TO.N,/9(\u002A\u002A)*%
X150114000Y-75565000D03*
%TO.P,P3,10*%
%TO.N,/8*%
X152654000Y-75565000D03*
%TD*%
%TO.P,P4,1*%
%TO.N,/7*%
X156718000Y-75565000D03*
%TO.P,P4,2*%
%TO.N,/6(\u002A\u002A)*%
X159258000Y-75565000D03*
%TO.P,P4,3*%
%TO.N,/5(\u002A\u002A)*%
X161798000Y-75565000D03*
%TO.P,P4,4*%
%TO.N,SWITCH*%
X164338000Y-75565000D03*
%TO.P,P4,5*%
%TO.N,DATA*%
X166878000Y-75565000D03*
%TO.P,P4,6*%
%TO.N,CLK*%
X169418000Y-75565000D03*
%TO.P,P4,7*%
%TO.N,/1(Tx)*%
X171958000Y-75565000D03*
%TO.P,P4,8*%
%TO.N,/0(Rx)*%
X174498000Y-75565000D03*
%TD*%
D15*
%TO.P,P5,1*%
%TO.N,Net-(P5-Pad1)*%
X124968000Y-123825000D03*
%TD*%
%TO.P,P6,1*%
%TO.N,Net-(P6-Pad1)*%
X177038000Y-118745000D03*
%TD*%
%TO.P,P7,1*%
%TO.N,Net-(P7-Pad1)*%
X126238000Y-75565000D03*
%TD*%
%TO.P,P8,1*%
%TO.N,Net-(P8-Pad1)*%
X177038000Y-90805000D03*
%TD*%
M02*
