%TF.GenerationSoftware,KiCad,Pcbnew,(5.1.10)-1*%
%TF.CreationDate,2022-03-18T17:30:20+01:00*%
%TF.ProjectId,Kicad_capteur_graphite,4b696361-645f-4636-9170-746575725f67,rev?*%
%TF.SameCoordinates,Original*%
%TF.FileFunction,Copper,L2,Bot*%
%TF.FilePolarity,Positive*%
%FSLAX46Y46*%
G04 Gerber Fmt 4.6, Leading zero omitted, Abs format (unit mm)*
G04 Created by KiCad (PCBNEW (5.1.10)-1) date 2022-03-18 17:30:20*
%MOMM*%
%LPD*%
G01*
G04 APERTURE LIST*
%TA.AperFunction,ComponentPad*%
%ADD10C,1.600000*%
%TD*%
%TA.AperFunction,ComponentPad*%
%ADD11O,2.540000X2.000000*%
%TD*%
%TA.AperFunction,ComponentPad*%
%ADD12R,2.000000X2.000000*%
%TD*%
%TA.AperFunction,ComponentPad*%
%ADD13O,2.000000X2.540000*%
%TD*%
%TA.AperFunction,ComponentPad*%
%ADD14O,1.400000X1.400000*%
%TD*%
%TA.AperFunction,ComponentPad*%
%ADD15C,1.400000*%
%TD*%
%TA.AperFunction,ComponentPad*%
%ADD16O,1.727200X2.032000*%
%TD*%
%TA.AperFunction,ComponentPad*%
%ADD17C,4.064000*%
%TD*%
%TA.AperFunction,Conductor*%
%ADD18C,0.500000*%
%TD*%
%TA.AperFunction,Conductor*%
%ADD19C,0.254000*%
%TD*%
%TA.AperFunction,Conductor*%
%ADD20C,0.100000*%
%TD*%
G04 APERTURE END LIST*
D10*
%TO.P,C4,2*%
%TO.N,ADC*%
X153898000Y-91265000D03*
%TO.P,C4,1*%
%TO.N,GND*%
X161398000Y-91265000D03*
%TD*%
%TO.P,C3,2*%
%TO.N,Net-(C3-Pad2)*%
X147828000Y-112435000D03*
%TO.P,C3,1*%
%TO.N,IN-*%
X147828000Y-114935000D03*
%TD*%
%TO.P,C2,2*%
%TO.N,+5V*%
X144058000Y-92075000D03*
%TO.P,C2,1*%
%TO.N,GND*%
X146558000Y-92075000D03*
%TD*%
%TO.P,C1,2*%
%TO.N,IN+*%
X127508000Y-109895000D03*
%TO.P,C1,1*%
%TO.N,GND*%
X127508000Y-112395000D03*
%TD*%
D11*
%TO.P,U4,5*%
%TO.N,GND*%
X171958000Y-92075000D03*
%TO.P,U4,4*%
%TO.N,+5V*%
X171958000Y-89535000D03*
%TO.P,U4,3*%
%TO.N,SWITCH*%
X171958000Y-86995000D03*
%TO.P,U4,2*%
%TO.N,DATA*%
X171958000Y-84455000D03*
%TO.P,U4,1*%
%TO.N,CLK*%
X171958000Y-81915000D03*
%TD*%
%TO.P,U3,4*%
%TO.N,GND*%
X127558000Y-97155000D03*
%TO.P,U3,5*%
%TO.N,Net-(U3-Pad5)*%
X135078000Y-97155000D03*
%TO.P,U3,3*%
%TO.N,IN+*%
X127558000Y-94615000D03*
%TO.P,U3,6*%
%TO.N,Net-(C3-Pad2)*%
X135078000Y-94615000D03*
%TO.P,U3,2*%
%TO.N,IN-*%
X127558000Y-92075000D03*
%TO.P,U3,7*%
%TO.N,+5V*%
X135078000Y-92075000D03*
D12*
%TO.P,U3,1*%
%TO.N,Net-(U3-Pad1)*%
X127558000Y-89535000D03*
D11*
%TO.P,U3,8*%
%TO.N,Net-(U3-Pad8)*%
X135078000Y-89535000D03*
%TD*%
D13*
%TO.P,U2,6*%
%TO.N,N/C*%
X152908000Y-80645000D03*
%TO.P,U2,5*%
X150368000Y-80645000D03*
%TO.P,U2,4*%
%TO.N,TX*%
X147828000Y-80645000D03*
%TO.P,U2,3*%
%TO.N,RX*%
X145288000Y-80645000D03*
%TO.P,U2,2*%
%TO.N,GND*%
X142748000Y-80645000D03*
%TO.P,U2,1*%
%TO.N,+5V*%
X140208000Y-80645000D03*
%TD*%
D11*
%TO.P,U1,4*%
%TO.N,SDA*%
X173228000Y-113665000D03*
%TO.P,U1,3*%
%TO.N,SCK*%
X173228000Y-111125000D03*
%TO.P,U1,2*%
%TO.N,+5V*%
X173228000Y-108585000D03*
%TO.P,U1,1*%
%TO.N,GND*%
X173228000Y-106045000D03*
%TD*%
D14*
%TO.P,R6,2*%
%TO.N,IN-*%
X152908000Y-114935000D03*
D15*
%TO.P,R6,1*%
%TO.N,GND*%
X160528000Y-114935000D03*
%TD*%
D14*
%TO.P,R5,2*%
%TO.N,Net-(C3-Pad2)*%
X147828000Y-104775000D03*
D15*
%TO.P,R5,1*%
%TO.N,ADC*%
X155448000Y-104775000D03*
%TD*%
D14*
%TO.P,R4,2*%
%TO.N,IN-*%
X142748000Y-114935000D03*
D15*
%TO.P,R4,1*%
%TO.N,Net-(C3-Pad2)*%
X142748000Y-107315000D03*
%TD*%
D14*
%TO.P,R3,2*%
%TO.N,GND*%
X133858000Y-114935000D03*
D15*
%TO.P,R3,1*%
%TO.N,IN+*%
X133858000Y-107315000D03*
%TD*%
D14*
%TO.P,R2,2*%
%TO.N,Net-(R1-Pad2)*%
X114808000Y-107315000D03*
D15*
%TO.P,R2,1*%
%TO.N,IN+*%
X122428000Y-107315000D03*
%TD*%
D14*
%TO.P,R1,2*%
%TO.N,Net-(R1-Pad2)*%
X114808000Y-103505000D03*
D15*
%TO.P,R1,1*%
%TO.N,+5V*%
X114808000Y-95885000D03*
%TD*%
D16*
%TO.P,P1,1*%
%TO.N,Net-(P1-Pad1)*%
X138938000Y-123825000D03*
%TO.P,P1,2*%
%TO.N,/IOREF*%
X141478000Y-123825000D03*
%TO.P,P1,3*%
%TO.N,/Reset*%
X144018000Y-123825000D03*
%TO.P,P1,4*%
%TO.N,+3V3*%
X146558000Y-123825000D03*
%TO.P,P1,5*%
%TO.N,+5V*%
X149098000Y-123825000D03*
%TO.P,P1,6*%
%TO.N,GND*%
X151638000Y-123825000D03*
%TO.P,P1,7*%
X154178000Y-123825000D03*
%TO.P,P1,8*%
%TO.N,/Vin*%
X156718000Y-123825000D03*
%TD*%
%TO.P,P2,1*%
%TO.N,ADC*%
X161798000Y-123825000D03*
%TO.P,P2,2*%
%TO.N,/A1*%
X164338000Y-123825000D03*
%TO.P,P2,3*%
%TO.N,/A2*%
X166878000Y-123825000D03*
%TO.P,P2,4*%
%TO.N,/A3*%
X169418000Y-123825000D03*
%TO.P,P2,5*%
%TO.N,SDA*%
X171958000Y-123825000D03*
%TO.P,P2,6*%
%TO.N,SCK*%
X174498000Y-123825000D03*
%TD*%
%TO.P,P3,1*%
%TO.N,/A5_SCL*%
X129794000Y-75565000D03*
%TO.P,P3,2*%
%TO.N,/A4_SDA*%
X132334000Y-75565000D03*
%TO.P,P3,3*%
%TO.N,/AREF*%
X134874000Y-75565000D03*
%TO.P,P3,4*%
%TO.N,GND*%
X137414000Y-75565000D03*
%TO.P,P3,5*%
%TO.N,/13(SCK)*%
X139954000Y-75565000D03*
%TO.P,P3,6*%
%TO.N,/12(MISO)*%
X142494000Y-75565000D03*
%TO.P,P3,7*%
%TO.N,RX*%
X145034000Y-75565000D03*
%TO.P,P3,8*%
%TO.N,TX*%
X147574000Y-75565000D03*
%TO.P,P3,9*%
%TO.N,/9(\u002A\u002A)*%
X150114000Y-75565000D03*
%TO.P,P3,10*%
%TO.N,/8*%
X152654000Y-75565000D03*
%TD*%
%TO.P,P4,1*%
%TO.N,/7*%
X156718000Y-75565000D03*
%TO.P,P4,2*%
%TO.N,/6(\u002A\u002A)*%
X159258000Y-75565000D03*
%TO.P,P4,3*%
%TO.N,/5(\u002A\u002A)*%
X161798000Y-75565000D03*
%TO.P,P4,4*%
%TO.N,SWITCH*%
X164338000Y-75565000D03*
%TO.P,P4,5*%
%TO.N,DATA*%
X166878000Y-75565000D03*
%TO.P,P4,6*%
%TO.N,CLK*%
X169418000Y-75565000D03*
%TO.P,P4,7*%
%TO.N,/1(Tx)*%
X171958000Y-75565000D03*
%TO.P,P4,8*%
%TO.N,/0(Rx)*%
X174498000Y-75565000D03*
%TD*%
D17*
%TO.P,P5,1*%
%TO.N,Net-(P5-Pad1)*%
X124968000Y-123825000D03*
%TD*%
%TO.P,P6,1*%
%TO.N,Net-(P6-Pad1)*%
X177038000Y-118745000D03*
%TD*%
%TO.P,P7,1*%
%TO.N,Net-(P7-Pad1)*%
X126238000Y-75565000D03*
%TD*%
%TO.P,P8,1*%
%TO.N,Net-(P8-Pad1)*%
X177038000Y-90805000D03*
%TD*%
D18*
%TO.N,+5V*%
X140208000Y-88265000D02*
X141558000Y-89615000D01*
X168148000Y-90805000D02*
X165608000Y-88265000D01*
X133858000Y-92075000D02*
X135078000Y-92075000D01*
X114808000Y-95885000D02*
X117348000Y-95885000D01*
X117348000Y-95885000D02*
X118618000Y-97155000D01*
X118618000Y-108585000D02*
X119888000Y-109855000D01*
X123698000Y-113665000D02*
X124968000Y-114935000D01*
X119888000Y-109855000D02*
X122428000Y-109855000D01*
X122428000Y-109855000D02*
X123698000Y-111125000D01*
X123698000Y-111125000D02*
X123698000Y-113665000D01*
X130048000Y-114935000D02*
X132588000Y-112395000D01*
X124968000Y-114935000D02*
X130048000Y-114935000D01*
X135128000Y-112395000D02*
X140208000Y-117475000D01*
X132588000Y-112395000D02*
X135128000Y-112395000D01*
X149098000Y-122555000D02*
X149098000Y-123825000D01*
X118618000Y-97155000D02*
X118618000Y-108585000D01*
X144018000Y-117475000D02*
X149098000Y-122555000D01*
X140208000Y-117475000D02*
X144018000Y-117475000D01*
X163068000Y-85725000D02*
X165608000Y-88265000D01*
X145288000Y-85725000D02*
X163068000Y-85725000D01*
X141558000Y-89455000D02*
X145288000Y-85725000D01*
X141558000Y-89615000D02*
X141558000Y-89455000D01*
X140208000Y-88265000D02*
X140208000Y-80645000D01*
X168148000Y-90805000D02*
X169418000Y-89535000D01*
X169418000Y-89535000D02*
X171958000Y-89535000D01*
X169418000Y-108585000D02*
X170688000Y-108585000D01*
X168148000Y-107315000D02*
X169418000Y-108585000D01*
X168148000Y-90805000D02*
X168148000Y-107315000D01*
X170688000Y-108585000D02*
X173228000Y-108585000D01*
X140708000Y-92075000D02*
X141558000Y-91225000D01*
X140208000Y-92075000D02*
X140708000Y-92075000D01*
X141558000Y-89615000D02*
X141558000Y-91225000D01*
X135078000Y-92075000D02*
X140208000Y-92075000D01*
X141558000Y-91245000D02*
X142388000Y-92075000D01*
X141558000Y-91225000D02*
X141558000Y-91245000D01*
X142388000Y-92075000D02*
X144058000Y-92075000D01*
X130608000Y-92075000D02*
X135078000Y-92075000D01*
X129998000Y-91465000D02*
X130608000Y-92075000D01*
X129998000Y-88624998D02*
X129998000Y-91465000D01*
X129138002Y-87765000D02*
X129998000Y-88624998D01*
X125898000Y-87765000D02*
X129138002Y-87765000D01*
X124968000Y-88695000D02*
X125898000Y-87765000D01*
X124968000Y-93345000D02*
X124968000Y-88695000D01*
X122428000Y-95885000D02*
X124968000Y-93345000D01*
X117348000Y-95885000D02*
X122428000Y-95885000D01*
%TO.N,IN+*%
X133778000Y-107395000D02*
X133858000Y-107315000D01*
X125748000Y-107315000D02*
X126248000Y-107315000D01*
X122428000Y-107315000D02*
X125748000Y-107315000D01*
X125748000Y-107315000D02*
X127428000Y-107315000D01*
X127508000Y-108575000D02*
X127508000Y-109895000D01*
X126248000Y-107315000D02*
X127508000Y-108575000D01*
X128778000Y-94615000D02*
X130048000Y-95885000D01*
X127558000Y-94615000D02*
X128778000Y-94615000D01*
X127428000Y-107315000D02*
X129348000Y-107315000D01*
X132433774Y-107315000D02*
X132648000Y-107315000D01*
X130048000Y-95885000D02*
X130048000Y-104929226D01*
X130048000Y-104929226D02*
X132433774Y-107315000D01*
X132648000Y-107315000D02*
X133858000Y-107315000D01*
X129348000Y-107315000D02*
X132648000Y-107315000D01*
%TO.N,Net-(C3-Pad2)*%
X142748000Y-107315000D02*
X145288000Y-107315000D01*
X146558000Y-107315000D02*
X145288000Y-107315000D01*
X146558000Y-107315000D02*
X147828000Y-106045000D01*
X147828000Y-106045000D02*
X147828000Y-104775000D01*
X142748000Y-111715000D02*
X142748000Y-107315000D01*
X143468000Y-112435000D02*
X142748000Y-111715000D01*
X147828000Y-112435000D02*
X143468000Y-112435000D01*
X132968010Y-94615000D02*
X135078000Y-94615000D01*
X135012217Y-104764990D02*
X132797990Y-104764990D01*
X132318010Y-95265000D02*
X132968010Y-94615000D01*
X132797990Y-104764990D02*
X132318010Y-104285010D01*
X136698010Y-111065010D02*
X136698010Y-106450783D01*
X132318010Y-104285010D02*
X132318010Y-95265000D01*
X139567990Y-113934990D02*
X136698010Y-111065010D01*
X136698010Y-106450783D02*
X135012217Y-104764990D01*
X141028010Y-113934990D02*
X139567990Y-113934990D01*
X142748000Y-112215000D02*
X141028010Y-113934990D01*
X142748000Y-111715000D02*
X142748000Y-112215000D01*
%TO.N,IN-*%
X142748000Y-114935000D02*
X147828000Y-114935000D01*
X152908000Y-114935000D02*
X147828000Y-114935000D01*
X131318000Y-94615000D02*
X128778000Y-92075000D01*
X128778000Y-92075000D02*
X127558000Y-92075000D01*
X142748000Y-114935000D02*
X141478000Y-114935000D01*
X131318000Y-94615000D02*
X131318000Y-104785000D01*
X131318000Y-104785000D02*
X132298000Y-105765000D01*
X132298000Y-105765000D02*
X134598000Y-105765000D01*
X134598000Y-105765000D02*
X135698000Y-106865000D01*
X135698000Y-106865000D02*
X135698000Y-111550773D01*
X139082227Y-114935000D02*
X141478000Y-114935000D01*
X135698000Y-111550773D02*
X139082227Y-114935000D01*
%TO.N,ADC*%
X161798000Y-118745000D02*
X161798000Y-123825000D01*
X153898000Y-103225000D02*
X155448000Y-104775000D01*
X153898000Y-91265000D02*
X153898000Y-103225000D01*
X155448000Y-104775000D02*
X159008000Y-104775000D01*
X159008000Y-104775000D02*
X163598000Y-109365000D01*
X163598000Y-116945000D02*
X161798000Y-118745000D01*
X163598000Y-109365000D02*
X163598000Y-116945000D01*
%TO.N,SDA*%
X173228000Y-122555000D02*
X171958000Y-123825000D01*
X173228000Y-113665000D02*
X173228000Y-122555000D01*
%TO.N,SCK*%
X174255999Y-123582999D02*
X174498000Y-123825000D01*
X174498000Y-122555000D02*
X174498000Y-123825000D01*
X173228000Y-111125000D02*
X174498000Y-111125000D01*
X174498000Y-111125000D02*
X175768000Y-112395000D01*
X174255999Y-117409639D02*
X174255999Y-122312999D01*
X175768000Y-115897638D02*
X174255999Y-117409639D01*
X175768000Y-112395000D02*
X175768000Y-115897638D01*
%TO.N,RX*%
X145034000Y-80391000D02*
X145288000Y-80645000D01*
X145034000Y-75565000D02*
X145034000Y-80391000D01*
%TO.N,TX*%
X147574000Y-80391000D02*
X147828000Y-80645000D01*
X147574000Y-75565000D02*
X147574000Y-80391000D01*
%TO.N,CLK*%
X171958000Y-81915000D02*
X170688000Y-81915000D01*
X169418000Y-80645000D02*
X169418000Y-75565000D01*
X170688000Y-81915000D02*
X169418000Y-80645000D01*
%TO.N,DATA*%
X171958000Y-84455000D02*
X171688000Y-84455000D01*
X166878000Y-76835000D02*
X166878000Y-75565000D01*
X168398000Y-78355000D02*
X166878000Y-76835000D01*
X168398000Y-81039227D02*
X168398000Y-78355000D01*
X169798000Y-82439227D02*
X168398000Y-81039227D01*
X170588000Y-84455000D02*
X169798000Y-83665000D01*
X169798000Y-83665000D02*
X169798000Y-82439227D01*
X171958000Y-84455000D02*
X170588000Y-84455000D01*
%TO.N,SWITCH*%
X164338000Y-76835000D02*
X164338000Y-75565000D01*
X165368000Y-77865000D02*
X164338000Y-76835000D01*
X166493774Y-77865000D02*
X165368000Y-77865000D01*
X168798000Y-82853453D02*
X167397990Y-81453444D01*
X168798000Y-84079227D02*
X168798000Y-82853453D01*
X169898000Y-85179227D02*
X168798000Y-84079227D01*
X167397990Y-78769216D02*
X166493774Y-77865000D01*
X169898000Y-86065000D02*
X169898000Y-85179227D01*
X167397990Y-81453444D02*
X167397990Y-78769216D01*
X170828000Y-86995000D02*
X169898000Y-86065000D01*
X171958000Y-86995000D02*
X170828000Y-86995000D01*
%TO.N,Net-(R1-Pad2)*%
X114808000Y-103505000D02*
X114808000Y-107315000D01*
%TD*%
D19*
%TO.N,GND*%
X124166406Y-73864887D02*
X123874536Y-74301702D01*
X123673492Y-74787065D01*
X123571000Y-75302323D01*
X123571000Y-75827677D01*
X123673492Y-76342935D01*
X123874536Y-76828298D01*
X124166406Y-77265113D01*
X124537887Y-77636594D01*
X124974702Y-77928464D01*
X125460065Y-78129508D01*
X125975323Y-78232000D01*
X126500677Y-78232000D01*
X127015935Y-78129508D01*
X127501298Y-77928464D01*
X127938113Y-77636594D01*
X128309594Y-77265113D01*
X128601464Y-76828298D01*
X128657001Y-76694219D01*
X128729203Y-76782197D01*
X128957395Y-76969469D01*
X129217737Y-77108625D01*
X129500224Y-77194316D01*
X129794000Y-77223251D01*
X130087777Y-77194316D01*
X130370264Y-77108625D01*
X130630606Y-76969469D01*
X130858797Y-76782197D01*
X131046069Y-76554006D01*
X131064000Y-76520459D01*
X131081931Y-76554006D01*
X131269203Y-76782197D01*
X131497395Y-76969469D01*
X131757737Y-77108625D01*
X132040224Y-77194316D01*
X132334000Y-77223251D01*
X132627777Y-77194316D01*
X132910264Y-77108625D01*
X133170606Y-76969469D01*
X133398797Y-76782197D01*
X133586069Y-76554006D01*
X133604000Y-76520459D01*
X133621931Y-76554006D01*
X133809203Y-76782197D01*
X134037395Y-76969469D01*
X134297737Y-77108625D01*
X134580224Y-77194316D01*
X134874000Y-77223251D01*
X135167777Y-77194316D01*
X135450264Y-77108625D01*
X135710606Y-76969469D01*
X135938797Y-76782197D01*
X136126069Y-76554006D01*
X136147424Y-76514053D01*
X136295514Y-76716729D01*
X136511965Y-76915733D01*
X136763081Y-77068686D01*
X137039211Y-77169709D01*
X137054974Y-77172358D01*
X137287000Y-77051217D01*
X137287000Y-75692000D01*
X137267000Y-75692000D01*
X137267000Y-75438000D01*
X137287000Y-75438000D01*
X137287000Y-74078783D01*
X137541000Y-74078783D01*
X137541000Y-75438000D01*
X137561000Y-75438000D01*
X137561000Y-75692000D01*
X137541000Y-75692000D01*
X137541000Y-77051217D01*
X137773026Y-77172358D01*
X137788789Y-77169709D01*
X138064919Y-77068686D01*
X138316035Y-76915733D01*
X138532486Y-76716729D01*
X138680576Y-76514053D01*
X138701931Y-76554006D01*
X138889203Y-76782197D01*
X139117395Y-76969469D01*
X139377737Y-77108625D01*
X139660224Y-77194316D01*
X139954000Y-77223251D01*
X140247777Y-77194316D01*
X140530264Y-77108625D01*
X140790606Y-76969469D01*
X141018797Y-76782197D01*
X141206069Y-76554006D01*
X141224000Y-76520459D01*
X141241931Y-76554006D01*
X141429203Y-76782197D01*
X141657395Y-76969469D01*
X141917737Y-77108625D01*
X142200224Y-77194316D01*
X142494000Y-77223251D01*
X142787777Y-77194316D01*
X143070264Y-77108625D01*
X143330606Y-76969469D01*
X143558797Y-76782197D01*
X143746069Y-76554006D01*
X143764000Y-76520459D01*
X143781931Y-76554006D01*
X143969203Y-76782197D01*
X144149000Y-76929753D01*
X144149001Y-79194645D01*
X144126286Y-79213286D01*
X144019716Y-79343143D01*
X143814317Y-79129078D01*
X143550761Y-78944990D01*
X143256355Y-78815856D01*
X143128434Y-78784876D01*
X142875000Y-78904223D01*
X142875000Y-80518000D01*
X142895000Y-80518000D01*
X142895000Y-80772000D01*
X142875000Y-80772000D01*
X142875000Y-82385777D01*
X143128434Y-82505124D01*
X143256355Y-82474144D01*
X143550761Y-82345010D01*
X143814317Y-82160922D01*
X144019716Y-81946858D01*
X144126286Y-82076714D01*
X144375249Y-82281031D01*
X144659286Y-82432852D01*
X144967485Y-82526343D01*
X145288000Y-82557911D01*
X145608516Y-82526343D01*
X145916715Y-82432852D01*
X146200752Y-82281031D01*
X146449714Y-82076714D01*
X146558000Y-81944767D01*
X146666286Y-82076714D01*
X146915249Y-82281031D01*
X147199286Y-82432852D01*
X147507485Y-82526343D01*
X147828000Y-82557911D01*
X148148516Y-82526343D01*
X148456715Y-82432852D01*
X148740752Y-82281031D01*
X148989714Y-82076714D01*
X149098000Y-81944767D01*
X149206286Y-82076714D01*
X149455249Y-82281031D01*
X149739286Y-82432852D01*
X150047485Y-82526343D01*
X150368000Y-82557911D01*
X150688516Y-82526343D01*
X150996715Y-82432852D01*
X151280752Y-82281031D01*
X151529714Y-82076714D01*
X151638000Y-81944767D01*
X151746286Y-82076714D01*
X151995249Y-82281031D01*
X152279286Y-82432852D01*
X152587485Y-82526343D01*
X152908000Y-82557911D01*
X153228516Y-82526343D01*
X153536715Y-82432852D01*
X153820752Y-82281031D01*
X154069714Y-82076714D01*
X154274031Y-81827752D01*
X154425852Y-81543715D01*
X154519343Y-81235515D01*
X154543000Y-80995321D01*
X154543000Y-80294678D01*
X154519343Y-80054484D01*
X154425852Y-79746285D01*
X154274031Y-79462248D01*
X154069714Y-79213286D01*
X153820751Y-79008969D01*
X153536714Y-78857148D01*
X153228515Y-78763657D01*
X152908000Y-78732089D01*
X152587484Y-78763657D01*
X152279285Y-78857148D01*
X151995248Y-79008969D01*
X151746286Y-79213286D01*
X151638000Y-79345234D01*
X151529714Y-79213286D01*
X151280751Y-79008969D01*
X150996714Y-78857148D01*
X150688515Y-78763657D01*
X150368000Y-78732089D01*
X150047484Y-78763657D01*
X149739285Y-78857148D01*
X149455248Y-79008969D01*
X149206286Y-79213286D01*
X149098000Y-79345234D01*
X148989714Y-79213286D01*
X148740751Y-79008969D01*
X148459000Y-78858370D01*
X148459000Y-76929753D01*
X148638797Y-76782197D01*
X148826069Y-76554006D01*
X148844000Y-76520459D01*
X148861931Y-76554006D01*
X149049203Y-76782197D01*
X149277395Y-76969469D01*
X149537737Y-77108625D01*
X149820224Y-77194316D01*
X150114000Y-77223251D01*
X150407777Y-77194316D01*
X150690264Y-77108625D01*
X150950606Y-76969469D01*
X151178797Y-76782197D01*
X151366069Y-76554006D01*
X151384000Y-76520459D01*
X151401931Y-76554006D01*
X151589203Y-76782197D01*
X151817395Y-76969469D01*
X152077737Y-77108625D01*
X152360224Y-77194316D01*
X152654000Y-77223251D01*
X152947777Y-77194316D01*
X153230264Y-77108625D01*
X153490606Y-76969469D01*
X153718797Y-76782197D01*
X153906069Y-76554006D01*
X154045225Y-76293663D01*
X154130916Y-76011176D01*
X154152600Y-75791018D01*
X154152600Y-75338981D01*
X154130916Y-75118823D01*
X154045225Y-74836336D01*
X153906069Y-74575994D01*
X153718797Y-74347803D01*
X153490605Y-74160531D01*
X153230263Y-74021375D01*
X152947776Y-73935684D01*
X152654000Y-73906749D01*
X152360223Y-73935684D01*
X152077736Y-74021375D01*
X151817394Y-74160531D01*
X151589203Y-74347803D01*
X151401931Y-74575995D01*
X151384000Y-74609541D01*
X151366069Y-74575994D01*
X151178797Y-74347803D01*
X150950605Y-74160531D01*
X150690263Y-74021375D01*
X150407776Y-73935684D01*
X150114000Y-73906749D01*
X149820223Y-73935684D01*
X149537736Y-74021375D01*
X149277394Y-74160531D01*
X149049203Y-74347803D01*
X148861931Y-74575995D01*
X148844000Y-74609541D01*
X148826069Y-74575994D01*
X148638797Y-74347803D01*
X148410605Y-74160531D01*
X148150263Y-74021375D01*
X147867776Y-73935684D01*
X147574000Y-73906749D01*
X147280223Y-73935684D01*
X146997736Y-74021375D01*
X146737394Y-74160531D01*
X146509203Y-74347803D01*
X146321931Y-74575995D01*
X146304000Y-74609541D01*
X146286069Y-74575994D01*
X146098797Y-74347803D01*
X145870605Y-74160531D01*
X145610263Y-74021375D01*
X145327776Y-73935684D01*
X145034000Y-73906749D01*
X144740223Y-73935684D01*
X144457736Y-74021375D01*
X144197394Y-74160531D01*
X143969203Y-74347803D01*
X143781931Y-74575995D01*
X143764000Y-74609541D01*
X143746069Y-74575994D01*
X143558797Y-74347803D01*
X143330605Y-74160531D01*
X143070263Y-74021375D01*
X142787776Y-73935684D01*
X142494000Y-73906749D01*
X142200223Y-73935684D01*
X141917736Y-74021375D01*
X141657394Y-74160531D01*
X141429203Y-74347803D01*
X141241931Y-74575995D01*
X141224000Y-74609541D01*
X141206069Y-74575994D01*
X141018797Y-74347803D01*
X140790605Y-74160531D01*
X140530263Y-74021375D01*
X140247776Y-73935684D01*
X139954000Y-73906749D01*
X139660223Y-73935684D01*
X139377736Y-74021375D01*
X139117394Y-74160531D01*
X138889203Y-74347803D01*
X138701931Y-74575995D01*
X138680576Y-74615947D01*
X138532486Y-74413271D01*
X138316035Y-74214267D01*
X138064919Y-74061314D01*
X137788789Y-73960291D01*
X137773026Y-73957642D01*
X137541000Y-74078783D01*
X137287000Y-74078783D01*
X137054974Y-73957642D01*
X137039211Y-73960291D01*
X136763081Y-74061314D01*
X136511965Y-74214267D01*
X136295514Y-74413271D01*
X136147424Y-74615947D01*
X136126069Y-74575994D01*
X135938797Y-74347803D01*
X135710605Y-74160531D01*
X135450263Y-74021375D01*
X135167776Y-73935684D01*
X134874000Y-73906749D01*
X134580223Y-73935684D01*
X134297736Y-74021375D01*
X134037394Y-74160531D01*
X133809203Y-74347803D01*
X133621931Y-74575995D01*
X133604000Y-74609541D01*
X133586069Y-74575994D01*
X133398797Y-74347803D01*
X133170605Y-74160531D01*
X132910263Y-74021375D01*
X132627776Y-73935684D01*
X132334000Y-73906749D01*
X132040223Y-73935684D01*
X131757736Y-74021375D01*
X131497394Y-74160531D01*
X131269203Y-74347803D01*
X131081931Y-74575995D01*
X131064000Y-74609541D01*
X131046069Y-74575994D01*
X130858797Y-74347803D01*
X130630605Y-74160531D01*
X130370263Y-74021375D01*
X130087776Y-73935684D01*
X129794000Y-73906749D01*
X129500223Y-73935684D01*
X129217736Y-74021375D01*
X128957394Y-74160531D01*
X128729203Y-74347803D01*
X128657001Y-74435781D01*
X128601464Y-74301702D01*
X128309594Y-73864887D01*
X128179707Y-73735000D01*
X175219909Y-73735000D01*
X176328001Y-74843093D01*
X176328000Y-85944125D01*
X176324565Y-85979000D01*
X176328000Y-86013875D01*
X176328000Y-86013876D01*
X176338273Y-86118183D01*
X176378872Y-86252019D01*
X176444800Y-86375362D01*
X176533525Y-86483474D01*
X176560617Y-86505708D01*
X178868001Y-88813093D01*
X178868001Y-88863294D01*
X178738113Y-88733406D01*
X178301298Y-88441536D01*
X177815935Y-88240492D01*
X177300677Y-88138000D01*
X176775323Y-88138000D01*
X176260065Y-88240492D01*
X175774702Y-88441536D01*
X175337887Y-88733406D01*
X174966406Y-89104887D01*
X174674536Y-89541702D01*
X174473492Y-90027065D01*
X174371000Y-90542323D01*
X174371000Y-91067677D01*
X174473492Y-91582935D01*
X174674536Y-92068298D01*
X174966406Y-92505113D01*
X175337887Y-92876594D01*
X175774702Y-93168464D01*
X176260065Y-93369508D01*
X176775323Y-93472000D01*
X177300677Y-93472000D01*
X177815935Y-93369508D01*
X178301298Y-93168464D01*
X178738113Y-92876594D01*
X178868001Y-92746706D01*
X178868000Y-116803293D01*
X178738113Y-116673406D01*
X178301298Y-116381536D01*
X177815935Y-116180492D01*
X177300677Y-116078000D01*
X176775323Y-116078000D01*
X176629299Y-116107046D01*
X176640195Y-116071128D01*
X176653000Y-115941115D01*
X176653000Y-115941105D01*
X176657281Y-115897639D01*
X176653000Y-115854173D01*
X176653000Y-112438465D01*
X176657281Y-112394999D01*
X176653000Y-112351533D01*
X176653000Y-112351523D01*
X176640195Y-112221510D01*
X176589589Y-112054687D01*
X176507411Y-111900941D01*
X176457359Y-111839953D01*
X176424532Y-111799953D01*
X176424530Y-111799951D01*
X176396817Y-111766183D01*
X176363050Y-111738471D01*
X175154534Y-110529956D01*
X175126817Y-110496183D01*
X174992059Y-110385589D01*
X174942535Y-110359118D01*
X174864031Y-110212248D01*
X174659714Y-109963286D01*
X174527767Y-109855000D01*
X174659714Y-109746714D01*
X174864031Y-109497752D01*
X175015852Y-109213715D01*
X175109343Y-108905516D01*
X175140911Y-108585000D01*
X175109343Y-108264484D01*
X175015852Y-107956285D01*
X174864031Y-107672248D01*
X174659714Y-107423286D01*
X174529858Y-107316716D01*
X174743922Y-107111317D01*
X174928010Y-106847761D01*
X175057144Y-106553355D01*
X175088124Y-106425434D01*
X174968777Y-106172000D01*
X173355000Y-106172000D01*
X173355000Y-106192000D01*
X173101000Y-106192000D01*
X173101000Y-106172000D01*
X171487223Y-106172000D01*
X171367876Y-106425434D01*
X171398856Y-106553355D01*
X171527990Y-106847761D01*
X171712078Y-107111317D01*
X171926142Y-107316716D01*
X171796286Y-107423286D01*
X171591969Y-107672248D01*
X171577135Y-107700000D01*
X169784579Y-107700000D01*
X169033000Y-106948422D01*
X169033000Y-105664566D01*
X171367876Y-105664566D01*
X171487223Y-105918000D01*
X173101000Y-105918000D01*
X173101000Y-104410000D01*
X173355000Y-104410000D01*
X173355000Y-105918000D01*
X174968777Y-105918000D01*
X175088124Y-105664566D01*
X175057144Y-105536645D01*
X174928010Y-105242239D01*
X174743922Y-104978683D01*
X174511954Y-104756105D01*
X174241020Y-104583058D01*
X173941532Y-104466193D01*
X173625000Y-104410000D01*
X173355000Y-104410000D01*
X173101000Y-104410000D01*
X172831000Y-104410000D01*
X172514468Y-104466193D01*
X172214980Y-104583058D01*
X171944046Y-104756105D01*
X171712078Y-104978683D01*
X171527990Y-105242239D01*
X171398856Y-105536645D01*
X171367876Y-105664566D01*
X169033000Y-105664566D01*
X169033000Y-92455434D01*
X170097876Y-92455434D01*
X170128856Y-92583355D01*
X170257990Y-92877761D01*
X170442078Y-93141317D01*
X170674046Y-93363895D01*
X170944980Y-93536942D01*
X171244468Y-93653807D01*
X171561000Y-93710000D01*
X171831000Y-93710000D01*
X171831000Y-92202000D01*
X172085000Y-92202000D01*
X172085000Y-93710000D01*
X172355000Y-93710000D01*
X172671532Y-93653807D01*
X172971020Y-93536942D01*
X173241954Y-93363895D01*
X173473922Y-93141317D01*
X173658010Y-92877761D01*
X173787144Y-92583355D01*
X173818124Y-92455434D01*
X173698777Y-92202000D01*
X172085000Y-92202000D01*
X171831000Y-92202000D01*
X170217223Y-92202000D01*
X170097876Y-92455434D01*
X169033000Y-92455434D01*
X169033000Y-91171578D01*
X169784579Y-90420000D01*
X170307135Y-90420000D01*
X170321969Y-90447752D01*
X170526286Y-90696714D01*
X170656142Y-90803284D01*
X170442078Y-91008683D01*
X170257990Y-91272239D01*
X170128856Y-91566645D01*
X170097876Y-91694566D01*
X170217223Y-91948000D01*
X171831000Y-91948000D01*
X171831000Y-91928000D01*
X172085000Y-91928000D01*
X172085000Y-91948000D01*
X173698777Y-91948000D01*
X173818124Y-91694566D01*
X173787144Y-91566645D01*
X173658010Y-91272239D01*
X173473922Y-91008683D01*
X173259858Y-90803284D01*
X173389714Y-90696714D01*
X173594031Y-90447752D01*
X173745852Y-90163715D01*
X173839343Y-89855516D01*
X173870911Y-89535000D01*
X173839343Y-89214484D01*
X173745852Y-88906285D01*
X173594031Y-88622248D01*
X173389714Y-88373286D01*
X173257767Y-88265000D01*
X173389714Y-88156714D01*
X173594031Y-87907752D01*
X173745852Y-87623715D01*
X173839343Y-87315516D01*
X173870911Y-86995000D01*
X173839343Y-86674484D01*
X173745852Y-86366285D01*
X173594031Y-86082248D01*
X173389714Y-85833286D01*
X173257767Y-85725000D01*
X173389714Y-85616714D01*
X173594031Y-85367752D01*
X173745852Y-85083715D01*
X173839343Y-84775516D01*
X173870911Y-84455000D01*
X173839343Y-84134484D01*
X173745852Y-83826285D01*
X173594031Y-83542248D01*
X173389714Y-83293286D01*
X173257767Y-83185000D01*
X173389714Y-83076714D01*
X173594031Y-82827752D01*
X173745852Y-82543715D01*
X173839343Y-82235516D01*
X173870911Y-81915000D01*
X173839343Y-81594484D01*
X173745852Y-81286285D01*
X173594031Y-81002248D01*
X173389714Y-80753286D01*
X173140752Y-80548969D01*
X172856715Y-80397148D01*
X172548516Y-80303657D01*
X172308322Y-80280000D01*
X171607678Y-80280000D01*
X171367484Y-80303657D01*
X171059285Y-80397148D01*
X170775248Y-80548969D01*
X170664465Y-80639886D01*
X170303000Y-80278422D01*
X170303000Y-76929753D01*
X170482797Y-76782197D01*
X170670069Y-76554006D01*
X170688000Y-76520459D01*
X170705931Y-76554006D01*
X170893203Y-76782197D01*
X171121395Y-76969469D01*
X171381737Y-77108625D01*
X171664224Y-77194316D01*
X171958000Y-77223251D01*
X172251777Y-77194316D01*
X172534264Y-77108625D01*
X172794606Y-76969469D01*
X173022797Y-76782197D01*
X173210069Y-76554006D01*
X173228000Y-76520459D01*
X173245931Y-76554006D01*
X173433203Y-76782197D01*
X173661395Y-76969469D01*
X173921737Y-77108625D01*
X174204224Y-77194316D01*
X174498000Y-77223251D01*
X174791777Y-77194316D01*
X175074264Y-77108625D01*
X175334606Y-76969469D01*
X175562797Y-76782197D01*
X175750069Y-76554006D01*
X175889225Y-76293663D01*
X175974916Y-76011176D01*
X175996600Y-75791018D01*
X175996600Y-75338981D01*
X175974916Y-75118823D01*
X175889225Y-74836336D01*
X175750069Y-74575994D01*
X175562797Y-74347803D01*
X175334605Y-74160531D01*
X175074263Y-74021375D01*
X174791776Y-73935684D01*
X174498000Y-73906749D01*
X174204223Y-73935684D01*
X173921736Y-74021375D01*
X173661394Y-74160531D01*
X173433203Y-74347803D01*
X173245931Y-74575995D01*
X173228000Y-74609541D01*
X173210069Y-74575994D01*
X173022797Y-74347803D01*
X172794605Y-74160531D01*
X172534263Y-74021375D01*
X172251776Y-73935684D01*
X171958000Y-73906749D01*
X171664223Y-73935684D01*
X171381736Y-74021375D01*
X171121394Y-74160531D01*
X170893203Y-74347803D01*
X170705931Y-74575995D01*
X170688000Y-74609541D01*
X170670069Y-74575994D01*
X170482797Y-74347803D01*
X170254605Y-74160531D01*
X169994263Y-74021375D01*
X169711776Y-73935684D01*
X169418000Y-73906749D01*
X169124223Y-73935684D01*
X168841736Y-74021375D01*
X168581394Y-74160531D01*
X168353203Y-74347803D01*
X168165931Y-74575995D01*
X168148000Y-74609541D01*
X168130069Y-74575994D01*
X167942797Y-74347803D01*
X167714605Y-74160531D01*
X167454263Y-74021375D01*
X167171776Y-73935684D01*
X166878000Y-73906749D01*
X166584223Y-73935684D01*
X166301736Y-74021375D01*
X166041394Y-74160531D01*
X165813203Y-74347803D01*
X165625931Y-74575995D01*
X165608000Y-74609541D01*
X165590069Y-74575994D01*
X165402797Y-74347803D01*
X165174605Y-74160531D01*
X164914263Y-74021375D01*
X164631776Y-73935684D01*
X164338000Y-73906749D01*
X164044223Y-73935684D01*
X163761736Y-74021375D01*
X163501394Y-74160531D01*
X163273203Y-74347803D01*
X163085931Y-74575995D01*
X163068000Y-74609541D01*
X163050069Y-74575994D01*
X162862797Y-74347803D01*
X162634605Y-74160531D01*
X162374263Y-74021375D01*
X162091776Y-73935684D01*
X161798000Y-73906749D01*
X161504223Y-73935684D01*
X161221736Y-74021375D01*
X160961394Y-74160531D01*
X160733203Y-74347803D01*
X160545931Y-74575995D01*
X160528000Y-74609541D01*
X160510069Y-74575994D01*
X160322797Y-74347803D01*
X160094605Y-74160531D01*
X159834263Y-74021375D01*
X159551776Y-73935684D01*
X159258000Y-73906749D01*
X158964223Y-73935684D01*
X158681736Y-74021375D01*
X158421394Y-74160531D01*
X158193203Y-74347803D01*
X158005931Y-74575995D01*
X157988000Y-74609541D01*
X157970069Y-74575994D01*
X157782797Y-74347803D01*
X157554605Y-74160531D01*
X157294263Y-74021375D01*
X157011776Y-73935684D01*
X156718000Y-73906749D01*
X156424223Y-73935684D01*
X156141736Y-74021375D01*
X155881394Y-74160531D01*
X155653203Y-74347803D01*
X155465931Y-74575995D01*
X155326775Y-74836337D01*
X155241084Y-75118824D01*
X155219400Y-75338982D01*
X155219400Y-75791019D01*
X155241084Y-76011177D01*
X155326775Y-76293664D01*
X155465931Y-76554006D01*
X155653203Y-76782197D01*
X155881395Y-76969469D01*
X156141737Y-77108625D01*
X156424224Y-77194316D01*
X156718000Y-77223251D01*
X157011777Y-77194316D01*
X157294264Y-77108625D01*
X157554606Y-76969469D01*
X157782797Y-76782197D01*
X157970069Y-76554006D01*
X157988000Y-76520459D01*
X158005931Y-76554006D01*
X158193203Y-76782197D01*
X158421395Y-76969469D01*
X158681737Y-77108625D01*
X158964224Y-77194316D01*
X159258000Y-77223251D01*
X159551777Y-77194316D01*
X159834264Y-77108625D01*
X160094606Y-76969469D01*
X160322797Y-76782197D01*
X160510069Y-76554006D01*
X160528000Y-76520459D01*
X160545931Y-76554006D01*
X160733203Y-76782197D01*
X160961395Y-76969469D01*
X161221737Y-77108625D01*
X161504224Y-77194316D01*
X161798000Y-77223251D01*
X162091777Y-77194316D01*
X162374264Y-77108625D01*
X162634606Y-76969469D01*
X162862797Y-76782197D01*
X163050069Y-76554006D01*
X163068000Y-76520459D01*
X163085931Y-76554006D01*
X163273203Y-76782197D01*
X163458494Y-76934261D01*
X163465805Y-77008489D01*
X163516411Y-77175312D01*
X163598589Y-77329058D01*
X163709183Y-77463817D01*
X163742956Y-77491534D01*
X164711470Y-78460049D01*
X164739183Y-78493817D01*
X164772951Y-78521530D01*
X164772953Y-78521532D01*
X164844452Y-78580210D01*
X164873941Y-78604411D01*
X165027687Y-78686589D01*
X165143903Y-78721843D01*
X165194509Y-78737195D01*
X165209306Y-78738652D01*
X165324523Y-78750000D01*
X165324531Y-78750000D01*
X165368000Y-78754281D01*
X165411469Y-78750000D01*
X166127196Y-78750000D01*
X166512991Y-79135796D01*
X166512990Y-81409975D01*
X166508709Y-81453444D01*
X166512990Y-81496910D01*
X166512990Y-81496920D01*
X166525795Y-81626933D01*
X166576401Y-81793756D01*
X166658579Y-81947502D01*
X166769173Y-82082261D01*
X166802946Y-82109978D01*
X167913001Y-83220033D01*
X167913000Y-84035757D01*
X167908719Y-84079227D01*
X167913000Y-84122696D01*
X167913000Y-84122703D01*
X167916581Y-84159058D01*
X167925805Y-84252717D01*
X167934540Y-84281510D01*
X167976411Y-84419539D01*
X168058589Y-84573285D01*
X168169183Y-84708044D01*
X168202956Y-84735761D01*
X169013000Y-85545806D01*
X169013000Y-86021531D01*
X169008719Y-86065000D01*
X169013000Y-86108469D01*
X169013000Y-86108476D01*
X169023891Y-86219059D01*
X169025805Y-86238490D01*
X169030992Y-86255589D01*
X169076411Y-86405312D01*
X169158589Y-86559058D01*
X169269183Y-86693817D01*
X169302956Y-86721534D01*
X170154913Y-87573492D01*
X170170148Y-87623715D01*
X170321969Y-87907752D01*
X170526286Y-88156714D01*
X170658233Y-88265000D01*
X170526286Y-88373286D01*
X170321969Y-88622248D01*
X170307135Y-88650000D01*
X169461465Y-88650000D01*
X169417999Y-88645719D01*
X169374533Y-88650000D01*
X169374523Y-88650000D01*
X169244510Y-88662805D01*
X169077687Y-88713411D01*
X168923941Y-88795589D01*
X168923939Y-88795590D01*
X168923940Y-88795590D01*
X168822953Y-88878468D01*
X168822951Y-88878470D01*
X168789183Y-88906183D01*
X168761470Y-88939951D01*
X168148000Y-89553421D01*
X166264536Y-87669958D01*
X166264532Y-87669953D01*
X163724534Y-85129956D01*
X163696817Y-85096183D01*
X163562059Y-84985589D01*
X163408313Y-84903411D01*
X163241490Y-84852805D01*
X163111477Y-84840000D01*
X163111469Y-84840000D01*
X163068000Y-84835719D01*
X163024531Y-84840000D01*
X145331469Y-84840000D01*
X145288000Y-84835719D01*
X145244531Y-84840000D01*
X145244523Y-84840000D01*
X145114510Y-84852805D01*
X144947686Y-84903411D01*
X144793941Y-84985589D01*
X144692953Y-85068468D01*
X144692951Y-85068470D01*
X144659183Y-85096183D01*
X144631470Y-85129951D01*
X141478000Y-88283422D01*
X141093000Y-87898422D01*
X141093000Y-82295865D01*
X141120752Y-82281031D01*
X141369714Y-82076714D01*
X141476284Y-81946858D01*
X141681683Y-82160922D01*
X141945239Y-82345010D01*
X142239645Y-82474144D01*
X142367566Y-82505124D01*
X142621000Y-82385777D01*
X142621000Y-80772000D01*
X142601000Y-80772000D01*
X142601000Y-80518000D01*
X142621000Y-80518000D01*
X142621000Y-78904223D01*
X142367566Y-78784876D01*
X142239645Y-78815856D01*
X141945239Y-78944990D01*
X141681683Y-79129078D01*
X141476284Y-79343142D01*
X141369714Y-79213286D01*
X141120751Y-79008969D01*
X140836714Y-78857148D01*
X140528515Y-78763657D01*
X140208000Y-78732089D01*
X139887484Y-78763657D01*
X139579285Y-78857148D01*
X139295248Y-79008969D01*
X139046286Y-79213286D01*
X138841969Y-79462249D01*
X138690148Y-79746286D01*
X138596657Y-80054485D01*
X138573000Y-80294679D01*
X138573000Y-80995322D01*
X138596657Y-81235516D01*
X138690148Y-81543715D01*
X138841969Y-81827752D01*
X139046286Y-82076714D01*
X139295249Y-82281031D01*
X139323001Y-82295865D01*
X139323000Y-88221531D01*
X139318719Y-88265000D01*
X139323000Y-88308469D01*
X139323000Y-88308476D01*
X139331405Y-88393817D01*
X139335805Y-88438490D01*
X139349648Y-88484123D01*
X139386411Y-88605312D01*
X139468589Y-88759058D01*
X139579183Y-88893817D01*
X139612954Y-88921532D01*
X140673000Y-89981579D01*
X140673001Y-90858421D01*
X140341422Y-91190000D01*
X136728865Y-91190000D01*
X136714031Y-91162248D01*
X136509714Y-90913286D01*
X136377767Y-90805000D01*
X136509714Y-90696714D01*
X136714031Y-90447752D01*
X136865852Y-90163715D01*
X136959343Y-89855516D01*
X136990911Y-89535000D01*
X136959343Y-89214484D01*
X136865852Y-88906285D01*
X136714031Y-88622248D01*
X136509714Y-88373286D01*
X136260752Y-88168969D01*
X135976715Y-88017148D01*
X135668516Y-87923657D01*
X135428322Y-87900000D01*
X134727678Y-87900000D01*
X134487484Y-87923657D01*
X134179285Y-88017148D01*
X133895248Y-88168969D01*
X133646286Y-88373286D01*
X133441969Y-88622248D01*
X133290148Y-88906285D01*
X133196657Y-89214484D01*
X133165089Y-89535000D01*
X133196657Y-89855516D01*
X133290148Y-90163715D01*
X133441969Y-90447752D01*
X133646286Y-90696714D01*
X133778233Y-90805000D01*
X133646286Y-90913286D01*
X133441969Y-91162248D01*
X133427135Y-91190000D01*
X130974579Y-91190000D01*
X130883000Y-91098422D01*
X130883000Y-88668467D01*
X130887281Y-88624998D01*
X130883000Y-88581529D01*
X130883000Y-88581521D01*
X130870195Y-88451508D01*
X130819589Y-88284685D01*
X130737411Y-88130939D01*
X130705052Y-88091510D01*
X130654532Y-88029951D01*
X130654530Y-88029949D01*
X130626817Y-87996181D01*
X130593050Y-87968469D01*
X129794536Y-87169956D01*
X129766819Y-87136183D01*
X129632061Y-87025589D01*
X129478315Y-86943411D01*
X129311492Y-86892805D01*
X129181479Y-86880000D01*
X129181471Y-86880000D01*
X129138002Y-86875719D01*
X129094533Y-86880000D01*
X125941469Y-86880000D01*
X125898000Y-86875719D01*
X125854531Y-86880000D01*
X125854523Y-86880000D01*
X125724510Y-86892805D01*
X125557686Y-86943411D01*
X125403941Y-87025589D01*
X125302953Y-87108468D01*
X125302951Y-87108470D01*
X125269183Y-87136183D01*
X125241470Y-87169951D01*
X124372951Y-88038471D01*
X124339184Y-88066183D01*
X124311471Y-88099951D01*
X124311468Y-88099954D01*
X124228590Y-88200941D01*
X124146412Y-88354687D01*
X124095805Y-88521510D01*
X124078719Y-88695000D01*
X124083001Y-88738479D01*
X124083000Y-92978421D01*
X122061422Y-95000000D01*
X117391469Y-95000000D01*
X117348000Y-94995719D01*
X117304531Y-95000000D01*
X115810975Y-95000000D01*
X115659013Y-94848038D01*
X115440359Y-94701939D01*
X115197405Y-94601304D01*
X114939486Y-94550000D01*
X114676514Y-94550000D01*
X114418595Y-94601304D01*
X114175641Y-94701939D01*
X113956987Y-94848038D01*
X113771038Y-95033987D01*
X113624939Y-95252641D01*
X113524304Y-95495595D01*
X113473000Y-95753514D01*
X113473000Y-96016486D01*
X113524304Y-96274405D01*
X113624939Y-96517359D01*
X113771038Y-96736013D01*
X113956987Y-96921962D01*
X114175641Y-97068061D01*
X114418595Y-97168696D01*
X114676514Y-97220000D01*
X114939486Y-97220000D01*
X115197405Y-97168696D01*
X115440359Y-97068061D01*
X115659013Y-96921962D01*
X115810975Y-96770000D01*
X116981422Y-96770000D01*
X117733000Y-97521579D01*
X117733001Y-108541521D01*
X117728719Y-108585000D01*
X117745805Y-108758490D01*
X117796412Y-108925313D01*
X117878590Y-109079059D01*
X117961468Y-109180046D01*
X117961471Y-109180049D01*
X117989184Y-109213817D01*
X118022951Y-109241529D01*
X119231470Y-110450049D01*
X119259183Y-110483817D01*
X119292951Y-110511530D01*
X119292953Y-110511532D01*
X119315399Y-110529953D01*
X119393941Y-110594411D01*
X119547687Y-110676589D01*
X119714510Y-110727195D01*
X119844523Y-110740000D01*
X119844533Y-110740000D01*
X119887999Y-110744281D01*
X119931465Y-110740000D01*
X122061422Y-110740000D01*
X122813000Y-111491579D01*
X122813001Y-113621521D01*
X122808719Y-113665000D01*
X122825805Y-113838490D01*
X122876412Y-114005313D01*
X122958590Y-114159059D01*
X123041468Y-114260046D01*
X123041471Y-114260049D01*
X123069184Y-114293817D01*
X123102951Y-114321529D01*
X124311470Y-115530049D01*
X124339183Y-115563817D01*
X124372951Y-115591530D01*
X124372953Y-115591532D01*
X124401216Y-115614727D01*
X124473941Y-115674411D01*
X124627687Y-115756589D01*
X124794510Y-115807195D01*
X124924523Y-115820000D01*
X124924533Y-115820000D01*
X124967999Y-115824281D01*
X125011465Y-115820000D01*
X130004531Y-115820000D01*
X130048000Y-115824281D01*
X130091469Y-115820000D01*
X130091477Y-115820000D01*
X130221490Y-115807195D01*
X130388313Y-115756589D01*
X130542059Y-115674411D01*
X130676817Y-115563817D01*
X130704534Y-115530044D01*
X130966248Y-115268330D01*
X132565278Y-115268330D01*
X132655147Y-115514123D01*
X132791241Y-115737660D01*
X132968330Y-115930351D01*
X133179608Y-116084792D01*
X133416956Y-116195047D01*
X133524671Y-116227716D01*
X133731000Y-116104374D01*
X133731000Y-115062000D01*
X133985000Y-115062000D01*
X133985000Y-116104374D01*
X134191329Y-116227716D01*
X134299044Y-116195047D01*
X134536392Y-116084792D01*
X134747670Y-115930351D01*
X134924759Y-115737660D01*
X135060853Y-115514123D01*
X135150722Y-115268330D01*
X135028201Y-115062000D01*
X133985000Y-115062000D01*
X133731000Y-115062000D01*
X132687799Y-115062000D01*
X132565278Y-115268330D01*
X130966248Y-115268330D01*
X131632908Y-114601670D01*
X132565278Y-114601670D01*
X132687799Y-114808000D01*
X133731000Y-114808000D01*
X133731000Y-113765626D01*
X133985000Y-113765626D01*
X133985000Y-114808000D01*
X135028201Y-114808000D01*
X135150722Y-114601670D01*
X135060853Y-114355877D01*
X134924759Y-114132340D01*
X134747670Y-113939649D01*
X134536392Y-113785208D01*
X134299044Y-113674953D01*
X134191329Y-113642284D01*
X133985000Y-113765626D01*
X133731000Y-113765626D01*
X133524671Y-113642284D01*
X133416956Y-113674953D01*
X133179608Y-113785208D01*
X132968330Y-113939649D01*
X132791241Y-114132340D01*
X132655147Y-114355877D01*
X132565278Y-114601670D01*
X131632908Y-114601670D01*
X132954579Y-113280000D01*
X134761422Y-113280000D01*
X139551470Y-118070049D01*
X139579183Y-118103817D01*
X139612951Y-118131530D01*
X139612953Y-118131532D01*
X139713941Y-118214411D01*
X139867687Y-118296589D01*
X140034510Y-118347195D01*
X140164523Y-118360000D01*
X140164531Y-118360000D01*
X140208000Y-118364281D01*
X140251469Y-118360000D01*
X143651422Y-118360000D01*
X147972811Y-122681390D01*
X147845931Y-122835995D01*
X147828000Y-122869541D01*
X147810069Y-122835994D01*
X147622797Y-122607803D01*
X147394605Y-122420531D01*
X147134263Y-122281375D01*
X146851776Y-122195684D01*
X146558000Y-122166749D01*
X146264223Y-122195684D01*
X145981736Y-122281375D01*
X145721394Y-122420531D01*
X145493203Y-122607803D01*
X145305931Y-122835995D01*
X145288000Y-122869541D01*
X145270069Y-122835994D01*
X145082797Y-122607803D01*
X144854605Y-122420531D01*
X144594263Y-122281375D01*
X144311776Y-122195684D01*
X144018000Y-122166749D01*
X143724223Y-122195684D01*
X143441736Y-122281375D01*
X143181394Y-122420531D01*
X142953203Y-122607803D01*
X142765931Y-122835995D01*
X142748000Y-122869541D01*
X142730069Y-122835994D01*
X142542797Y-122607803D01*
X142314605Y-122420531D01*
X142054263Y-122281375D01*
X141771776Y-122195684D01*
X141478000Y-122166749D01*
X141184223Y-122195684D01*
X140901736Y-122281375D01*
X140641394Y-122420531D01*
X140413203Y-122607803D01*
X140225931Y-122835995D01*
X140208000Y-122869541D01*
X140190069Y-122835994D01*
X140002797Y-122607803D01*
X139774605Y-122420531D01*
X139514263Y-122281375D01*
X139231776Y-122195684D01*
X138938000Y-122166749D01*
X138644223Y-122195684D01*
X138361736Y-122281375D01*
X138101394Y-122420531D01*
X137873203Y-122607803D01*
X137685931Y-122835995D01*
X137546775Y-123096337D01*
X137461084Y-123378824D01*
X137439400Y-123598982D01*
X137439400Y-124051019D01*
X137461084Y-124271177D01*
X137546775Y-124553664D01*
X137685931Y-124814006D01*
X137873203Y-125042197D01*
X138101395Y-125229469D01*
X138361737Y-125368625D01*
X138644224Y-125454316D01*
X138938000Y-125483251D01*
X139231777Y-125454316D01*
X139514264Y-125368625D01*
X139774606Y-125229469D01*
X140002797Y-125042197D01*
X140190069Y-124814006D01*
X140208000Y-124780459D01*
X140225931Y-124814006D01*
X140413203Y-125042197D01*
X140641395Y-125229469D01*
X140901737Y-125368625D01*
X141184224Y-125454316D01*
X141478000Y-125483251D01*
X141771777Y-125454316D01*
X142054264Y-125368625D01*
X142314606Y-125229469D01*
X142542797Y-125042197D01*
X142730069Y-124814006D01*
X142748000Y-124780459D01*
X142765931Y-124814006D01*
X142953203Y-125042197D01*
X143181395Y-125229469D01*
X143441737Y-125368625D01*
X143724224Y-125454316D01*
X144018000Y-125483251D01*
X144311777Y-125454316D01*
X144594264Y-125368625D01*
X144854606Y-125229469D01*
X145082797Y-125042197D01*
X145270069Y-124814006D01*
X145288000Y-124780459D01*
X145305931Y-124814006D01*
X145493203Y-125042197D01*
X145721395Y-125229469D01*
X145981737Y-125368625D01*
X146264224Y-125454316D01*
X146558000Y-125483251D01*
X146851777Y-125454316D01*
X147134264Y-125368625D01*
X147394606Y-125229469D01*
X147622797Y-125042197D01*
X147810069Y-124814006D01*
X147828000Y-124780459D01*
X147845931Y-124814006D01*
X148033203Y-125042197D01*
X148261395Y-125229469D01*
X148521737Y-125368625D01*
X148804224Y-125454316D01*
X149098000Y-125483251D01*
X149391777Y-125454316D01*
X149674264Y-125368625D01*
X149934606Y-125229469D01*
X150162797Y-125042197D01*
X150350069Y-124814006D01*
X150371424Y-124774053D01*
X150519514Y-124976729D01*
X150735965Y-125175733D01*
X150987081Y-125328686D01*
X151263211Y-125429709D01*
X151278974Y-125432358D01*
X151511000Y-125311217D01*
X151511000Y-123952000D01*
X151765000Y-123952000D01*
X151765000Y-125311217D01*
X151997026Y-125432358D01*
X152012789Y-125429709D01*
X152288919Y-125328686D01*
X152540035Y-125175733D01*
X152756486Y-124976729D01*
X152908000Y-124769367D01*
X153059514Y-124976729D01*
X153275965Y-125175733D01*
X153527081Y-125328686D01*
X153803211Y-125429709D01*
X153818974Y-125432358D01*
X154051000Y-125311217D01*
X154051000Y-123952000D01*
X151765000Y-123952000D01*
X151511000Y-123952000D01*
X151491000Y-123952000D01*
X151491000Y-123698000D01*
X151511000Y-123698000D01*
X151511000Y-122338783D01*
X151765000Y-122338783D01*
X151765000Y-123698000D01*
X154051000Y-123698000D01*
X154051000Y-122338783D01*
X154305000Y-122338783D01*
X154305000Y-123698000D01*
X154325000Y-123698000D01*
X154325000Y-123952000D01*
X154305000Y-123952000D01*
X154305000Y-125311217D01*
X154537026Y-125432358D01*
X154552789Y-125429709D01*
X154828919Y-125328686D01*
X155080035Y-125175733D01*
X155296486Y-124976729D01*
X155444576Y-124774053D01*
X155465931Y-124814006D01*
X155653203Y-125042197D01*
X155881395Y-125229469D01*
X156141737Y-125368625D01*
X156424224Y-125454316D01*
X156718000Y-125483251D01*
X157011777Y-125454316D01*
X157294264Y-125368625D01*
X157554606Y-125229469D01*
X157782797Y-125042197D01*
X157970069Y-124814006D01*
X158109225Y-124553663D01*
X158194916Y-124271176D01*
X158216600Y-124051018D01*
X158216600Y-123598981D01*
X158194916Y-123378823D01*
X158109225Y-123096336D01*
X157970069Y-122835994D01*
X157782797Y-122607803D01*
X157554605Y-122420531D01*
X157294263Y-122281375D01*
X157011776Y-122195684D01*
X156718000Y-122166749D01*
X156424223Y-122195684D01*
X156141736Y-122281375D01*
X155881394Y-122420531D01*
X155653203Y-122607803D01*
X155465931Y-122835995D01*
X155444576Y-122875947D01*
X155296486Y-122673271D01*
X155080035Y-122474267D01*
X154828919Y-122321314D01*
X154552789Y-122220291D01*
X154537026Y-122217642D01*
X154305000Y-122338783D01*
X154051000Y-122338783D01*
X153818974Y-122217642D01*
X153803211Y-122220291D01*
X153527081Y-122321314D01*
X153275965Y-122474267D01*
X153059514Y-122673271D01*
X152908000Y-122880633D01*
X152756486Y-122673271D01*
X152540035Y-122474267D01*
X152288919Y-122321314D01*
X152012789Y-122220291D01*
X151997026Y-122217642D01*
X151765000Y-122338783D01*
X151511000Y-122338783D01*
X151278974Y-122217642D01*
X151263211Y-122220291D01*
X150987081Y-122321314D01*
X150735965Y-122474267D01*
X150519514Y-122673271D01*
X150371424Y-122875947D01*
X150350069Y-122835994D01*
X150162797Y-122607803D01*
X149977506Y-122455739D01*
X149970195Y-122381510D01*
X149919589Y-122214687D01*
X149837411Y-122060941D01*
X149786113Y-121998435D01*
X149754532Y-121959953D01*
X149754530Y-121959951D01*
X149726817Y-121926183D01*
X149693051Y-121898472D01*
X144674534Y-116879956D01*
X144646817Y-116846183D01*
X144512059Y-116735589D01*
X144358313Y-116653411D01*
X144191490Y-116602805D01*
X144061477Y-116590000D01*
X144061469Y-116590000D01*
X144018000Y-116585719D01*
X143974531Y-116590000D01*
X140574579Y-116590000D01*
X139804579Y-115820000D01*
X141745025Y-115820000D01*
X141896987Y-115971962D01*
X142115641Y-116118061D01*
X142358595Y-116218696D01*
X142616514Y-116270000D01*
X142879486Y-116270000D01*
X143137405Y-116218696D01*
X143380359Y-116118061D01*
X143599013Y-115971962D01*
X143750975Y-115820000D01*
X146693479Y-115820000D01*
X146713363Y-115849759D01*
X146913241Y-116049637D01*
X147148273Y-116206680D01*
X147409426Y-116314853D01*
X147686665Y-116370000D01*
X147969335Y-116370000D01*
X148246574Y-116314853D01*
X148507727Y-116206680D01*
X148742759Y-116049637D01*
X148942637Y-115849759D01*
X148962521Y-115820000D01*
X151905025Y-115820000D01*
X152056987Y-115971962D01*
X152275641Y-116118061D01*
X152518595Y-116218696D01*
X152776514Y-116270000D01*
X153039486Y-116270000D01*
X153297405Y-116218696D01*
X153540359Y-116118061D01*
X153759013Y-115971962D01*
X153874706Y-115856269D01*
X159786336Y-115856269D01*
X159845797Y-116090037D01*
X160084242Y-116200934D01*
X160339740Y-116263183D01*
X160602473Y-116274390D01*
X160862344Y-116234125D01*
X161109366Y-116143935D01*
X161210203Y-116090037D01*
X161269664Y-115856269D01*
X160528000Y-115114605D01*
X159786336Y-115856269D01*
X153874706Y-115856269D01*
X153944962Y-115786013D01*
X154091061Y-115567359D01*
X154191696Y-115324405D01*
X154243000Y-115066486D01*
X154243000Y-115009473D01*
X159188610Y-115009473D01*
X159228875Y-115269344D01*
X159319065Y-115516366D01*
X159372963Y-115617203D01*
X159606731Y-115676664D01*
X160348395Y-114935000D01*
X160707605Y-114935000D01*
X161449269Y-115676664D01*
X161683037Y-115617203D01*
X161793934Y-115378758D01*
X161856183Y-115123260D01*
X161867390Y-114860527D01*
X161827125Y-114600656D01*
X161736935Y-114353634D01*
X161683037Y-114252797D01*
X161449269Y-114193336D01*
X160707605Y-114935000D01*
X160348395Y-114935000D01*
X159606731Y-114193336D01*
X159372963Y-114252797D01*
X159262066Y-114491242D01*
X159199817Y-114746740D01*
X159188610Y-115009473D01*
X154243000Y-115009473D01*
X154243000Y-114803514D01*
X154191696Y-114545595D01*
X154091061Y-114302641D01*
X153944962Y-114083987D01*
X153874706Y-114013731D01*
X159786336Y-114013731D01*
X160528000Y-114755395D01*
X161269664Y-114013731D01*
X161210203Y-113779963D01*
X160971758Y-113669066D01*
X160716260Y-113606817D01*
X160453527Y-113595610D01*
X160193656Y-113635875D01*
X159946634Y-113726065D01*
X159845797Y-113779963D01*
X159786336Y-114013731D01*
X153874706Y-114013731D01*
X153759013Y-113898038D01*
X153540359Y-113751939D01*
X153297405Y-113651304D01*
X153039486Y-113600000D01*
X152776514Y-113600000D01*
X152518595Y-113651304D01*
X152275641Y-113751939D01*
X152056987Y-113898038D01*
X151905025Y-114050000D01*
X148962521Y-114050000D01*
X148942637Y-114020241D01*
X148742759Y-113820363D01*
X148540173Y-113685000D01*
X148742759Y-113549637D01*
X148942637Y-113349759D01*
X149099680Y-113114727D01*
X149207853Y-112853574D01*
X149263000Y-112576335D01*
X149263000Y-112293665D01*
X149207853Y-112016426D01*
X149099680Y-111755273D01*
X148942637Y-111520241D01*
X148742759Y-111320363D01*
X148507727Y-111163320D01*
X148246574Y-111055147D01*
X147969335Y-111000000D01*
X147686665Y-111000000D01*
X147409426Y-111055147D01*
X147148273Y-111163320D01*
X146913241Y-111320363D01*
X146713363Y-111520241D01*
X146693479Y-111550000D01*
X143834579Y-111550000D01*
X143633000Y-111348422D01*
X143633000Y-108317975D01*
X143750975Y-108200000D01*
X146514531Y-108200000D01*
X146558000Y-108204281D01*
X146601469Y-108200000D01*
X146601477Y-108200000D01*
X146731490Y-108187195D01*
X146898313Y-108136589D01*
X147052059Y-108054411D01*
X147186817Y-107943817D01*
X147214534Y-107910044D01*
X148423050Y-106701529D01*
X148456817Y-106673817D01*
X148486873Y-106637195D01*
X148567410Y-106539060D01*
X148567411Y-106539059D01*
X148649589Y-106385313D01*
X148700195Y-106218490D01*
X148713000Y-106088477D01*
X148713000Y-106088467D01*
X148717281Y-106045001D01*
X148713000Y-106001535D01*
X148713000Y-105777975D01*
X148864962Y-105626013D01*
X149011061Y-105407359D01*
X149111696Y-105164405D01*
X149163000Y-104906486D01*
X149163000Y-104643514D01*
X149111696Y-104385595D01*
X149011061Y-104142641D01*
X148864962Y-103923987D01*
X148679013Y-103738038D01*
X148460359Y-103591939D01*
X148217405Y-103491304D01*
X147959486Y-103440000D01*
X147696514Y-103440000D01*
X147438595Y-103491304D01*
X147195641Y-103591939D01*
X146976987Y-103738038D01*
X146791038Y-103923987D01*
X146644939Y-104142641D01*
X146544304Y-104385595D01*
X146493000Y-104643514D01*
X146493000Y-104906486D01*
X146544304Y-105164405D01*
X146644939Y-105407359D01*
X146791038Y-105626013D01*
X146893223Y-105728198D01*
X146191422Y-106430000D01*
X143750975Y-106430000D01*
X143599013Y-106278038D01*
X143380359Y-106131939D01*
X143137405Y-106031304D01*
X142879486Y-105980000D01*
X142616514Y-105980000D01*
X142358595Y-106031304D01*
X142115641Y-106131939D01*
X141896987Y-106278038D01*
X141711038Y-106463987D01*
X141564939Y-106682641D01*
X141464304Y-106925595D01*
X141413000Y-107183514D01*
X141413000Y-107446486D01*
X141464304Y-107704405D01*
X141564939Y-107947359D01*
X141711038Y-108166013D01*
X141863001Y-108317976D01*
X141863000Y-111671523D01*
X141863000Y-111671531D01*
X141858719Y-111715000D01*
X141863000Y-111758469D01*
X141863000Y-111848421D01*
X140661432Y-113049990D01*
X139934569Y-113049990D01*
X137583010Y-110698432D01*
X137583010Y-106494248D01*
X137587291Y-106450782D01*
X137583010Y-106407316D01*
X137583010Y-106407306D01*
X137570205Y-106277293D01*
X137519599Y-106110470D01*
X137437421Y-105956724D01*
X137326827Y-105821966D01*
X137293059Y-105794253D01*
X135668749Y-104169944D01*
X135641034Y-104136173D01*
X135506276Y-104025579D01*
X135352530Y-103943401D01*
X135185707Y-103892795D01*
X135055694Y-103879990D01*
X135055686Y-103879990D01*
X135012217Y-103875709D01*
X134968748Y-103879990D01*
X133203010Y-103879990D01*
X133203010Y-97496459D01*
X133290148Y-97783715D01*
X133441969Y-98067752D01*
X133646286Y-98316714D01*
X133895248Y-98521031D01*
X134179285Y-98672852D01*
X134487484Y-98766343D01*
X134727678Y-98790000D01*
X135428322Y-98790000D01*
X135668516Y-98766343D01*
X135976715Y-98672852D01*
X136260752Y-98521031D01*
X136509714Y-98316714D01*
X136714031Y-98067752D01*
X136865852Y-97783715D01*
X136959343Y-97475516D01*
X136990911Y-97155000D01*
X136959343Y-96834484D01*
X136865852Y-96526285D01*
X136714031Y-96242248D01*
X136509714Y-95993286D01*
X136377767Y-95885000D01*
X136509714Y-95776714D01*
X136714031Y-95527752D01*
X136865852Y-95243715D01*
X136959343Y-94935516D01*
X136990911Y-94615000D01*
X136959343Y-94294484D01*
X136865852Y-93986285D01*
X136714031Y-93702248D01*
X136509714Y-93453286D01*
X136377767Y-93345000D01*
X136509714Y-93236714D01*
X136714031Y-92987752D01*
X136728865Y-92960000D01*
X140664531Y-92960000D01*
X140708000Y-92964281D01*
X140751469Y-92960000D01*
X140751477Y-92960000D01*
X140881490Y-92947195D01*
X141048313Y-92896589D01*
X141202059Y-92814411D01*
X141336817Y-92703817D01*
X141364534Y-92670044D01*
X141548000Y-92486578D01*
X141731470Y-92670049D01*
X141759183Y-92703817D01*
X141792951Y-92731530D01*
X141792953Y-92731532D01*
X141821216Y-92754727D01*
X141893941Y-92814411D01*
X142047687Y-92896589D01*
X142214510Y-92947195D01*
X142344523Y-92960000D01*
X142344533Y-92960000D01*
X142387999Y-92964281D01*
X142431465Y-92960000D01*
X142923479Y-92960000D01*
X142943363Y-92989759D01*
X143143241Y-93189637D01*
X143378273Y-93346680D01*
X143639426Y-93454853D01*
X143916665Y-93510000D01*
X144199335Y-93510000D01*
X144476574Y-93454853D01*
X144737727Y-93346680D01*
X144972759Y-93189637D01*
X145094694Y-93067702D01*
X145744903Y-93067702D01*
X145816486Y-93311671D01*
X146071996Y-93432571D01*
X146346184Y-93501300D01*
X146628512Y-93515217D01*
X146908130Y-93473787D01*
X147174292Y-93378603D01*
X147299514Y-93311671D01*
X147371097Y-93067702D01*
X146558000Y-92254605D01*
X145744903Y-93067702D01*
X145094694Y-93067702D01*
X145172637Y-92989759D01*
X145306692Y-92789131D01*
X145321329Y-92816514D01*
X145565298Y-92888097D01*
X146378395Y-92075000D01*
X146737605Y-92075000D01*
X147550702Y-92888097D01*
X147794671Y-92816514D01*
X147915571Y-92561004D01*
X147984300Y-92286816D01*
X147998217Y-92004488D01*
X147956787Y-91724870D01*
X147861603Y-91458708D01*
X147794671Y-91333486D01*
X147550702Y-91261903D01*
X146737605Y-92075000D01*
X146378395Y-92075000D01*
X145565298Y-91261903D01*
X145321329Y-91333486D01*
X145307676Y-91362341D01*
X145172637Y-91160241D01*
X145094694Y-91082298D01*
X145744903Y-91082298D01*
X146558000Y-91895395D01*
X147371097Y-91082298D01*
X147299514Y-90838329D01*
X147044004Y-90717429D01*
X146769816Y-90648700D01*
X146487488Y-90634783D01*
X146207870Y-90676213D01*
X145941708Y-90771397D01*
X145816486Y-90838329D01*
X145744903Y-91082298D01*
X145094694Y-91082298D01*
X144972759Y-90960363D01*
X144737727Y-90803320D01*
X144476574Y-90695147D01*
X144199335Y-90640000D01*
X143916665Y-90640000D01*
X143639426Y-90695147D01*
X143378273Y-90803320D01*
X143143241Y-90960363D01*
X142943363Y-91160241D01*
X142923479Y-91190000D01*
X142754579Y-91190000D01*
X142443000Y-90878422D01*
X142443000Y-89821578D01*
X145654579Y-86610000D01*
X162701422Y-86610000D01*
X165012953Y-88921532D01*
X165012958Y-88921536D01*
X167263000Y-91171579D01*
X167263001Y-107271521D01*
X167258719Y-107315000D01*
X167275805Y-107488490D01*
X167326412Y-107655313D01*
X167408590Y-107809059D01*
X167491468Y-107910046D01*
X167491471Y-107910049D01*
X167519184Y-107943817D01*
X167552951Y-107971529D01*
X168761470Y-109180049D01*
X168789183Y-109213817D01*
X168822951Y-109241530D01*
X168822953Y-109241532D01*
X168845399Y-109259953D01*
X168923941Y-109324411D01*
X169077687Y-109406589D01*
X169244510Y-109457195D01*
X169374523Y-109470000D01*
X169374533Y-109470000D01*
X169417999Y-109474281D01*
X169461465Y-109470000D01*
X171577135Y-109470000D01*
X171591969Y-109497752D01*
X171796286Y-109746714D01*
X171928233Y-109855000D01*
X171796286Y-109963286D01*
X171591969Y-110212248D01*
X171440148Y-110496285D01*
X171346657Y-110804484D01*
X171315089Y-111125000D01*
X171346657Y-111445516D01*
X171440148Y-111753715D01*
X171591969Y-112037752D01*
X171796286Y-112286714D01*
X171928233Y-112395000D01*
X171796286Y-112503286D01*
X171591969Y-112752248D01*
X171440148Y-113036285D01*
X171346657Y-113344484D01*
X171315089Y-113665000D01*
X171346657Y-113985516D01*
X171440148Y-114293715D01*
X171591969Y-114577752D01*
X171796286Y-114826714D01*
X172045248Y-115031031D01*
X172329285Y-115182852D01*
X172343000Y-115187012D01*
X172343001Y-122188420D01*
X172316196Y-122215225D01*
X172251776Y-122195684D01*
X171958000Y-122166749D01*
X171664223Y-122195684D01*
X171381736Y-122281375D01*
X171121394Y-122420531D01*
X170893203Y-122607803D01*
X170705931Y-122835995D01*
X170688000Y-122869541D01*
X170670069Y-122835994D01*
X170482797Y-122607803D01*
X170254605Y-122420531D01*
X169994263Y-122281375D01*
X169711776Y-122195684D01*
X169418000Y-122166749D01*
X169124223Y-122195684D01*
X168841736Y-122281375D01*
X168581394Y-122420531D01*
X168353203Y-122607803D01*
X168165931Y-122835995D01*
X168148000Y-122869541D01*
X168130069Y-122835994D01*
X167942797Y-122607803D01*
X167714605Y-122420531D01*
X167454263Y-122281375D01*
X167171776Y-122195684D01*
X166878000Y-122166749D01*
X166584223Y-122195684D01*
X166301736Y-122281375D01*
X166041394Y-122420531D01*
X165813203Y-122607803D01*
X165625931Y-122835995D01*
X165608000Y-122869541D01*
X165590069Y-122835994D01*
X165402797Y-122607803D01*
X165174605Y-122420531D01*
X164914263Y-122281375D01*
X164631776Y-122195684D01*
X164338000Y-122166749D01*
X164044223Y-122195684D01*
X163761736Y-122281375D01*
X163501394Y-122420531D01*
X163273203Y-122607803D01*
X163085931Y-122835995D01*
X163068000Y-122869541D01*
X163050069Y-122835994D01*
X162862797Y-122607803D01*
X162683000Y-122460248D01*
X162683000Y-119111578D01*
X164193049Y-117601530D01*
X164226817Y-117573817D01*
X164302415Y-117481702D01*
X164337410Y-117439060D01*
X164376374Y-117366163D01*
X164419589Y-117285313D01*
X164470195Y-117118490D01*
X164483000Y-116988477D01*
X164483000Y-116988467D01*
X164487281Y-116945001D01*
X164483000Y-116901535D01*
X164483000Y-109408465D01*
X164487281Y-109364999D01*
X164483000Y-109321533D01*
X164483000Y-109321523D01*
X164470195Y-109191510D01*
X164419589Y-109024687D01*
X164337411Y-108870941D01*
X164226817Y-108736183D01*
X164193050Y-108708472D01*
X159664534Y-104179956D01*
X159636817Y-104146183D01*
X159502059Y-104035589D01*
X159348313Y-103953411D01*
X159181490Y-103902805D01*
X159051477Y-103890000D01*
X159051469Y-103890000D01*
X159008000Y-103885719D01*
X158964531Y-103890000D01*
X156450975Y-103890000D01*
X156299013Y-103738038D01*
X156080359Y-103591939D01*
X155837405Y-103491304D01*
X155579486Y-103440000D01*
X155364579Y-103440000D01*
X154783000Y-102858422D01*
X154783000Y-92399521D01*
X154812759Y-92379637D01*
X154934694Y-92257702D01*
X160584903Y-92257702D01*
X160656486Y-92501671D01*
X160911996Y-92622571D01*
X161186184Y-92691300D01*
X161468512Y-92705217D01*
X161748130Y-92663787D01*
X162014292Y-92568603D01*
X162139514Y-92501671D01*
X162211097Y-92257702D01*
X161398000Y-91444605D01*
X160584903Y-92257702D01*
X154934694Y-92257702D01*
X155012637Y-92179759D01*
X155169680Y-91944727D01*
X155277853Y-91683574D01*
X155333000Y-91406335D01*
X155333000Y-91335512D01*
X159957783Y-91335512D01*
X159999213Y-91615130D01*
X160094397Y-91881292D01*
X160161329Y-92006514D01*
X160405298Y-92078097D01*
X161218395Y-91265000D01*
X161577605Y-91265000D01*
X162390702Y-92078097D01*
X162634671Y-92006514D01*
X162755571Y-91751004D01*
X162824300Y-91476816D01*
X162838217Y-91194488D01*
X162796787Y-90914870D01*
X162701603Y-90648708D01*
X162634671Y-90523486D01*
X162390702Y-90451903D01*
X161577605Y-91265000D01*
X161218395Y-91265000D01*
X160405298Y-90451903D01*
X160161329Y-90523486D01*
X160040429Y-90778996D01*
X159971700Y-91053184D01*
X159957783Y-91335512D01*
X155333000Y-91335512D01*
X155333000Y-91123665D01*
X155277853Y-90846426D01*
X155169680Y-90585273D01*
X155012637Y-90350241D01*
X154934694Y-90272298D01*
X160584903Y-90272298D01*
X161398000Y-91085395D01*
X162211097Y-90272298D01*
X162139514Y-90028329D01*
X161884004Y-89907429D01*
X161609816Y-89838700D01*
X161327488Y-89824783D01*
X161047870Y-89866213D01*
X160781708Y-89961397D01*
X160656486Y-90028329D01*
X160584903Y-90272298D01*
X154934694Y-90272298D01*
X154812759Y-90150363D01*
X154577727Y-89993320D01*
X154316574Y-89885147D01*
X154039335Y-89830000D01*
X153756665Y-89830000D01*
X153479426Y-89885147D01*
X153218273Y-89993320D01*
X152983241Y-90150363D01*
X152783363Y-90350241D01*
X152626320Y-90585273D01*
X152518147Y-90846426D01*
X152463000Y-91123665D01*
X152463000Y-91406335D01*
X152518147Y-91683574D01*
X152626320Y-91944727D01*
X152783363Y-92179759D01*
X152983241Y-92379637D01*
X153013000Y-92399521D01*
X153013001Y-103181521D01*
X153008719Y-103225000D01*
X153025805Y-103398490D01*
X153076412Y-103565313D01*
X153158590Y-103719059D01*
X153241468Y-103820046D01*
X153241471Y-103820049D01*
X153269184Y-103853817D01*
X153302951Y-103881529D01*
X154113000Y-104691579D01*
X154113000Y-104906486D01*
X154164304Y-105164405D01*
X154264939Y-105407359D01*
X154411038Y-105626013D01*
X154596987Y-105811962D01*
X154815641Y-105958061D01*
X155058595Y-106058696D01*
X155316514Y-106110000D01*
X155579486Y-106110000D01*
X155837405Y-106058696D01*
X156080359Y-105958061D01*
X156299013Y-105811962D01*
X156450975Y-105660000D01*
X158641422Y-105660000D01*
X162713000Y-109731579D01*
X162713001Y-116578420D01*
X161202956Y-118088466D01*
X161169183Y-118116183D01*
X161058589Y-118250942D01*
X160976411Y-118404688D01*
X160925805Y-118571511D01*
X160913000Y-118701524D01*
X160913000Y-118701531D01*
X160908719Y-118745000D01*
X160913000Y-118788469D01*
X160913001Y-122460246D01*
X160733203Y-122607803D01*
X160545931Y-122835995D01*
X160406775Y-123096337D01*
X160321084Y-123378824D01*
X160299400Y-123598982D01*
X160299400Y-124051019D01*
X160321084Y-124271177D01*
X160406775Y-124553664D01*
X160545931Y-124814006D01*
X160733203Y-125042197D01*
X160961395Y-125229469D01*
X161221737Y-125368625D01*
X161504224Y-125454316D01*
X161798000Y-125483251D01*
X162091777Y-125454316D01*
X162374264Y-125368625D01*
X162634606Y-125229469D01*
X162862797Y-125042197D01*
X163050069Y-124814006D01*
X163068000Y-124780459D01*
X163085931Y-124814006D01*
X163273203Y-125042197D01*
X163501395Y-125229469D01*
X163761737Y-125368625D01*
X164044224Y-125454316D01*
X164338000Y-125483251D01*
X164631777Y-125454316D01*
X164914264Y-125368625D01*
X165174606Y-125229469D01*
X165402797Y-125042197D01*
X165590069Y-124814006D01*
X165608000Y-124780459D01*
X165625931Y-124814006D01*
X165813203Y-125042197D01*
X166041395Y-125229469D01*
X166301737Y-125368625D01*
X166584224Y-125454316D01*
X166878000Y-125483251D01*
X167171777Y-125454316D01*
X167454264Y-125368625D01*
X167714606Y-125229469D01*
X167942797Y-125042197D01*
X168130069Y-124814006D01*
X168148000Y-124780459D01*
X168165931Y-124814006D01*
X168353203Y-125042197D01*
X168581395Y-125229469D01*
X168841737Y-125368625D01*
X169124224Y-125454316D01*
X169418000Y-125483251D01*
X169711777Y-125454316D01*
X169994264Y-125368625D01*
X170254606Y-125229469D01*
X170482797Y-125042197D01*
X170670069Y-124814006D01*
X170688000Y-124780459D01*
X170705931Y-124814006D01*
X170893203Y-125042197D01*
X171121395Y-125229469D01*
X171381737Y-125368625D01*
X171664224Y-125454316D01*
X171958000Y-125483251D01*
X172251777Y-125454316D01*
X172534264Y-125368625D01*
X172794606Y-125229469D01*
X173022797Y-125042197D01*
X173210069Y-124814006D01*
X173228000Y-124780459D01*
X173245931Y-124814006D01*
X173433203Y-125042197D01*
X173661395Y-125229469D01*
X173921737Y-125368625D01*
X174204224Y-125454316D01*
X174498000Y-125483251D01*
X174791777Y-125454316D01*
X175074264Y-125368625D01*
X175334606Y-125229469D01*
X175562797Y-125042197D01*
X175750069Y-124814006D01*
X175889225Y-124553663D01*
X175974916Y-124271176D01*
X175996600Y-124051018D01*
X175996600Y-123598981D01*
X175974916Y-123378823D01*
X175889225Y-123096336D01*
X175750069Y-122835994D01*
X175562797Y-122607803D01*
X175377506Y-122455739D01*
X175370195Y-122381510D01*
X175319589Y-122214687D01*
X175237411Y-122060941D01*
X175140999Y-121943464D01*
X175140999Y-120619706D01*
X175337887Y-120816594D01*
X175774702Y-121108464D01*
X176260065Y-121309508D01*
X176775323Y-121412000D01*
X177300677Y-121412000D01*
X177815935Y-121309508D01*
X178301298Y-121108464D01*
X178738113Y-120816594D01*
X178868000Y-120686707D01*
X178868000Y-120990908D01*
X176560617Y-123298292D01*
X176533526Y-123320525D01*
X176511293Y-123347616D01*
X176444801Y-123428637D01*
X176378872Y-123551981D01*
X176338274Y-123685816D01*
X176324565Y-123825000D01*
X176328001Y-123859885D01*
X176328000Y-125655000D01*
X126909707Y-125655000D01*
X127039594Y-125525113D01*
X127331464Y-125088298D01*
X127532508Y-124602935D01*
X127635000Y-124087677D01*
X127635000Y-123562323D01*
X127532508Y-123047065D01*
X127331464Y-122561702D01*
X127039594Y-122124887D01*
X126668113Y-121753406D01*
X126231298Y-121461536D01*
X125745935Y-121260492D01*
X125230677Y-121158000D01*
X124705323Y-121158000D01*
X124190065Y-121260492D01*
X123704702Y-121461536D01*
X123267887Y-121753406D01*
X122896406Y-122124887D01*
X122604536Y-122561702D01*
X122403492Y-123047065D01*
X122301000Y-123562323D01*
X122301000Y-124087677D01*
X122403492Y-124602935D01*
X122604536Y-125088298D01*
X122896406Y-125525113D01*
X123026293Y-125655000D01*
X111708000Y-125655000D01*
X111708000Y-103373514D01*
X113473000Y-103373514D01*
X113473000Y-103636486D01*
X113524304Y-103894405D01*
X113624939Y-104137359D01*
X113771038Y-104356013D01*
X113923000Y-104507975D01*
X113923001Y-106312024D01*
X113771038Y-106463987D01*
X113624939Y-106682641D01*
X113524304Y-106925595D01*
X113473000Y-107183514D01*
X113473000Y-107446486D01*
X113524304Y-107704405D01*
X113624939Y-107947359D01*
X113771038Y-108166013D01*
X113956987Y-108351962D01*
X114175641Y-108498061D01*
X114418595Y-108598696D01*
X114676514Y-108650000D01*
X114939486Y-108650000D01*
X115197405Y-108598696D01*
X115440359Y-108498061D01*
X115659013Y-108351962D01*
X115844962Y-108166013D01*
X115991061Y-107947359D01*
X116091696Y-107704405D01*
X116143000Y-107446486D01*
X116143000Y-107183514D01*
X116091696Y-106925595D01*
X115991061Y-106682641D01*
X115844962Y-106463987D01*
X115693000Y-106312025D01*
X115693000Y-104507975D01*
X115844962Y-104356013D01*
X115991061Y-104137359D01*
X116091696Y-103894405D01*
X116143000Y-103636486D01*
X116143000Y-103373514D01*
X116091696Y-103115595D01*
X115991061Y-102872641D01*
X115844962Y-102653987D01*
X115659013Y-102468038D01*
X115440359Y-102321939D01*
X115197405Y-102221304D01*
X114939486Y-102170000D01*
X114676514Y-102170000D01*
X114418595Y-102221304D01*
X114175641Y-102321939D01*
X113956987Y-102468038D01*
X113771038Y-102653987D01*
X113624939Y-102872641D01*
X113524304Y-103115595D01*
X113473000Y-103373514D01*
X111708000Y-103373514D01*
X111708000Y-73735000D01*
X124296293Y-73735000D01*
X124166406Y-73864887D01*
%TA.AperFunction,Conductor*%
D20*
G36*
X124166406Y-73864887D02*
G01*
X123874536Y-74301702D01*
X123673492Y-74787065D01*
X123571000Y-75302323D01*
X123571000Y-75827677D01*
X123673492Y-76342935D01*
X123874536Y-76828298D01*
X124166406Y-77265113D01*
X124537887Y-77636594D01*
X124974702Y-77928464D01*
X125460065Y-78129508D01*
X125975323Y-78232000D01*
X126500677Y-78232000D01*
X127015935Y-78129508D01*
X127501298Y-77928464D01*
X127938113Y-77636594D01*
X128309594Y-77265113D01*
X128601464Y-76828298D01*
X128657001Y-76694219D01*
X128729203Y-76782197D01*
X128957395Y-76969469D01*
X129217737Y-77108625D01*
X129500224Y-77194316D01*
X129794000Y-77223251D01*
X130087777Y-77194316D01*
X130370264Y-77108625D01*
X130630606Y-76969469D01*
X130858797Y-76782197D01*
X131046069Y-76554006D01*
X131064000Y-76520459D01*
X131081931Y-76554006D01*
X131269203Y-76782197D01*
X131497395Y-76969469D01*
X131757737Y-77108625D01*
X132040224Y-77194316D01*
X132334000Y-77223251D01*
X132627777Y-77194316D01*
X132910264Y-77108625D01*
X133170606Y-76969469D01*
X133398797Y-76782197D01*
X133586069Y-76554006D01*
X133604000Y-76520459D01*
X133621931Y-76554006D01*
X133809203Y-76782197D01*
X134037395Y-76969469D01*
X134297737Y-77108625D01*
X134580224Y-77194316D01*
X134874000Y-77223251D01*
X135167777Y-77194316D01*
X135450264Y-77108625D01*
X135710606Y-76969469D01*
X135938797Y-76782197D01*
X136126069Y-76554006D01*
X136147424Y-76514053D01*
X136295514Y-76716729D01*
X136511965Y-76915733D01*
X136763081Y-77068686D01*
X137039211Y-77169709D01*
X137054974Y-77172358D01*
X137287000Y-77051217D01*
X137287000Y-75692000D01*
X137267000Y-75692000D01*
X137267000Y-75438000D01*
X137287000Y-75438000D01*
X137287000Y-74078783D01*
X137541000Y-74078783D01*
X137541000Y-75438000D01*
X137561000Y-75438000D01*
X137561000Y-75692000D01*
X137541000Y-75692000D01*
X137541000Y-77051217D01*
X137773026Y-77172358D01*
X137788789Y-77169709D01*
X138064919Y-77068686D01*
X138316035Y-76915733D01*
X138532486Y-76716729D01*
X138680576Y-76514053D01*
X138701931Y-76554006D01*
X138889203Y-76782197D01*
X139117395Y-76969469D01*
X139377737Y-77108625D01*
X139660224Y-77194316D01*
X139954000Y-77223251D01*
X140247777Y-77194316D01*
X140530264Y-77108625D01*
X140790606Y-76969469D01*
X141018797Y-76782197D01*
X141206069Y-76554006D01*
X141224000Y-76520459D01*
X141241931Y-76554006D01*
X141429203Y-76782197D01*
X141657395Y-76969469D01*
X141917737Y-77108625D01*
X142200224Y-77194316D01*
X142494000Y-77223251D01*
X142787777Y-77194316D01*
X143070264Y-77108625D01*
X143330606Y-76969469D01*
X143558797Y-76782197D01*
X143746069Y-76554006D01*
X143764000Y-76520459D01*
X143781931Y-76554006D01*
X143969203Y-76782197D01*
X144149000Y-76929753D01*
X144149001Y-79194645D01*
X144126286Y-79213286D01*
X144019716Y-79343143D01*
X143814317Y-79129078D01*
X143550761Y-78944990D01*
X143256355Y-78815856D01*
X143128434Y-78784876D01*
X142875000Y-78904223D01*
X142875000Y-80518000D01*
X142895000Y-80518000D01*
X142895000Y-80772000D01*
X142875000Y-80772000D01*
X142875000Y-82385777D01*
X143128434Y-82505124D01*
X143256355Y-82474144D01*
X143550761Y-82345010D01*
X143814317Y-82160922D01*
X144019716Y-81946858D01*
X144126286Y-82076714D01*
X144375249Y-82281031D01*
X144659286Y-82432852D01*
X144967485Y-82526343D01*
X145288000Y-82557911D01*
X145608516Y-82526343D01*
X145916715Y-82432852D01*
X146200752Y-82281031D01*
X146449714Y-82076714D01*
X146558000Y-81944767D01*
X146666286Y-82076714D01*
X146915249Y-82281031D01*
X147199286Y-82432852D01*
X147507485Y-82526343D01*
X147828000Y-82557911D01*
X148148516Y-82526343D01*
X148456715Y-82432852D01*
X148740752Y-82281031D01*
X148989714Y-82076714D01*
X149098000Y-81944767D01*
X149206286Y-82076714D01*
X149455249Y-82281031D01*
X149739286Y-82432852D01*
X150047485Y-82526343D01*
X150368000Y-82557911D01*
X150688516Y-82526343D01*
X150996715Y-82432852D01*
X151280752Y-82281031D01*
X151529714Y-82076714D01*
X151638000Y-81944767D01*
X151746286Y-82076714D01*
X151995249Y-82281031D01*
X152279286Y-82432852D01*
X152587485Y-82526343D01*
X152908000Y-82557911D01*
X153228516Y-82526343D01*
X153536715Y-82432852D01*
X153820752Y-82281031D01*
X154069714Y-82076714D01*
X154274031Y-81827752D01*
X154425852Y-81543715D01*
X154519343Y-81235515D01*
X154543000Y-80995321D01*
X154543000Y-80294678D01*
X154519343Y-80054484D01*
X154425852Y-79746285D01*
X154274031Y-79462248D01*
X154069714Y-79213286D01*
X153820751Y-79008969D01*
X153536714Y-78857148D01*
X153228515Y-78763657D01*
X152908000Y-78732089D01*
X152587484Y-78763657D01*
X152279285Y-78857148D01*
X151995248Y-79008969D01*
X151746286Y-79213286D01*
X151638000Y-79345234D01*
X151529714Y-79213286D01*
X151280751Y-79008969D01*
X150996714Y-78857148D01*
X150688515Y-78763657D01*
X150368000Y-78732089D01*
X150047484Y-78763657D01*
X149739285Y-78857148D01*
X149455248Y-79008969D01*
X149206286Y-79213286D01*
X149098000Y-79345234D01*
X148989714Y-79213286D01*
X148740751Y-79008969D01*
X148459000Y-78858370D01*
X148459000Y-76929753D01*
X148638797Y-76782197D01*
X148826069Y-76554006D01*
X148844000Y-76520459D01*
X148861931Y-76554006D01*
X149049203Y-76782197D01*
X149277395Y-76969469D01*
X149537737Y-77108625D01*
X149820224Y-77194316D01*
X150114000Y-77223251D01*
X150407777Y-77194316D01*
X150690264Y-77108625D01*
X150950606Y-76969469D01*
X151178797Y-76782197D01*
X151366069Y-76554006D01*
X151384000Y-76520459D01*
X151401931Y-76554006D01*
X151589203Y-76782197D01*
X151817395Y-76969469D01*
X152077737Y-77108625D01*
X152360224Y-77194316D01*
X152654000Y-77223251D01*
X152947777Y-77194316D01*
X153230264Y-77108625D01*
X153490606Y-76969469D01*
X153718797Y-76782197D01*
X153906069Y-76554006D01*
X154045225Y-76293663D01*
X154130916Y-76011176D01*
X154152600Y-75791018D01*
X154152600Y-75338981D01*
X154130916Y-75118823D01*
X154045225Y-74836336D01*
X153906069Y-74575994D01*
X153718797Y-74347803D01*
X153490605Y-74160531D01*
X153230263Y-74021375D01*
X152947776Y-73935684D01*
X152654000Y-73906749D01*
X152360223Y-73935684D01*
X152077736Y-74021375D01*
X151817394Y-74160531D01*
X151589203Y-74347803D01*
X151401931Y-74575995D01*
X151384000Y-74609541D01*
X151366069Y-74575994D01*
X151178797Y-74347803D01*
X150950605Y-74160531D01*
X150690263Y-74021375D01*
X150407776Y-73935684D01*
X150114000Y-73906749D01*
X149820223Y-73935684D01*
X149537736Y-74021375D01*
X149277394Y-74160531D01*
X149049203Y-74347803D01*
X148861931Y-74575995D01*
X148844000Y-74609541D01*
X148826069Y-74575994D01*
X148638797Y-74347803D01*
X148410605Y-74160531D01*
X148150263Y-74021375D01*
X147867776Y-73935684D01*
X147574000Y-73906749D01*
X147280223Y-73935684D01*
X146997736Y-74021375D01*
X146737394Y-74160531D01*
X146509203Y-74347803D01*
X146321931Y-74575995D01*
X146304000Y-74609541D01*
X146286069Y-74575994D01*
X146098797Y-74347803D01*
X145870605Y-74160531D01*
X145610263Y-74021375D01*
X145327776Y-73935684D01*
X145034000Y-73906749D01*
X144740223Y-73935684D01*
X144457736Y-74021375D01*
X144197394Y-74160531D01*
X143969203Y-74347803D01*
X143781931Y-74575995D01*
X143764000Y-74609541D01*
X143746069Y-74575994D01*
X143558797Y-74347803D01*
X143330605Y-74160531D01*
X143070263Y-74021375D01*
X142787776Y-73935684D01*
X142494000Y-73906749D01*
X142200223Y-73935684D01*
X141917736Y-74021375D01*
X141657394Y-74160531D01*
X141429203Y-74347803D01*
X141241931Y-74575995D01*
X141224000Y-74609541D01*
X141206069Y-74575994D01*
X141018797Y-74347803D01*
X140790605Y-74160531D01*
X140530263Y-74021375D01*
X140247776Y-73935684D01*
X139954000Y-73906749D01*
X139660223Y-73935684D01*
X139377736Y-74021375D01*
X139117394Y-74160531D01*
X138889203Y-74347803D01*
X138701931Y-74575995D01*
X138680576Y-74615947D01*
X138532486Y-74413271D01*
X138316035Y-74214267D01*
X138064919Y-74061314D01*
X137788789Y-73960291D01*
X137773026Y-73957642D01*
X137541000Y-74078783D01*
X137287000Y-74078783D01*
X137054974Y-73957642D01*
X137039211Y-73960291D01*
X136763081Y-74061314D01*
X136511965Y-74214267D01*
X136295514Y-74413271D01*
X136147424Y-74615947D01*
X136126069Y-74575994D01*
X135938797Y-74347803D01*
X135710605Y-74160531D01*
X135450263Y-74021375D01*
X135167776Y-73935684D01*
X134874000Y-73906749D01*
X134580223Y-73935684D01*
X134297736Y-74021375D01*
X134037394Y-74160531D01*
X133809203Y-74347803D01*
X133621931Y-74575995D01*
X133604000Y-74609541D01*
X133586069Y-74575994D01*
X133398797Y-74347803D01*
X133170605Y-74160531D01*
X132910263Y-74021375D01*
X132627776Y-73935684D01*
X132334000Y-73906749D01*
X132040223Y-73935684D01*
X131757736Y-74021375D01*
X131497394Y-74160531D01*
X131269203Y-74347803D01*
X131081931Y-74575995D01*
X131064000Y-74609541D01*
X131046069Y-74575994D01*
X130858797Y-74347803D01*
X130630605Y-74160531D01*
X130370263Y-74021375D01*
X130087776Y-73935684D01*
X129794000Y-73906749D01*
X129500223Y-73935684D01*
X129217736Y-74021375D01*
X128957394Y-74160531D01*
X128729203Y-74347803D01*
X128657001Y-74435781D01*
X128601464Y-74301702D01*
X128309594Y-73864887D01*
X128179707Y-73735000D01*
X175219909Y-73735000D01*
X176328001Y-74843093D01*
X176328000Y-85944125D01*
X176324565Y-85979000D01*
X176328000Y-86013875D01*
X176328000Y-86013876D01*
X176338273Y-86118183D01*
X176378872Y-86252019D01*
X176444800Y-86375362D01*
X176533525Y-86483474D01*
X176560617Y-86505708D01*
X178868001Y-88813093D01*
X178868001Y-88863294D01*
X178738113Y-88733406D01*
X178301298Y-88441536D01*
X177815935Y-88240492D01*
X177300677Y-88138000D01*
X176775323Y-88138000D01*
X176260065Y-88240492D01*
X175774702Y-88441536D01*
X175337887Y-88733406D01*
X174966406Y-89104887D01*
X174674536Y-89541702D01*
X174473492Y-90027065D01*
X174371000Y-90542323D01*
X174371000Y-91067677D01*
X174473492Y-91582935D01*
X174674536Y-92068298D01*
X174966406Y-92505113D01*
X175337887Y-92876594D01*
X175774702Y-93168464D01*
X176260065Y-93369508D01*
X176775323Y-93472000D01*
X177300677Y-93472000D01*
X177815935Y-93369508D01*
X178301298Y-93168464D01*
X178738113Y-92876594D01*
X178868001Y-92746706D01*
X178868000Y-116803293D01*
X178738113Y-116673406D01*
X178301298Y-116381536D01*
X177815935Y-116180492D01*
X177300677Y-116078000D01*
X176775323Y-116078000D01*
X176629299Y-116107046D01*
X176640195Y-116071128D01*
X176653000Y-115941115D01*
X176653000Y-115941105D01*
X176657281Y-115897639D01*
X176653000Y-115854173D01*
X176653000Y-112438465D01*
X176657281Y-112394999D01*
X176653000Y-112351533D01*
X176653000Y-112351523D01*
X176640195Y-112221510D01*
X176589589Y-112054687D01*
X176507411Y-111900941D01*
X176457359Y-111839953D01*
X176424532Y-111799953D01*
X176424530Y-111799951D01*
X176396817Y-111766183D01*
X176363050Y-111738471D01*
X175154534Y-110529956D01*
X175126817Y-110496183D01*
X174992059Y-110385589D01*
X174942535Y-110359118D01*
X174864031Y-110212248D01*
X174659714Y-109963286D01*
X174527767Y-109855000D01*
X174659714Y-109746714D01*
X174864031Y-109497752D01*
X175015852Y-109213715D01*
X175109343Y-108905516D01*
X175140911Y-108585000D01*
X175109343Y-108264484D01*
X175015852Y-107956285D01*
X174864031Y-107672248D01*
X174659714Y-107423286D01*
X174529858Y-107316716D01*
X174743922Y-107111317D01*
X174928010Y-106847761D01*
X175057144Y-106553355D01*
X175088124Y-106425434D01*
X174968777Y-106172000D01*
X173355000Y-106172000D01*
X173355000Y-106192000D01*
X173101000Y-106192000D01*
X173101000Y-106172000D01*
X171487223Y-106172000D01*
X171367876Y-106425434D01*
X171398856Y-106553355D01*
X171527990Y-106847761D01*
X171712078Y-107111317D01*
X171926142Y-107316716D01*
X171796286Y-107423286D01*
X171591969Y-107672248D01*
X171577135Y-107700000D01*
X169784579Y-107700000D01*
X169033000Y-106948422D01*
X169033000Y-105664566D01*
X171367876Y-105664566D01*
X171487223Y-105918000D01*
X173101000Y-105918000D01*
X173101000Y-104410000D01*
X173355000Y-104410000D01*
X173355000Y-105918000D01*
X174968777Y-105918000D01*
X175088124Y-105664566D01*
X175057144Y-105536645D01*
X174928010Y-105242239D01*
X174743922Y-104978683D01*
X174511954Y-104756105D01*
X174241020Y-104583058D01*
X173941532Y-104466193D01*
X173625000Y-104410000D01*
X173355000Y-104410000D01*
X173101000Y-104410000D01*
X172831000Y-104410000D01*
X172514468Y-104466193D01*
X172214980Y-104583058D01*
X171944046Y-104756105D01*
X171712078Y-104978683D01*
X171527990Y-105242239D01*
X171398856Y-105536645D01*
X171367876Y-105664566D01*
X169033000Y-105664566D01*
X169033000Y-92455434D01*
X170097876Y-92455434D01*
X170128856Y-92583355D01*
X170257990Y-92877761D01*
X170442078Y-93141317D01*
X170674046Y-93363895D01*
X170944980Y-93536942D01*
X171244468Y-93653807D01*
X171561000Y-93710000D01*
X171831000Y-93710000D01*
X171831000Y-92202000D01*
X172085000Y-92202000D01*
X172085000Y-93710000D01*
X172355000Y-93710000D01*
X172671532Y-93653807D01*
X172971020Y-93536942D01*
X173241954Y-93363895D01*
X173473922Y-93141317D01*
X173658010Y-92877761D01*
X173787144Y-92583355D01*
X173818124Y-92455434D01*
X173698777Y-92202000D01*
X172085000Y-92202000D01*
X171831000Y-92202000D01*
X170217223Y-92202000D01*
X170097876Y-92455434D01*
X169033000Y-92455434D01*
X169033000Y-91171578D01*
X169784579Y-90420000D01*
X170307135Y-90420000D01*
X170321969Y-90447752D01*
X170526286Y-90696714D01*
X170656142Y-90803284D01*
X170442078Y-91008683D01*
X170257990Y-91272239D01*
X170128856Y-91566645D01*
X170097876Y-91694566D01*
X170217223Y-91948000D01*
X171831000Y-91948000D01*
X171831000Y-91928000D01*
X172085000Y-91928000D01*
X172085000Y-91948000D01*
X173698777Y-91948000D01*
X173818124Y-91694566D01*
X173787144Y-91566645D01*
X173658010Y-91272239D01*
X173473922Y-91008683D01*
X173259858Y-90803284D01*
X173389714Y-90696714D01*
X173594031Y-90447752D01*
X173745852Y-90163715D01*
X173839343Y-89855516D01*
X173870911Y-89535000D01*
X173839343Y-89214484D01*
X173745852Y-88906285D01*
X173594031Y-88622248D01*
X173389714Y-88373286D01*
X173257767Y-88265000D01*
X173389714Y-88156714D01*
X173594031Y-87907752D01*
X173745852Y-87623715D01*
X173839343Y-87315516D01*
X173870911Y-86995000D01*
X173839343Y-86674484D01*
X173745852Y-86366285D01*
X173594031Y-86082248D01*
X173389714Y-85833286D01*
X173257767Y-85725000D01*
X173389714Y-85616714D01*
X173594031Y-85367752D01*
X173745852Y-85083715D01*
X173839343Y-84775516D01*
X173870911Y-84455000D01*
X173839343Y-84134484D01*
X173745852Y-83826285D01*
X173594031Y-83542248D01*
X173389714Y-83293286D01*
X173257767Y-83185000D01*
X173389714Y-83076714D01*
X173594031Y-82827752D01*
X173745852Y-82543715D01*
X173839343Y-82235516D01*
X173870911Y-81915000D01*
X173839343Y-81594484D01*
X173745852Y-81286285D01*
X173594031Y-81002248D01*
X173389714Y-80753286D01*
X173140752Y-80548969D01*
X172856715Y-80397148D01*
X172548516Y-80303657D01*
X172308322Y-80280000D01*
X171607678Y-80280000D01*
X171367484Y-80303657D01*
X171059285Y-80397148D01*
X170775248Y-80548969D01*
X170664465Y-80639886D01*
X170303000Y-80278422D01*
X170303000Y-76929753D01*
X170482797Y-76782197D01*
X170670069Y-76554006D01*
X170688000Y-76520459D01*
X170705931Y-76554006D01*
X170893203Y-76782197D01*
X171121395Y-76969469D01*
X171381737Y-77108625D01*
X171664224Y-77194316D01*
X171958000Y-77223251D01*
X172251777Y-77194316D01*
X172534264Y-77108625D01*
X172794606Y-76969469D01*
X173022797Y-76782197D01*
X173210069Y-76554006D01*
X173228000Y-76520459D01*
X173245931Y-76554006D01*
X173433203Y-76782197D01*
X173661395Y-76969469D01*
X173921737Y-77108625D01*
X174204224Y-77194316D01*
X174498000Y-77223251D01*
X174791777Y-77194316D01*
X175074264Y-77108625D01*
X175334606Y-76969469D01*
X175562797Y-76782197D01*
X175750069Y-76554006D01*
X175889225Y-76293663D01*
X175974916Y-76011176D01*
X175996600Y-75791018D01*
X175996600Y-75338981D01*
X175974916Y-75118823D01*
X175889225Y-74836336D01*
X175750069Y-74575994D01*
X175562797Y-74347803D01*
X175334605Y-74160531D01*
X175074263Y-74021375D01*
X174791776Y-73935684D01*
X174498000Y-73906749D01*
X174204223Y-73935684D01*
X173921736Y-74021375D01*
X173661394Y-74160531D01*
X173433203Y-74347803D01*
X173245931Y-74575995D01*
X173228000Y-74609541D01*
X173210069Y-74575994D01*
X173022797Y-74347803D01*
X172794605Y-74160531D01*
X172534263Y-74021375D01*
X172251776Y-73935684D01*
X171958000Y-73906749D01*
X171664223Y-73935684D01*
X171381736Y-74021375D01*
X171121394Y-74160531D01*
X170893203Y-74347803D01*
X170705931Y-74575995D01*
X170688000Y-74609541D01*
X170670069Y-74575994D01*
X170482797Y-74347803D01*
X170254605Y-74160531D01*
X169994263Y-74021375D01*
X169711776Y-73935684D01*
X169418000Y-73906749D01*
X169124223Y-73935684D01*
X168841736Y-74021375D01*
X168581394Y-74160531D01*
X168353203Y-74347803D01*
X168165931Y-74575995D01*
X168148000Y-74609541D01*
X168130069Y-74575994D01*
X167942797Y-74347803D01*
X167714605Y-74160531D01*
X167454263Y-74021375D01*
X167171776Y-73935684D01*
X166878000Y-73906749D01*
X166584223Y-73935684D01*
X166301736Y-74021375D01*
X166041394Y-74160531D01*
X165813203Y-74347803D01*
X165625931Y-74575995D01*
X165608000Y-74609541D01*
X165590069Y-74575994D01*
X165402797Y-74347803D01*
X165174605Y-74160531D01*
X164914263Y-74021375D01*
X164631776Y-73935684D01*
X164338000Y-73906749D01*
X164044223Y-73935684D01*
X163761736Y-74021375D01*
X163501394Y-74160531D01*
X163273203Y-74347803D01*
X163085931Y-74575995D01*
X163068000Y-74609541D01*
X163050069Y-74575994D01*
X162862797Y-74347803D01*
X162634605Y-74160531D01*
X162374263Y-74021375D01*
X162091776Y-73935684D01*
X161798000Y-73906749D01*
X161504223Y-73935684D01*
X161221736Y-74021375D01*
X160961394Y-74160531D01*
X160733203Y-74347803D01*
X160545931Y-74575995D01*
X160528000Y-74609541D01*
X160510069Y-74575994D01*
X160322797Y-74347803D01*
X160094605Y-74160531D01*
X159834263Y-74021375D01*
X159551776Y-73935684D01*
X159258000Y-73906749D01*
X158964223Y-73935684D01*
X158681736Y-74021375D01*
X158421394Y-74160531D01*
X158193203Y-74347803D01*
X158005931Y-74575995D01*
X157988000Y-74609541D01*
X157970069Y-74575994D01*
X157782797Y-74347803D01*
X157554605Y-74160531D01*
X157294263Y-74021375D01*
X157011776Y-73935684D01*
X156718000Y-73906749D01*
X156424223Y-73935684D01*
X156141736Y-74021375D01*
X155881394Y-74160531D01*
X155653203Y-74347803D01*
X155465931Y-74575995D01*
X155326775Y-74836337D01*
X155241084Y-75118824D01*
X155219400Y-75338982D01*
X155219400Y-75791019D01*
X155241084Y-76011177D01*
X155326775Y-76293664D01*
X155465931Y-76554006D01*
X155653203Y-76782197D01*
X155881395Y-76969469D01*
X156141737Y-77108625D01*
X156424224Y-77194316D01*
X156718000Y-77223251D01*
X157011777Y-77194316D01*
X157294264Y-77108625D01*
X157554606Y-76969469D01*
X157782797Y-76782197D01*
X157970069Y-76554006D01*
X157988000Y-76520459D01*
X158005931Y-76554006D01*
X158193203Y-76782197D01*
X158421395Y-76969469D01*
X158681737Y-77108625D01*
X158964224Y-77194316D01*
X159258000Y-77223251D01*
X159551777Y-77194316D01*
X159834264Y-77108625D01*
X160094606Y-76969469D01*
X160322797Y-76782197D01*
X160510069Y-76554006D01*
X160528000Y-76520459D01*
X160545931Y-76554006D01*
X160733203Y-76782197D01*
X160961395Y-76969469D01*
X161221737Y-77108625D01*
X161504224Y-77194316D01*
X161798000Y-77223251D01*
X162091777Y-77194316D01*
X162374264Y-77108625D01*
X162634606Y-76969469D01*
X162862797Y-76782197D01*
X163050069Y-76554006D01*
X163068000Y-76520459D01*
X163085931Y-76554006D01*
X163273203Y-76782197D01*
X163458494Y-76934261D01*
X163465805Y-77008489D01*
X163516411Y-77175312D01*
X163598589Y-77329058D01*
X163709183Y-77463817D01*
X163742956Y-77491534D01*
X164711470Y-78460049D01*
X164739183Y-78493817D01*
X164772951Y-78521530D01*
X164772953Y-78521532D01*
X164844452Y-78580210D01*
X164873941Y-78604411D01*
X165027687Y-78686589D01*
X165143903Y-78721843D01*
X165194509Y-78737195D01*
X165209306Y-78738652D01*
X165324523Y-78750000D01*
X165324531Y-78750000D01*
X165368000Y-78754281D01*
X165411469Y-78750000D01*
X166127196Y-78750000D01*
X166512991Y-79135796D01*
X166512990Y-81409975D01*
X166508709Y-81453444D01*
X166512990Y-81496910D01*
X166512990Y-81496920D01*
X166525795Y-81626933D01*
X166576401Y-81793756D01*
X166658579Y-81947502D01*
X166769173Y-82082261D01*
X166802946Y-82109978D01*
X167913001Y-83220033D01*
X167913000Y-84035757D01*
X167908719Y-84079227D01*
X167913000Y-84122696D01*
X167913000Y-84122703D01*
X167916581Y-84159058D01*
X167925805Y-84252717D01*
X167934540Y-84281510D01*
X167976411Y-84419539D01*
X168058589Y-84573285D01*
X168169183Y-84708044D01*
X168202956Y-84735761D01*
X169013000Y-85545806D01*
X169013000Y-86021531D01*
X169008719Y-86065000D01*
X169013000Y-86108469D01*
X169013000Y-86108476D01*
X169023891Y-86219059D01*
X169025805Y-86238490D01*
X169030992Y-86255589D01*
X169076411Y-86405312D01*
X169158589Y-86559058D01*
X169269183Y-86693817D01*
X169302956Y-86721534D01*
X170154913Y-87573492D01*
X170170148Y-87623715D01*
X170321969Y-87907752D01*
X170526286Y-88156714D01*
X170658233Y-88265000D01*
X170526286Y-88373286D01*
X170321969Y-88622248D01*
X170307135Y-88650000D01*
X169461465Y-88650000D01*
X169417999Y-88645719D01*
X169374533Y-88650000D01*
X169374523Y-88650000D01*
X169244510Y-88662805D01*
X169077687Y-88713411D01*
X168923941Y-88795589D01*
X168923939Y-88795590D01*
X168923940Y-88795590D01*
X168822953Y-88878468D01*
X168822951Y-88878470D01*
X168789183Y-88906183D01*
X168761470Y-88939951D01*
X168148000Y-89553421D01*
X166264536Y-87669958D01*
X166264532Y-87669953D01*
X163724534Y-85129956D01*
X163696817Y-85096183D01*
X163562059Y-84985589D01*
X163408313Y-84903411D01*
X163241490Y-84852805D01*
X163111477Y-84840000D01*
X163111469Y-84840000D01*
X163068000Y-84835719D01*
X163024531Y-84840000D01*
X145331469Y-84840000D01*
X145288000Y-84835719D01*
X145244531Y-84840000D01*
X145244523Y-84840000D01*
X145114510Y-84852805D01*
X144947686Y-84903411D01*
X144793941Y-84985589D01*
X144692953Y-85068468D01*
X144692951Y-85068470D01*
X144659183Y-85096183D01*
X144631470Y-85129951D01*
X141478000Y-88283422D01*
X141093000Y-87898422D01*
X141093000Y-82295865D01*
X141120752Y-82281031D01*
X141369714Y-82076714D01*
X141476284Y-81946858D01*
X141681683Y-82160922D01*
X141945239Y-82345010D01*
X142239645Y-82474144D01*
X142367566Y-82505124D01*
X142621000Y-82385777D01*
X142621000Y-80772000D01*
X142601000Y-80772000D01*
X142601000Y-80518000D01*
X142621000Y-80518000D01*
X142621000Y-78904223D01*
X142367566Y-78784876D01*
X142239645Y-78815856D01*
X141945239Y-78944990D01*
X141681683Y-79129078D01*
X141476284Y-79343142D01*
X141369714Y-79213286D01*
X141120751Y-79008969D01*
X140836714Y-78857148D01*
X140528515Y-78763657D01*
X140208000Y-78732089D01*
X139887484Y-78763657D01*
X139579285Y-78857148D01*
X139295248Y-79008969D01*
X139046286Y-79213286D01*
X138841969Y-79462249D01*
X138690148Y-79746286D01*
X138596657Y-80054485D01*
X138573000Y-80294679D01*
X138573000Y-80995322D01*
X138596657Y-81235516D01*
X138690148Y-81543715D01*
X138841969Y-81827752D01*
X139046286Y-82076714D01*
X139295249Y-82281031D01*
X139323001Y-82295865D01*
X139323000Y-88221531D01*
X139318719Y-88265000D01*
X139323000Y-88308469D01*
X139323000Y-88308476D01*
X139331405Y-88393817D01*
X139335805Y-88438490D01*
X139349648Y-88484123D01*
X139386411Y-88605312D01*
X139468589Y-88759058D01*
X139579183Y-88893817D01*
X139612954Y-88921532D01*
X140673000Y-89981579D01*
X140673001Y-90858421D01*
X140341422Y-91190000D01*
X136728865Y-91190000D01*
X136714031Y-91162248D01*
X136509714Y-90913286D01*
X136377767Y-90805000D01*
X136509714Y-90696714D01*
X136714031Y-90447752D01*
X136865852Y-90163715D01*
X136959343Y-89855516D01*
X136990911Y-89535000D01*
X136959343Y-89214484D01*
X136865852Y-88906285D01*
X136714031Y-88622248D01*
X136509714Y-88373286D01*
X136260752Y-88168969D01*
X135976715Y-88017148D01*
X135668516Y-87923657D01*
X135428322Y-87900000D01*
X134727678Y-87900000D01*
X134487484Y-87923657D01*
X134179285Y-88017148D01*
X133895248Y-88168969D01*
X133646286Y-88373286D01*
X133441969Y-88622248D01*
X133290148Y-88906285D01*
X133196657Y-89214484D01*
X133165089Y-89535000D01*
X133196657Y-89855516D01*
X133290148Y-90163715D01*
X133441969Y-90447752D01*
X133646286Y-90696714D01*
X133778233Y-90805000D01*
X133646286Y-90913286D01*
X133441969Y-91162248D01*
X133427135Y-91190000D01*
X130974579Y-91190000D01*
X130883000Y-91098422D01*
X130883000Y-88668467D01*
X130887281Y-88624998D01*
X130883000Y-88581529D01*
X130883000Y-88581521D01*
X130870195Y-88451508D01*
X130819589Y-88284685D01*
X130737411Y-88130939D01*
X130705052Y-88091510D01*
X130654532Y-88029951D01*
X130654530Y-88029949D01*
X130626817Y-87996181D01*
X130593050Y-87968469D01*
X129794536Y-87169956D01*
X129766819Y-87136183D01*
X129632061Y-87025589D01*
X129478315Y-86943411D01*
X129311492Y-86892805D01*
X129181479Y-86880000D01*
X129181471Y-86880000D01*
X129138002Y-86875719D01*
X129094533Y-86880000D01*
X125941469Y-86880000D01*
X125898000Y-86875719D01*
X125854531Y-86880000D01*
X125854523Y-86880000D01*
X125724510Y-86892805D01*
X125557686Y-86943411D01*
X125403941Y-87025589D01*
X125302953Y-87108468D01*
X125302951Y-87108470D01*
X125269183Y-87136183D01*
X125241470Y-87169951D01*
X124372951Y-88038471D01*
X124339184Y-88066183D01*
X124311471Y-88099951D01*
X124311468Y-88099954D01*
X124228590Y-88200941D01*
X124146412Y-88354687D01*
X124095805Y-88521510D01*
X124078719Y-88695000D01*
X124083001Y-88738479D01*
X124083000Y-92978421D01*
X122061422Y-95000000D01*
X117391469Y-95000000D01*
X117348000Y-94995719D01*
X117304531Y-95000000D01*
X115810975Y-95000000D01*
X115659013Y-94848038D01*
X115440359Y-94701939D01*
X115197405Y-94601304D01*
X114939486Y-94550000D01*
X114676514Y-94550000D01*
X114418595Y-94601304D01*
X114175641Y-94701939D01*
X113956987Y-94848038D01*
X113771038Y-95033987D01*
X113624939Y-95252641D01*
X113524304Y-95495595D01*
X113473000Y-95753514D01*
X113473000Y-96016486D01*
X113524304Y-96274405D01*
X113624939Y-96517359D01*
X113771038Y-96736013D01*
X113956987Y-96921962D01*
X114175641Y-97068061D01*
X114418595Y-97168696D01*
X114676514Y-97220000D01*
X114939486Y-97220000D01*
X115197405Y-97168696D01*
X115440359Y-97068061D01*
X115659013Y-96921962D01*
X115810975Y-96770000D01*
X116981422Y-96770000D01*
X117733000Y-97521579D01*
X117733001Y-108541521D01*
X117728719Y-108585000D01*
X117745805Y-108758490D01*
X117796412Y-108925313D01*
X117878590Y-109079059D01*
X117961468Y-109180046D01*
X117961471Y-109180049D01*
X117989184Y-109213817D01*
X118022951Y-109241529D01*
X119231470Y-110450049D01*
X119259183Y-110483817D01*
X119292951Y-110511530D01*
X119292953Y-110511532D01*
X119315399Y-110529953D01*
X119393941Y-110594411D01*
X119547687Y-110676589D01*
X119714510Y-110727195D01*
X119844523Y-110740000D01*
X119844533Y-110740000D01*
X119887999Y-110744281D01*
X119931465Y-110740000D01*
X122061422Y-110740000D01*
X122813000Y-111491579D01*
X122813001Y-113621521D01*
X122808719Y-113665000D01*
X122825805Y-113838490D01*
X122876412Y-114005313D01*
X122958590Y-114159059D01*
X123041468Y-114260046D01*
X123041471Y-114260049D01*
X123069184Y-114293817D01*
X123102951Y-114321529D01*
X124311470Y-115530049D01*
X124339183Y-115563817D01*
X124372951Y-115591530D01*
X124372953Y-115591532D01*
X124401216Y-115614727D01*
X124473941Y-115674411D01*
X124627687Y-115756589D01*
X124794510Y-115807195D01*
X124924523Y-115820000D01*
X124924533Y-115820000D01*
X124967999Y-115824281D01*
X125011465Y-115820000D01*
X130004531Y-115820000D01*
X130048000Y-115824281D01*
X130091469Y-115820000D01*
X130091477Y-115820000D01*
X130221490Y-115807195D01*
X130388313Y-115756589D01*
X130542059Y-115674411D01*
X130676817Y-115563817D01*
X130704534Y-115530044D01*
X130966248Y-115268330D01*
X132565278Y-115268330D01*
X132655147Y-115514123D01*
X132791241Y-115737660D01*
X132968330Y-115930351D01*
X133179608Y-116084792D01*
X133416956Y-116195047D01*
X133524671Y-116227716D01*
X133731000Y-116104374D01*
X133731000Y-115062000D01*
X133985000Y-115062000D01*
X133985000Y-116104374D01*
X134191329Y-116227716D01*
X134299044Y-116195047D01*
X134536392Y-116084792D01*
X134747670Y-115930351D01*
X134924759Y-115737660D01*
X135060853Y-115514123D01*
X135150722Y-115268330D01*
X135028201Y-115062000D01*
X133985000Y-115062000D01*
X133731000Y-115062000D01*
X132687799Y-115062000D01*
X132565278Y-115268330D01*
X130966248Y-115268330D01*
X131632908Y-114601670D01*
X132565278Y-114601670D01*
X132687799Y-114808000D01*
X133731000Y-114808000D01*
X133731000Y-113765626D01*
X133985000Y-113765626D01*
X133985000Y-114808000D01*
X135028201Y-114808000D01*
X135150722Y-114601670D01*
X135060853Y-114355877D01*
X134924759Y-114132340D01*
X134747670Y-113939649D01*
X134536392Y-113785208D01*
X134299044Y-113674953D01*
X134191329Y-113642284D01*
X133985000Y-113765626D01*
X133731000Y-113765626D01*
X133524671Y-113642284D01*
X133416956Y-113674953D01*
X133179608Y-113785208D01*
X132968330Y-113939649D01*
X132791241Y-114132340D01*
X132655147Y-114355877D01*
X132565278Y-114601670D01*
X131632908Y-114601670D01*
X132954579Y-113280000D01*
X134761422Y-113280000D01*
X139551470Y-118070049D01*
X139579183Y-118103817D01*
X139612951Y-118131530D01*
X139612953Y-118131532D01*
X139713941Y-118214411D01*
X139867687Y-118296589D01*
X140034510Y-118347195D01*
X140164523Y-118360000D01*
X140164531Y-118360000D01*
X140208000Y-118364281D01*
X140251469Y-118360000D01*
X143651422Y-118360000D01*
X147972811Y-122681390D01*
X147845931Y-122835995D01*
X147828000Y-122869541D01*
X147810069Y-122835994D01*
X147622797Y-122607803D01*
X147394605Y-122420531D01*
X147134263Y-122281375D01*
X146851776Y-122195684D01*
X146558000Y-122166749D01*
X146264223Y-122195684D01*
X145981736Y-122281375D01*
X145721394Y-122420531D01*
X145493203Y-122607803D01*
X145305931Y-122835995D01*
X145288000Y-122869541D01*
X145270069Y-122835994D01*
X145082797Y-122607803D01*
X144854605Y-122420531D01*
X144594263Y-122281375D01*
X144311776Y-122195684D01*
X144018000Y-122166749D01*
X143724223Y-122195684D01*
X143441736Y-122281375D01*
X143181394Y-122420531D01*
X142953203Y-122607803D01*
X142765931Y-122835995D01*
X142748000Y-122869541D01*
X142730069Y-122835994D01*
X142542797Y-122607803D01*
X142314605Y-122420531D01*
X142054263Y-122281375D01*
X141771776Y-122195684D01*
X141478000Y-122166749D01*
X141184223Y-122195684D01*
X140901736Y-122281375D01*
X140641394Y-122420531D01*
X140413203Y-122607803D01*
X140225931Y-122835995D01*
X140208000Y-122869541D01*
X140190069Y-122835994D01*
X140002797Y-122607803D01*
X139774605Y-122420531D01*
X139514263Y-122281375D01*
X139231776Y-122195684D01*
X138938000Y-122166749D01*
X138644223Y-122195684D01*
X138361736Y-122281375D01*
X138101394Y-122420531D01*
X137873203Y-122607803D01*
X137685931Y-122835995D01*
X137546775Y-123096337D01*
X137461084Y-123378824D01*
X137439400Y-123598982D01*
X137439400Y-124051019D01*
X137461084Y-124271177D01*
X137546775Y-124553664D01*
X137685931Y-124814006D01*
X137873203Y-125042197D01*
X138101395Y-125229469D01*
X138361737Y-125368625D01*
X138644224Y-125454316D01*
X138938000Y-125483251D01*
X139231777Y-125454316D01*
X139514264Y-125368625D01*
X139774606Y-125229469D01*
X140002797Y-125042197D01*
X140190069Y-124814006D01*
X140208000Y-124780459D01*
X140225931Y-124814006D01*
X140413203Y-125042197D01*
X140641395Y-125229469D01*
X140901737Y-125368625D01*
X141184224Y-125454316D01*
X141478000Y-125483251D01*
X141771777Y-125454316D01*
X142054264Y-125368625D01*
X142314606Y-125229469D01*
X142542797Y-125042197D01*
X142730069Y-124814006D01*
X142748000Y-124780459D01*
X142765931Y-124814006D01*
X142953203Y-125042197D01*
X143181395Y-125229469D01*
X143441737Y-125368625D01*
X143724224Y-125454316D01*
X144018000Y-125483251D01*
X144311777Y-125454316D01*
X144594264Y-125368625D01*
X144854606Y-125229469D01*
X145082797Y-125042197D01*
X145270069Y-124814006D01*
X145288000Y-124780459D01*
X145305931Y-124814006D01*
X145493203Y-125042197D01*
X145721395Y-125229469D01*
X145981737Y-125368625D01*
X146264224Y-125454316D01*
X146558000Y-125483251D01*
X146851777Y-125454316D01*
X147134264Y-125368625D01*
X147394606Y-125229469D01*
X147622797Y-125042197D01*
X147810069Y-124814006D01*
X147828000Y-124780459D01*
X147845931Y-124814006D01*
X148033203Y-125042197D01*
X148261395Y-125229469D01*
X148521737Y-125368625D01*
X148804224Y-125454316D01*
X149098000Y-125483251D01*
X149391777Y-125454316D01*
X149674264Y-125368625D01*
X149934606Y-125229469D01*
X150162797Y-125042197D01*
X150350069Y-124814006D01*
X150371424Y-124774053D01*
X150519514Y-124976729D01*
X150735965Y-125175733D01*
X150987081Y-125328686D01*
X151263211Y-125429709D01*
X151278974Y-125432358D01*
X151511000Y-125311217D01*
X151511000Y-123952000D01*
X151765000Y-123952000D01*
X151765000Y-125311217D01*
X151997026Y-125432358D01*
X152012789Y-125429709D01*
X152288919Y-125328686D01*
X152540035Y-125175733D01*
X152756486Y-124976729D01*
X152908000Y-124769367D01*
X153059514Y-124976729D01*
X153275965Y-125175733D01*
X153527081Y-125328686D01*
X153803211Y-125429709D01*
X153818974Y-125432358D01*
X154051000Y-125311217D01*
X154051000Y-123952000D01*
X151765000Y-123952000D01*
X151511000Y-123952000D01*
X151491000Y-123952000D01*
X151491000Y-123698000D01*
X151511000Y-123698000D01*
X151511000Y-122338783D01*
X151765000Y-122338783D01*
X151765000Y-123698000D01*
X154051000Y-123698000D01*
X154051000Y-122338783D01*
X154305000Y-122338783D01*
X154305000Y-123698000D01*
X154325000Y-123698000D01*
X154325000Y-123952000D01*
X154305000Y-123952000D01*
X154305000Y-125311217D01*
X154537026Y-125432358D01*
X154552789Y-125429709D01*
X154828919Y-125328686D01*
X155080035Y-125175733D01*
X155296486Y-124976729D01*
X155444576Y-124774053D01*
X155465931Y-124814006D01*
X155653203Y-125042197D01*
X155881395Y-125229469D01*
X156141737Y-125368625D01*
X156424224Y-125454316D01*
X156718000Y-125483251D01*
X157011777Y-125454316D01*
X157294264Y-125368625D01*
X157554606Y-125229469D01*
X157782797Y-125042197D01*
X157970069Y-124814006D01*
X158109225Y-124553663D01*
X158194916Y-124271176D01*
X158216600Y-124051018D01*
X158216600Y-123598981D01*
X158194916Y-123378823D01*
X158109225Y-123096336D01*
X157970069Y-122835994D01*
X157782797Y-122607803D01*
X157554605Y-122420531D01*
X157294263Y-122281375D01*
X157011776Y-122195684D01*
X156718000Y-122166749D01*
X156424223Y-122195684D01*
X156141736Y-122281375D01*
X155881394Y-122420531D01*
X155653203Y-122607803D01*
X155465931Y-122835995D01*
X155444576Y-122875947D01*
X155296486Y-122673271D01*
X155080035Y-122474267D01*
X154828919Y-122321314D01*
X154552789Y-122220291D01*
X154537026Y-122217642D01*
X154305000Y-122338783D01*
X154051000Y-122338783D01*
X153818974Y-122217642D01*
X153803211Y-122220291D01*
X153527081Y-122321314D01*
X153275965Y-122474267D01*
X153059514Y-122673271D01*
X152908000Y-122880633D01*
X152756486Y-122673271D01*
X152540035Y-122474267D01*
X152288919Y-122321314D01*
X152012789Y-122220291D01*
X151997026Y-122217642D01*
X151765000Y-122338783D01*
X151511000Y-122338783D01*
X151278974Y-122217642D01*
X151263211Y-122220291D01*
X150987081Y-122321314D01*
X150735965Y-122474267D01*
X150519514Y-122673271D01*
X150371424Y-122875947D01*
X150350069Y-122835994D01*
X150162797Y-122607803D01*
X149977506Y-122455739D01*
X149970195Y-122381510D01*
X149919589Y-122214687D01*
X149837411Y-122060941D01*
X149786113Y-121998435D01*
X149754532Y-121959953D01*
X149754530Y-121959951D01*
X149726817Y-121926183D01*
X149693051Y-121898472D01*
X144674534Y-116879956D01*
X144646817Y-116846183D01*
X144512059Y-116735589D01*
X144358313Y-116653411D01*
X144191490Y-116602805D01*
X144061477Y-116590000D01*
X144061469Y-116590000D01*
X144018000Y-116585719D01*
X143974531Y-116590000D01*
X140574579Y-116590000D01*
X139804579Y-115820000D01*
X141745025Y-115820000D01*
X141896987Y-115971962D01*
X142115641Y-116118061D01*
X142358595Y-116218696D01*
X142616514Y-116270000D01*
X142879486Y-116270000D01*
X143137405Y-116218696D01*
X143380359Y-116118061D01*
X143599013Y-115971962D01*
X143750975Y-115820000D01*
X146693479Y-115820000D01*
X146713363Y-115849759D01*
X146913241Y-116049637D01*
X147148273Y-116206680D01*
X147409426Y-116314853D01*
X147686665Y-116370000D01*
X147969335Y-116370000D01*
X148246574Y-116314853D01*
X148507727Y-116206680D01*
X148742759Y-116049637D01*
X148942637Y-115849759D01*
X148962521Y-115820000D01*
X151905025Y-115820000D01*
X152056987Y-115971962D01*
X152275641Y-116118061D01*
X152518595Y-116218696D01*
X152776514Y-116270000D01*
X153039486Y-116270000D01*
X153297405Y-116218696D01*
X153540359Y-116118061D01*
X153759013Y-115971962D01*
X153874706Y-115856269D01*
X159786336Y-115856269D01*
X159845797Y-116090037D01*
X160084242Y-116200934D01*
X160339740Y-116263183D01*
X160602473Y-116274390D01*
X160862344Y-116234125D01*
X161109366Y-116143935D01*
X161210203Y-116090037D01*
X161269664Y-115856269D01*
X160528000Y-115114605D01*
X159786336Y-115856269D01*
X153874706Y-115856269D01*
X153944962Y-115786013D01*
X154091061Y-115567359D01*
X154191696Y-115324405D01*
X154243000Y-115066486D01*
X154243000Y-115009473D01*
X159188610Y-115009473D01*
X159228875Y-115269344D01*
X159319065Y-115516366D01*
X159372963Y-115617203D01*
X159606731Y-115676664D01*
X160348395Y-114935000D01*
X160707605Y-114935000D01*
X161449269Y-115676664D01*
X161683037Y-115617203D01*
X161793934Y-115378758D01*
X161856183Y-115123260D01*
X161867390Y-114860527D01*
X161827125Y-114600656D01*
X161736935Y-114353634D01*
X161683037Y-114252797D01*
X161449269Y-114193336D01*
X160707605Y-114935000D01*
X160348395Y-114935000D01*
X159606731Y-114193336D01*
X159372963Y-114252797D01*
X159262066Y-114491242D01*
X159199817Y-114746740D01*
X159188610Y-115009473D01*
X154243000Y-115009473D01*
X154243000Y-114803514D01*
X154191696Y-114545595D01*
X154091061Y-114302641D01*
X153944962Y-114083987D01*
X153874706Y-114013731D01*
X159786336Y-114013731D01*
X160528000Y-114755395D01*
X161269664Y-114013731D01*
X161210203Y-113779963D01*
X160971758Y-113669066D01*
X160716260Y-113606817D01*
X160453527Y-113595610D01*
X160193656Y-113635875D01*
X159946634Y-113726065D01*
X159845797Y-113779963D01*
X159786336Y-114013731D01*
X153874706Y-114013731D01*
X153759013Y-113898038D01*
X153540359Y-113751939D01*
X153297405Y-113651304D01*
X153039486Y-113600000D01*
X152776514Y-113600000D01*
X152518595Y-113651304D01*
X152275641Y-113751939D01*
X152056987Y-113898038D01*
X151905025Y-114050000D01*
X148962521Y-114050000D01*
X148942637Y-114020241D01*
X148742759Y-113820363D01*
X148540173Y-113685000D01*
X148742759Y-113549637D01*
X148942637Y-113349759D01*
X149099680Y-113114727D01*
X149207853Y-112853574D01*
X149263000Y-112576335D01*
X149263000Y-112293665D01*
X149207853Y-112016426D01*
X149099680Y-111755273D01*
X148942637Y-111520241D01*
X148742759Y-111320363D01*
X148507727Y-111163320D01*
X148246574Y-111055147D01*
X147969335Y-111000000D01*
X147686665Y-111000000D01*
X147409426Y-111055147D01*
X147148273Y-111163320D01*
X146913241Y-111320363D01*
X146713363Y-111520241D01*
X146693479Y-111550000D01*
X143834579Y-111550000D01*
X143633000Y-111348422D01*
X143633000Y-108317975D01*
X143750975Y-108200000D01*
X146514531Y-108200000D01*
X146558000Y-108204281D01*
X146601469Y-108200000D01*
X146601477Y-108200000D01*
X146731490Y-108187195D01*
X146898313Y-108136589D01*
X147052059Y-108054411D01*
X147186817Y-107943817D01*
X147214534Y-107910044D01*
X148423050Y-106701529D01*
X148456817Y-106673817D01*
X148486873Y-106637195D01*
X148567410Y-106539060D01*
X148567411Y-106539059D01*
X148649589Y-106385313D01*
X148700195Y-106218490D01*
X148713000Y-106088477D01*
X148713000Y-106088467D01*
X148717281Y-106045001D01*
X148713000Y-106001535D01*
X148713000Y-105777975D01*
X148864962Y-105626013D01*
X149011061Y-105407359D01*
X149111696Y-105164405D01*
X149163000Y-104906486D01*
X149163000Y-104643514D01*
X149111696Y-104385595D01*
X149011061Y-104142641D01*
X148864962Y-103923987D01*
X148679013Y-103738038D01*
X148460359Y-103591939D01*
X148217405Y-103491304D01*
X147959486Y-103440000D01*
X147696514Y-103440000D01*
X147438595Y-103491304D01*
X147195641Y-103591939D01*
X146976987Y-103738038D01*
X146791038Y-103923987D01*
X146644939Y-104142641D01*
X146544304Y-104385595D01*
X146493000Y-104643514D01*
X146493000Y-104906486D01*
X146544304Y-105164405D01*
X146644939Y-105407359D01*
X146791038Y-105626013D01*
X146893223Y-105728198D01*
X146191422Y-106430000D01*
X143750975Y-106430000D01*
X143599013Y-106278038D01*
X143380359Y-106131939D01*
X143137405Y-106031304D01*
X142879486Y-105980000D01*
X142616514Y-105980000D01*
X142358595Y-106031304D01*
X142115641Y-106131939D01*
X141896987Y-106278038D01*
X141711038Y-106463987D01*
X141564939Y-106682641D01*
X141464304Y-106925595D01*
X141413000Y-107183514D01*
X141413000Y-107446486D01*
X141464304Y-107704405D01*
X141564939Y-107947359D01*
X141711038Y-108166013D01*
X141863001Y-108317976D01*
X141863000Y-111671523D01*
X141863000Y-111671531D01*
X141858719Y-111715000D01*
X141863000Y-111758469D01*
X141863000Y-111848421D01*
X140661432Y-113049990D01*
X139934569Y-113049990D01*
X137583010Y-110698432D01*
X137583010Y-106494248D01*
X137587291Y-106450782D01*
X137583010Y-106407316D01*
X137583010Y-106407306D01*
X137570205Y-106277293D01*
X137519599Y-106110470D01*
X137437421Y-105956724D01*
X137326827Y-105821966D01*
X137293059Y-105794253D01*
X135668749Y-104169944D01*
X135641034Y-104136173D01*
X135506276Y-104025579D01*
X135352530Y-103943401D01*
X135185707Y-103892795D01*
X135055694Y-103879990D01*
X135055686Y-103879990D01*
X135012217Y-103875709D01*
X134968748Y-103879990D01*
X133203010Y-103879990D01*
X133203010Y-97496459D01*
X133290148Y-97783715D01*
X133441969Y-98067752D01*
X133646286Y-98316714D01*
X133895248Y-98521031D01*
X134179285Y-98672852D01*
X134487484Y-98766343D01*
X134727678Y-98790000D01*
X135428322Y-98790000D01*
X135668516Y-98766343D01*
X135976715Y-98672852D01*
X136260752Y-98521031D01*
X136509714Y-98316714D01*
X136714031Y-98067752D01*
X136865852Y-97783715D01*
X136959343Y-97475516D01*
X136990911Y-97155000D01*
X136959343Y-96834484D01*
X136865852Y-96526285D01*
X136714031Y-96242248D01*
X136509714Y-95993286D01*
X136377767Y-95885000D01*
X136509714Y-95776714D01*
X136714031Y-95527752D01*
X136865852Y-95243715D01*
X136959343Y-94935516D01*
X136990911Y-94615000D01*
X136959343Y-94294484D01*
X136865852Y-93986285D01*
X136714031Y-93702248D01*
X136509714Y-93453286D01*
X136377767Y-93345000D01*
X136509714Y-93236714D01*
X136714031Y-92987752D01*
X136728865Y-92960000D01*
X140664531Y-92960000D01*
X140708000Y-92964281D01*
X140751469Y-92960000D01*
X140751477Y-92960000D01*
X140881490Y-92947195D01*
X141048313Y-92896589D01*
X141202059Y-92814411D01*
X141336817Y-92703817D01*
X141364534Y-92670044D01*
X141548000Y-92486578D01*
X141731470Y-92670049D01*
X141759183Y-92703817D01*
X141792951Y-92731530D01*
X141792953Y-92731532D01*
X141821216Y-92754727D01*
X141893941Y-92814411D01*
X142047687Y-92896589D01*
X142214510Y-92947195D01*
X142344523Y-92960000D01*
X142344533Y-92960000D01*
X142387999Y-92964281D01*
X142431465Y-92960000D01*
X142923479Y-92960000D01*
X142943363Y-92989759D01*
X143143241Y-93189637D01*
X143378273Y-93346680D01*
X143639426Y-93454853D01*
X143916665Y-93510000D01*
X144199335Y-93510000D01*
X144476574Y-93454853D01*
X144737727Y-93346680D01*
X144972759Y-93189637D01*
X145094694Y-93067702D01*
X145744903Y-93067702D01*
X145816486Y-93311671D01*
X146071996Y-93432571D01*
X146346184Y-93501300D01*
X146628512Y-93515217D01*
X146908130Y-93473787D01*
X147174292Y-93378603D01*
X147299514Y-93311671D01*
X147371097Y-93067702D01*
X146558000Y-92254605D01*
X145744903Y-93067702D01*
X145094694Y-93067702D01*
X145172637Y-92989759D01*
X145306692Y-92789131D01*
X145321329Y-92816514D01*
X145565298Y-92888097D01*
X146378395Y-92075000D01*
X146737605Y-92075000D01*
X147550702Y-92888097D01*
X147794671Y-92816514D01*
X147915571Y-92561004D01*
X147984300Y-92286816D01*
X147998217Y-92004488D01*
X147956787Y-91724870D01*
X147861603Y-91458708D01*
X147794671Y-91333486D01*
X147550702Y-91261903D01*
X146737605Y-92075000D01*
X146378395Y-92075000D01*
X145565298Y-91261903D01*
X145321329Y-91333486D01*
X145307676Y-91362341D01*
X145172637Y-91160241D01*
X145094694Y-91082298D01*
X145744903Y-91082298D01*
X146558000Y-91895395D01*
X147371097Y-91082298D01*
X147299514Y-90838329D01*
X147044004Y-90717429D01*
X146769816Y-90648700D01*
X146487488Y-90634783D01*
X146207870Y-90676213D01*
X145941708Y-90771397D01*
X145816486Y-90838329D01*
X145744903Y-91082298D01*
X145094694Y-91082298D01*
X144972759Y-90960363D01*
X144737727Y-90803320D01*
X144476574Y-90695147D01*
X144199335Y-90640000D01*
X143916665Y-90640000D01*
X143639426Y-90695147D01*
X143378273Y-90803320D01*
X143143241Y-90960363D01*
X142943363Y-91160241D01*
X142923479Y-91190000D01*
X142754579Y-91190000D01*
X142443000Y-90878422D01*
X142443000Y-89821578D01*
X145654579Y-86610000D01*
X162701422Y-86610000D01*
X165012953Y-88921532D01*
X165012958Y-88921536D01*
X167263000Y-91171579D01*
X167263001Y-107271521D01*
X167258719Y-107315000D01*
X167275805Y-107488490D01*
X167326412Y-107655313D01*
X167408590Y-107809059D01*
X167491468Y-107910046D01*
X167491471Y-107910049D01*
X167519184Y-107943817D01*
X167552951Y-107971529D01*
X168761470Y-109180049D01*
X168789183Y-109213817D01*
X168822951Y-109241530D01*
X168822953Y-109241532D01*
X168845399Y-109259953D01*
X168923941Y-109324411D01*
X169077687Y-109406589D01*
X169244510Y-109457195D01*
X169374523Y-109470000D01*
X169374533Y-109470000D01*
X169417999Y-109474281D01*
X169461465Y-109470000D01*
X171577135Y-109470000D01*
X171591969Y-109497752D01*
X171796286Y-109746714D01*
X171928233Y-109855000D01*
X171796286Y-109963286D01*
X171591969Y-110212248D01*
X171440148Y-110496285D01*
X171346657Y-110804484D01*
X171315089Y-111125000D01*
X171346657Y-111445516D01*
X171440148Y-111753715D01*
X171591969Y-112037752D01*
X171796286Y-112286714D01*
X171928233Y-112395000D01*
X171796286Y-112503286D01*
X171591969Y-112752248D01*
X171440148Y-113036285D01*
X171346657Y-113344484D01*
X171315089Y-113665000D01*
X171346657Y-113985516D01*
X171440148Y-114293715D01*
X171591969Y-114577752D01*
X171796286Y-114826714D01*
X172045248Y-115031031D01*
X172329285Y-115182852D01*
X172343000Y-115187012D01*
X172343001Y-122188420D01*
X172316196Y-122215225D01*
X172251776Y-122195684D01*
X171958000Y-122166749D01*
X171664223Y-122195684D01*
X171381736Y-122281375D01*
X171121394Y-122420531D01*
X170893203Y-122607803D01*
X170705931Y-122835995D01*
X170688000Y-122869541D01*
X170670069Y-122835994D01*
X170482797Y-122607803D01*
X170254605Y-122420531D01*
X169994263Y-122281375D01*
X169711776Y-122195684D01*
X169418000Y-122166749D01*
X169124223Y-122195684D01*
X168841736Y-122281375D01*
X168581394Y-122420531D01*
X168353203Y-122607803D01*
X168165931Y-122835995D01*
X168148000Y-122869541D01*
X168130069Y-122835994D01*
X167942797Y-122607803D01*
X167714605Y-122420531D01*
X167454263Y-122281375D01*
X167171776Y-122195684D01*
X166878000Y-122166749D01*
X166584223Y-122195684D01*
X166301736Y-122281375D01*
X166041394Y-122420531D01*
X165813203Y-122607803D01*
X165625931Y-122835995D01*
X165608000Y-122869541D01*
X165590069Y-122835994D01*
X165402797Y-122607803D01*
X165174605Y-122420531D01*
X164914263Y-122281375D01*
X164631776Y-122195684D01*
X164338000Y-122166749D01*
X164044223Y-122195684D01*
X163761736Y-122281375D01*
X163501394Y-122420531D01*
X163273203Y-122607803D01*
X163085931Y-122835995D01*
X163068000Y-122869541D01*
X163050069Y-122835994D01*
X162862797Y-122607803D01*
X162683000Y-122460248D01*
X162683000Y-119111578D01*
X164193049Y-117601530D01*
X164226817Y-117573817D01*
X164302415Y-117481702D01*
X164337410Y-117439060D01*
X164376374Y-117366163D01*
X164419589Y-117285313D01*
X164470195Y-117118490D01*
X164483000Y-116988477D01*
X164483000Y-116988467D01*
X164487281Y-116945001D01*
X164483000Y-116901535D01*
X164483000Y-109408465D01*
X164487281Y-109364999D01*
X164483000Y-109321533D01*
X164483000Y-109321523D01*
X164470195Y-109191510D01*
X164419589Y-109024687D01*
X164337411Y-108870941D01*
X164226817Y-108736183D01*
X164193050Y-108708472D01*
X159664534Y-104179956D01*
X159636817Y-104146183D01*
X159502059Y-104035589D01*
X159348313Y-103953411D01*
X159181490Y-103902805D01*
X159051477Y-103890000D01*
X159051469Y-103890000D01*
X159008000Y-103885719D01*
X158964531Y-103890000D01*
X156450975Y-103890000D01*
X156299013Y-103738038D01*
X156080359Y-103591939D01*
X155837405Y-103491304D01*
X155579486Y-103440000D01*
X155364579Y-103440000D01*
X154783000Y-102858422D01*
X154783000Y-92399521D01*
X154812759Y-92379637D01*
X154934694Y-92257702D01*
X160584903Y-92257702D01*
X160656486Y-92501671D01*
X160911996Y-92622571D01*
X161186184Y-92691300D01*
X161468512Y-92705217D01*
X161748130Y-92663787D01*
X162014292Y-92568603D01*
X162139514Y-92501671D01*
X162211097Y-92257702D01*
X161398000Y-91444605D01*
X160584903Y-92257702D01*
X154934694Y-92257702D01*
X155012637Y-92179759D01*
X155169680Y-91944727D01*
X155277853Y-91683574D01*
X155333000Y-91406335D01*
X155333000Y-91335512D01*
X159957783Y-91335512D01*
X159999213Y-91615130D01*
X160094397Y-91881292D01*
X160161329Y-92006514D01*
X160405298Y-92078097D01*
X161218395Y-91265000D01*
X161577605Y-91265000D01*
X162390702Y-92078097D01*
X162634671Y-92006514D01*
X162755571Y-91751004D01*
X162824300Y-91476816D01*
X162838217Y-91194488D01*
X162796787Y-90914870D01*
X162701603Y-90648708D01*
X162634671Y-90523486D01*
X162390702Y-90451903D01*
X161577605Y-91265000D01*
X161218395Y-91265000D01*
X160405298Y-90451903D01*
X160161329Y-90523486D01*
X160040429Y-90778996D01*
X159971700Y-91053184D01*
X159957783Y-91335512D01*
X155333000Y-91335512D01*
X155333000Y-91123665D01*
X155277853Y-90846426D01*
X155169680Y-90585273D01*
X155012637Y-90350241D01*
X154934694Y-90272298D01*
X160584903Y-90272298D01*
X161398000Y-91085395D01*
X162211097Y-90272298D01*
X162139514Y-90028329D01*
X161884004Y-89907429D01*
X161609816Y-89838700D01*
X161327488Y-89824783D01*
X161047870Y-89866213D01*
X160781708Y-89961397D01*
X160656486Y-90028329D01*
X160584903Y-90272298D01*
X154934694Y-90272298D01*
X154812759Y-90150363D01*
X154577727Y-89993320D01*
X154316574Y-89885147D01*
X154039335Y-89830000D01*
X153756665Y-89830000D01*
X153479426Y-89885147D01*
X153218273Y-89993320D01*
X152983241Y-90150363D01*
X152783363Y-90350241D01*
X152626320Y-90585273D01*
X152518147Y-90846426D01*
X152463000Y-91123665D01*
X152463000Y-91406335D01*
X152518147Y-91683574D01*
X152626320Y-91944727D01*
X152783363Y-92179759D01*
X152983241Y-92379637D01*
X153013000Y-92399521D01*
X153013001Y-103181521D01*
X153008719Y-103225000D01*
X153025805Y-103398490D01*
X153076412Y-103565313D01*
X153158590Y-103719059D01*
X153241468Y-103820046D01*
X153241471Y-103820049D01*
X153269184Y-103853817D01*
X153302951Y-103881529D01*
X154113000Y-104691579D01*
X154113000Y-104906486D01*
X154164304Y-105164405D01*
X154264939Y-105407359D01*
X154411038Y-105626013D01*
X154596987Y-105811962D01*
X154815641Y-105958061D01*
X155058595Y-106058696D01*
X155316514Y-106110000D01*
X155579486Y-106110000D01*
X155837405Y-106058696D01*
X156080359Y-105958061D01*
X156299013Y-105811962D01*
X156450975Y-105660000D01*
X158641422Y-105660000D01*
X162713000Y-109731579D01*
X162713001Y-116578420D01*
X161202956Y-118088466D01*
X161169183Y-118116183D01*
X161058589Y-118250942D01*
X160976411Y-118404688D01*
X160925805Y-118571511D01*
X160913000Y-118701524D01*
X160913000Y-118701531D01*
X160908719Y-118745000D01*
X160913000Y-118788469D01*
X160913001Y-122460246D01*
X160733203Y-122607803D01*
X160545931Y-122835995D01*
X160406775Y-123096337D01*
X160321084Y-123378824D01*
X160299400Y-123598982D01*
X160299400Y-124051019D01*
X160321084Y-124271177D01*
X160406775Y-124553664D01*
X160545931Y-124814006D01*
X160733203Y-125042197D01*
X160961395Y-125229469D01*
X161221737Y-125368625D01*
X161504224Y-125454316D01*
X161798000Y-125483251D01*
X162091777Y-125454316D01*
X162374264Y-125368625D01*
X162634606Y-125229469D01*
X162862797Y-125042197D01*
X163050069Y-124814006D01*
X163068000Y-124780459D01*
X163085931Y-124814006D01*
X163273203Y-125042197D01*
X163501395Y-125229469D01*
X163761737Y-125368625D01*
X164044224Y-125454316D01*
X164338000Y-125483251D01*
X164631777Y-125454316D01*
X164914264Y-125368625D01*
X165174606Y-125229469D01*
X165402797Y-125042197D01*
X165590069Y-124814006D01*
X165608000Y-124780459D01*
X165625931Y-124814006D01*
X165813203Y-125042197D01*
X166041395Y-125229469D01*
X166301737Y-125368625D01*
X166584224Y-125454316D01*
X166878000Y-125483251D01*
X167171777Y-125454316D01*
X167454264Y-125368625D01*
X167714606Y-125229469D01*
X167942797Y-125042197D01*
X168130069Y-124814006D01*
X168148000Y-124780459D01*
X168165931Y-124814006D01*
X168353203Y-125042197D01*
X168581395Y-125229469D01*
X168841737Y-125368625D01*
X169124224Y-125454316D01*
X169418000Y-125483251D01*
X169711777Y-125454316D01*
X169994264Y-125368625D01*
X170254606Y-125229469D01*
X170482797Y-125042197D01*
X170670069Y-124814006D01*
X170688000Y-124780459D01*
X170705931Y-124814006D01*
X170893203Y-125042197D01*
X171121395Y-125229469D01*
X171381737Y-125368625D01*
X171664224Y-125454316D01*
X171958000Y-125483251D01*
X172251777Y-125454316D01*
X172534264Y-125368625D01*
X172794606Y-125229469D01*
X173022797Y-125042197D01*
X173210069Y-124814006D01*
X173228000Y-124780459D01*
X173245931Y-124814006D01*
X173433203Y-125042197D01*
X173661395Y-125229469D01*
X173921737Y-125368625D01*
X174204224Y-125454316D01*
X174498000Y-125483251D01*
X174791777Y-125454316D01*
X175074264Y-125368625D01*
X175334606Y-125229469D01*
X175562797Y-125042197D01*
X175750069Y-124814006D01*
X175889225Y-124553663D01*
X175974916Y-124271176D01*
X175996600Y-124051018D01*
X175996600Y-123598981D01*
X175974916Y-123378823D01*
X175889225Y-123096336D01*
X175750069Y-122835994D01*
X175562797Y-122607803D01*
X175377506Y-122455739D01*
X175370195Y-122381510D01*
X175319589Y-122214687D01*
X175237411Y-122060941D01*
X175140999Y-121943464D01*
X175140999Y-120619706D01*
X175337887Y-120816594D01*
X175774702Y-121108464D01*
X176260065Y-121309508D01*
X176775323Y-121412000D01*
X177300677Y-121412000D01*
X177815935Y-121309508D01*
X178301298Y-121108464D01*
X178738113Y-120816594D01*
X178868000Y-120686707D01*
X178868000Y-120990908D01*
X176560617Y-123298292D01*
X176533526Y-123320525D01*
X176511293Y-123347616D01*
X176444801Y-123428637D01*
X176378872Y-123551981D01*
X176338274Y-123685816D01*
X176324565Y-123825000D01*
X176328001Y-123859885D01*
X176328000Y-125655000D01*
X126909707Y-125655000D01*
X127039594Y-125525113D01*
X127331464Y-125088298D01*
X127532508Y-124602935D01*
X127635000Y-124087677D01*
X127635000Y-123562323D01*
X127532508Y-123047065D01*
X127331464Y-122561702D01*
X127039594Y-122124887D01*
X126668113Y-121753406D01*
X126231298Y-121461536D01*
X125745935Y-121260492D01*
X125230677Y-121158000D01*
X124705323Y-121158000D01*
X124190065Y-121260492D01*
X123704702Y-121461536D01*
X123267887Y-121753406D01*
X122896406Y-122124887D01*
X122604536Y-122561702D01*
X122403492Y-123047065D01*
X122301000Y-123562323D01*
X122301000Y-124087677D01*
X122403492Y-124602935D01*
X122604536Y-125088298D01*
X122896406Y-125525113D01*
X123026293Y-125655000D01*
X111708000Y-125655000D01*
X111708000Y-103373514D01*
X113473000Y-103373514D01*
X113473000Y-103636486D01*
X113524304Y-103894405D01*
X113624939Y-104137359D01*
X113771038Y-104356013D01*
X113923000Y-104507975D01*
X113923001Y-106312024D01*
X113771038Y-106463987D01*
X113624939Y-106682641D01*
X113524304Y-106925595D01*
X113473000Y-107183514D01*
X113473000Y-107446486D01*
X113524304Y-107704405D01*
X113624939Y-107947359D01*
X113771038Y-108166013D01*
X113956987Y-108351962D01*
X114175641Y-108498061D01*
X114418595Y-108598696D01*
X114676514Y-108650000D01*
X114939486Y-108650000D01*
X115197405Y-108598696D01*
X115440359Y-108498061D01*
X115659013Y-108351962D01*
X115844962Y-108166013D01*
X115991061Y-107947359D01*
X116091696Y-107704405D01*
X116143000Y-107446486D01*
X116143000Y-107183514D01*
X116091696Y-106925595D01*
X115991061Y-106682641D01*
X115844962Y-106463987D01*
X115693000Y-106312025D01*
X115693000Y-104507975D01*
X115844962Y-104356013D01*
X115991061Y-104137359D01*
X116091696Y-103894405D01*
X116143000Y-103636486D01*
X116143000Y-103373514D01*
X116091696Y-103115595D01*
X115991061Y-102872641D01*
X115844962Y-102653987D01*
X115659013Y-102468038D01*
X115440359Y-102321939D01*
X115197405Y-102221304D01*
X114939486Y-102170000D01*
X114676514Y-102170000D01*
X114418595Y-102221304D01*
X114175641Y-102321939D01*
X113956987Y-102468038D01*
X113771038Y-102653987D01*
X113624939Y-102872641D01*
X113524304Y-103115595D01*
X113473000Y-103373514D01*
X111708000Y-103373514D01*
X111708000Y-73735000D01*
X124296293Y-73735000D01*
X124166406Y-73864887D01*
G37*
%TD.AperFunction*%
D19*
X125921969Y-92987752D02*
X126126286Y-93236714D01*
X126258233Y-93345000D01*
X126126286Y-93453286D01*
X125921969Y-93702248D01*
X125770148Y-93986285D01*
X125676657Y-94294484D01*
X125645089Y-94615000D01*
X125676657Y-94935516D01*
X125770148Y-95243715D01*
X125921969Y-95527752D01*
X126126286Y-95776714D01*
X126256142Y-95883284D01*
X126042078Y-96088683D01*
X125857990Y-96352239D01*
X125728856Y-96646645D01*
X125697876Y-96774566D01*
X125817223Y-97028000D01*
X127431000Y-97028000D01*
X127431000Y-97008000D01*
X127685000Y-97008000D01*
X127685000Y-97028000D01*
X127705000Y-97028000D01*
X127705000Y-97282000D01*
X127685000Y-97282000D01*
X127685000Y-98790000D01*
X127955000Y-98790000D01*
X128271532Y-98733807D01*
X128571020Y-98616942D01*
X128841954Y-98443895D01*
X129073922Y-98221317D01*
X129163000Y-98093785D01*
X129163001Y-104885747D01*
X129158719Y-104929226D01*
X129175805Y-105102716D01*
X129226412Y-105269539D01*
X129308590Y-105423285D01*
X129391468Y-105524272D01*
X129391471Y-105524275D01*
X129419184Y-105558043D01*
X129452951Y-105585755D01*
X130297196Y-106430000D01*
X126291469Y-106430000D01*
X126248000Y-106425719D01*
X126204531Y-106430000D01*
X123430975Y-106430000D01*
X123279013Y-106278038D01*
X123060359Y-106131939D01*
X122817405Y-106031304D01*
X122559486Y-105980000D01*
X122296514Y-105980000D01*
X122038595Y-106031304D01*
X121795641Y-106131939D01*
X121576987Y-106278038D01*
X121391038Y-106463987D01*
X121244939Y-106682641D01*
X121144304Y-106925595D01*
X121093000Y-107183514D01*
X121093000Y-107446486D01*
X121144304Y-107704405D01*
X121244939Y-107947359D01*
X121391038Y-108166013D01*
X121576987Y-108351962D01*
X121795641Y-108498061D01*
X122038595Y-108598696D01*
X122296514Y-108650000D01*
X122559486Y-108650000D01*
X122817405Y-108598696D01*
X123060359Y-108498061D01*
X123279013Y-108351962D01*
X123430975Y-108200000D01*
X125881422Y-108200000D01*
X126527513Y-108846091D01*
X126393363Y-108980241D01*
X126236320Y-109215273D01*
X126128147Y-109476426D01*
X126073000Y-109753665D01*
X126073000Y-110036335D01*
X126128147Y-110313574D01*
X126236320Y-110574727D01*
X126393363Y-110809759D01*
X126593241Y-111009637D01*
X126793869Y-111143692D01*
X126766486Y-111158329D01*
X126694903Y-111402298D01*
X127508000Y-112215395D01*
X128321097Y-111402298D01*
X128249514Y-111158329D01*
X128220659Y-111144676D01*
X128422759Y-111009637D01*
X128622637Y-110809759D01*
X128779680Y-110574727D01*
X128887853Y-110313574D01*
X128943000Y-110036335D01*
X128943000Y-109753665D01*
X128887853Y-109476426D01*
X128779680Y-109215273D01*
X128622637Y-108980241D01*
X128422759Y-108780363D01*
X128393000Y-108760479D01*
X128393000Y-108618466D01*
X128397281Y-108574999D01*
X128393000Y-108531533D01*
X128393000Y-108531523D01*
X128380195Y-108401510D01*
X128329589Y-108234687D01*
X128311049Y-108200000D01*
X132390305Y-108200000D01*
X132433774Y-108204281D01*
X132477243Y-108200000D01*
X132855025Y-108200000D01*
X133006987Y-108351962D01*
X133225641Y-108498061D01*
X133468595Y-108598696D01*
X133726514Y-108650000D01*
X133989486Y-108650000D01*
X134247405Y-108598696D01*
X134490359Y-108498061D01*
X134709013Y-108351962D01*
X134813000Y-108247975D01*
X134813001Y-111507294D01*
X134812734Y-111510000D01*
X132631465Y-111510000D01*
X132587999Y-111505719D01*
X132544533Y-111510000D01*
X132544523Y-111510000D01*
X132414510Y-111522805D01*
X132247687Y-111573411D01*
X132093941Y-111655589D01*
X132093939Y-111655590D01*
X132093940Y-111655590D01*
X131992953Y-111738468D01*
X131992951Y-111738470D01*
X131959183Y-111766183D01*
X131931470Y-111799951D01*
X129681422Y-114050000D01*
X125334579Y-114050000D01*
X124672281Y-113387702D01*
X126694903Y-113387702D01*
X126766486Y-113631671D01*
X127021996Y-113752571D01*
X127296184Y-113821300D01*
X127578512Y-113835217D01*
X127858130Y-113793787D01*
X128124292Y-113698603D01*
X128249514Y-113631671D01*
X128321097Y-113387702D01*
X127508000Y-112574605D01*
X126694903Y-113387702D01*
X124672281Y-113387702D01*
X124583000Y-113298422D01*
X124583000Y-112465512D01*
X126067783Y-112465512D01*
X126109213Y-112745130D01*
X126204397Y-113011292D01*
X126271329Y-113136514D01*
X126515298Y-113208097D01*
X127328395Y-112395000D01*
X127687605Y-112395000D01*
X128500702Y-113208097D01*
X128744671Y-113136514D01*
X128865571Y-112881004D01*
X128934300Y-112606816D01*
X128948217Y-112324488D01*
X128906787Y-112044870D01*
X128811603Y-111778708D01*
X128744671Y-111653486D01*
X128500702Y-111581903D01*
X127687605Y-112395000D01*
X127328395Y-112395000D01*
X126515298Y-111581903D01*
X126271329Y-111653486D01*
X126150429Y-111908996D01*
X126081700Y-112183184D01*
X126067783Y-112465512D01*
X124583000Y-112465512D01*
X124583000Y-111168465D01*
X124587281Y-111124999D01*
X124583000Y-111081533D01*
X124583000Y-111081523D01*
X124570195Y-110951510D01*
X124519589Y-110784687D01*
X124437411Y-110630941D01*
X124326817Y-110496183D01*
X124293050Y-110468471D01*
X123084534Y-109259956D01*
X123056817Y-109226183D01*
X122922059Y-109115589D01*
X122768313Y-109033411D01*
X122601490Y-108982805D01*
X122471477Y-108970000D01*
X122471469Y-108970000D01*
X122428000Y-108965719D01*
X122384531Y-108970000D01*
X120254579Y-108970000D01*
X119503000Y-108218422D01*
X119503000Y-97535434D01*
X125697876Y-97535434D01*
X125728856Y-97663355D01*
X125857990Y-97957761D01*
X126042078Y-98221317D01*
X126274046Y-98443895D01*
X126544980Y-98616942D01*
X126844468Y-98733807D01*
X127161000Y-98790000D01*
X127431000Y-98790000D01*
X127431000Y-97282000D01*
X125817223Y-97282000D01*
X125697876Y-97535434D01*
X119503000Y-97535434D01*
X119503000Y-97198465D01*
X119507281Y-97154999D01*
X119503000Y-97111533D01*
X119503000Y-97111523D01*
X119490195Y-96981510D01*
X119439589Y-96814687D01*
X119415704Y-96770000D01*
X122384531Y-96770000D01*
X122428000Y-96774281D01*
X122471469Y-96770000D01*
X122471477Y-96770000D01*
X122601490Y-96757195D01*
X122768313Y-96706589D01*
X122922059Y-96624411D01*
X123056817Y-96513817D01*
X123084534Y-96480044D01*
X125563050Y-94001529D01*
X125596817Y-93973817D01*
X125707411Y-93839059D01*
X125789589Y-93685313D01*
X125840195Y-93518490D01*
X125853000Y-93388477D01*
X125853000Y-93388467D01*
X125857281Y-93345001D01*
X125853000Y-93301535D01*
X125853000Y-92858720D01*
X125921969Y-92987752D01*
%TA.AperFunction,Conductor*%
D20*
G36*
X125921969Y-92987752D02*
G01*
X126126286Y-93236714D01*
X126258233Y-93345000D01*
X126126286Y-93453286D01*
X125921969Y-93702248D01*
X125770148Y-93986285D01*
X125676657Y-94294484D01*
X125645089Y-94615000D01*
X125676657Y-94935516D01*
X125770148Y-95243715D01*
X125921969Y-95527752D01*
X126126286Y-95776714D01*
X126256142Y-95883284D01*
X126042078Y-96088683D01*
X125857990Y-96352239D01*
X125728856Y-96646645D01*
X125697876Y-96774566D01*
X125817223Y-97028000D01*
X127431000Y-97028000D01*
X127431000Y-97008000D01*
X127685000Y-97008000D01*
X127685000Y-97028000D01*
X127705000Y-97028000D01*
X127705000Y-97282000D01*
X127685000Y-97282000D01*
X127685000Y-98790000D01*
X127955000Y-98790000D01*
X128271532Y-98733807D01*
X128571020Y-98616942D01*
X128841954Y-98443895D01*
X129073922Y-98221317D01*
X129163000Y-98093785D01*
X129163001Y-104885747D01*
X129158719Y-104929226D01*
X129175805Y-105102716D01*
X129226412Y-105269539D01*
X129308590Y-105423285D01*
X129391468Y-105524272D01*
X129391471Y-105524275D01*
X129419184Y-105558043D01*
X129452951Y-105585755D01*
X130297196Y-106430000D01*
X126291469Y-106430000D01*
X126248000Y-106425719D01*
X126204531Y-106430000D01*
X123430975Y-106430000D01*
X123279013Y-106278038D01*
X123060359Y-106131939D01*
X122817405Y-106031304D01*
X122559486Y-105980000D01*
X122296514Y-105980000D01*
X122038595Y-106031304D01*
X121795641Y-106131939D01*
X121576987Y-106278038D01*
X121391038Y-106463987D01*
X121244939Y-106682641D01*
X121144304Y-106925595D01*
X121093000Y-107183514D01*
X121093000Y-107446486D01*
X121144304Y-107704405D01*
X121244939Y-107947359D01*
X121391038Y-108166013D01*
X121576987Y-108351962D01*
X121795641Y-108498061D01*
X122038595Y-108598696D01*
X122296514Y-108650000D01*
X122559486Y-108650000D01*
X122817405Y-108598696D01*
X123060359Y-108498061D01*
X123279013Y-108351962D01*
X123430975Y-108200000D01*
X125881422Y-108200000D01*
X126527513Y-108846091D01*
X126393363Y-108980241D01*
X126236320Y-109215273D01*
X126128147Y-109476426D01*
X126073000Y-109753665D01*
X126073000Y-110036335D01*
X126128147Y-110313574D01*
X126236320Y-110574727D01*
X126393363Y-110809759D01*
X126593241Y-111009637D01*
X126793869Y-111143692D01*
X126766486Y-111158329D01*
X126694903Y-111402298D01*
X127508000Y-112215395D01*
X128321097Y-111402298D01*
X128249514Y-111158329D01*
X128220659Y-111144676D01*
X128422759Y-111009637D01*
X128622637Y-110809759D01*
X128779680Y-110574727D01*
X128887853Y-110313574D01*
X128943000Y-110036335D01*
X128943000Y-109753665D01*
X128887853Y-109476426D01*
X128779680Y-109215273D01*
X128622637Y-108980241D01*
X128422759Y-108780363D01*
X128393000Y-108760479D01*
X128393000Y-108618466D01*
X128397281Y-108574999D01*
X128393000Y-108531533D01*
X128393000Y-108531523D01*
X128380195Y-108401510D01*
X128329589Y-108234687D01*
X128311049Y-108200000D01*
X132390305Y-108200000D01*
X132433774Y-108204281D01*
X132477243Y-108200000D01*
X132855025Y-108200000D01*
X133006987Y-108351962D01*
X133225641Y-108498061D01*
X133468595Y-108598696D01*
X133726514Y-108650000D01*
X133989486Y-108650000D01*
X134247405Y-108598696D01*
X134490359Y-108498061D01*
X134709013Y-108351962D01*
X134813000Y-108247975D01*
X134813001Y-111507294D01*
X134812734Y-111510000D01*
X132631465Y-111510000D01*
X132587999Y-111505719D01*
X132544533Y-111510000D01*
X132544523Y-111510000D01*
X132414510Y-111522805D01*
X132247687Y-111573411D01*
X132093941Y-111655589D01*
X132093939Y-111655590D01*
X132093940Y-111655590D01*
X131992953Y-111738468D01*
X131992951Y-111738470D01*
X131959183Y-111766183D01*
X131931470Y-111799951D01*
X129681422Y-114050000D01*
X125334579Y-114050000D01*
X124672281Y-113387702D01*
X126694903Y-113387702D01*
X126766486Y-113631671D01*
X127021996Y-113752571D01*
X127296184Y-113821300D01*
X127578512Y-113835217D01*
X127858130Y-113793787D01*
X128124292Y-113698603D01*
X128249514Y-113631671D01*
X128321097Y-113387702D01*
X127508000Y-112574605D01*
X126694903Y-113387702D01*
X124672281Y-113387702D01*
X124583000Y-113298422D01*
X124583000Y-112465512D01*
X126067783Y-112465512D01*
X126109213Y-112745130D01*
X126204397Y-113011292D01*
X126271329Y-113136514D01*
X126515298Y-113208097D01*
X127328395Y-112395000D01*
X127687605Y-112395000D01*
X128500702Y-113208097D01*
X128744671Y-113136514D01*
X128865571Y-112881004D01*
X128934300Y-112606816D01*
X128948217Y-112324488D01*
X128906787Y-112044870D01*
X128811603Y-111778708D01*
X128744671Y-111653486D01*
X128500702Y-111581903D01*
X127687605Y-112395000D01*
X127328395Y-112395000D01*
X126515298Y-111581903D01*
X126271329Y-111653486D01*
X126150429Y-111908996D01*
X126081700Y-112183184D01*
X126067783Y-112465512D01*
X124583000Y-112465512D01*
X124583000Y-111168465D01*
X124587281Y-111124999D01*
X124583000Y-111081533D01*
X124583000Y-111081523D01*
X124570195Y-110951510D01*
X124519589Y-110784687D01*
X124437411Y-110630941D01*
X124326817Y-110496183D01*
X124293050Y-110468471D01*
X123084534Y-109259956D01*
X123056817Y-109226183D01*
X122922059Y-109115589D01*
X122768313Y-109033411D01*
X122601490Y-108982805D01*
X122471477Y-108970000D01*
X122471469Y-108970000D01*
X122428000Y-108965719D01*
X122384531Y-108970000D01*
X120254579Y-108970000D01*
X119503000Y-108218422D01*
X119503000Y-97535434D01*
X125697876Y-97535434D01*
X125728856Y-97663355D01*
X125857990Y-97957761D01*
X126042078Y-98221317D01*
X126274046Y-98443895D01*
X126544980Y-98616942D01*
X126844468Y-98733807D01*
X127161000Y-98790000D01*
X127431000Y-98790000D01*
X127431000Y-97282000D01*
X125817223Y-97282000D01*
X125697876Y-97535434D01*
X119503000Y-97535434D01*
X119503000Y-97198465D01*
X119507281Y-97154999D01*
X119503000Y-97111533D01*
X119503000Y-97111523D01*
X119490195Y-96981510D01*
X119439589Y-96814687D01*
X119415704Y-96770000D01*
X122384531Y-96770000D01*
X122428000Y-96774281D01*
X122471469Y-96770000D01*
X122471477Y-96770000D01*
X122601490Y-96757195D01*
X122768313Y-96706589D01*
X122922059Y-96624411D01*
X123056817Y-96513817D01*
X123084534Y-96480044D01*
X125563050Y-94001529D01*
X125596817Y-93973817D01*
X125707411Y-93839059D01*
X125789589Y-93685313D01*
X125840195Y-93518490D01*
X125853000Y-93388477D01*
X125853000Y-93388467D01*
X125857281Y-93345001D01*
X125853000Y-93301535D01*
X125853000Y-92858720D01*
X125921969Y-92987752D01*
G37*
%TD.AperFunction*%
%TD*%
M02*
